<?xml version="1.0" encoding="utf-8"?>
<!-- Generator: Adobe Illustrator 15.1.0, SVG Export Plug-In . SVG Version: 6.00 Build 0)  -->
<!DOCTYPE svg PUBLIC "-//W3C//DTD SVG 1.1//EN" "http://www.w3.org/Graphics/SVG/1.1/DTD/svg11.dtd">
<svg version="1.1" id="Layer_1" xmlns="http://www.w3.org/2000/svg" xmlns:xlink="http://www.w3.org/1999/xlink" x="0px" y="0px"
	 width="741.805px" height="164px" viewBox="0 0 741.805 164" enable-background="new 0 0 741.805 164" xml:space="preserve" fill="black">
<g>
	<g id="uw9n4Z.tif">
		<g>
			<path d="M22.373,83.802c0.565-1.508,1.508-2.827,3.017-3.676c1.509-0.849,3.771-0.849,5.091,0.472
				c0.377,0.377,0.849,0.754,1.226,1.131c0,0.097,0,0.188,0,0.283c-1.226,0.188-2.451,0.377-3.677,0.565
				c0.377,0.563,1.037,0.659,1.697,0.659s1.226,0.095,1.886,0.188c-1.131,1.227-2.451,2.264-4.243,1.979
				c-0.565-0.096-1.037-0.377-1.603-0.654c-0.754-0.377-1.415-0.754-2.074-1.037c-0.472-0.188-0.943,0.188-1.32,0.563
				C22.373,84.18,22.373,83.992,22.373,83.802z"/>
			<path d="M194.151,85.029c-0.095-0.098-0.283-0.098-0.377-0.188c-0.755-0.565-1.414-0.378-2.169,0
				c-0.471,0.282-0.942,0.565-1.319,0.849c-0.66,0.479-1.414,0.479-2.168,0.377c-1.227-0.094-2.357-0.652-3.207-1.885
				c1.509,0.096,2.83,0,4.055-0.85c-1.415-0.188-2.924-0.377-4.432-0.471c0-0.096-0.094-0.189-0.094-0.283
				c0.66-0.564,1.227-1.229,1.979-1.697c1.886-1.037,3.583-0.943,5.468,0.66c0.85,0.66,1.415,1.509,1.792,2.452
				c0.095,0.188,0.283,0.377,0.377,0.563C194.151,84.746,194.151,84.84,194.151,85.029z"/>
			<path d="M94.78,111.521"/>
			<path d="M104.963,35.25c1.037,0.564,2.168,1.131,3.205,1.697c0,0.094-0.094,0.188-0.094,0.188
				c-0.565-0.188-1.226-0.377-1.791-0.566c-0.66-0.188-1.226-0.281-1.886-0.377c-0.849,0-1.792-0.188-2.545,0.188
				c-1.037,0.472-1.886,0-2.734-0.377c-0.471-0.188-0.943-0.377-1.603-0.566c0.849-0.377,1.508-0.754,2.263-1.037
				c1.414-0.471,2.923-1.037,4.431-1.414c0.849-0.281,1.791-0.377,2.64-0.564c1.697-0.377,3.395-0.66,4.997-1.131
				c0.283-0.097,0.565-0.377,0.754-0.66c1.509-1.697,1.32-4.62-1.226-5.468c-1.131-0.377-1.98-0.096-2.922,0.377
				c1.037-1.228,2.828-1.414,4.147-0.66c1.509,0.941,2.733,2.732,1.415,5.657c0.941-0.188,1.791-0.474,2.357-1.228
				c1.32-1.696,1.791-3.583,1.414-5.657c-0.094-0.564-0.377-1.131-0.566-1.695c0.85,0.472,1.32,2.355,1.415,3.3
				c0.094,1.32-0.377,2.451-0.849,3.771c1.414-0.754,2.64-1.603,3.677-2.546c1.036-0.941,1.979-1.979,2.546-3.3
				c-0.189,1.32-0.473,2.641-1.227,3.771c-1.131,1.695-2.64,2.922-4.336,3.959c-1.791,1.131-3.771,1.695-5.75,2.263
				c-1.227,0.377-2.451,0.66-3.678,0.943c-0.943,0.188-1.98,0.377-2.922,0.564C105.81,34.966,105.433,35.155,104.963,35.25z"/>
			<path d="M91.197,34.023c-0.66-0.849-1.226-1.603-1.885-2.449c0,0-0.019,0-0.019-0.096c1.697,1.228,3.602,2.451,5.393,3.488
				c0.66,0.377,1.509,0.471,2.263,0.754c1.509,0.566,2.923,1.229,4.337,1.792c1.509,0.66,3.017,1.32,4.431,1.98
				c0.66,0.281,1.226,0.66,1.792,0.941c-0.943,0.66-1.792,1.228-2.734,1.791c-0.188,0.096-0.471,0.096-0.66,0
				c-1.32-0.66-2.734-1.414-4.054-2.073c-1.226-0.564-2.545-1.132-3.865-1.696c-1.32-0.566-2.64-1.131-3.96-1.414
				c-1.037-0.283-2.168,0-3.206,0.377c-0.377,0.188-0.754,0.377-1.131,0.471l-0.094-0.094c0.566-0.471,1.226-0.942,1.886-1.508
				c-1.131-0.283-2.168-0.566-3.3-0.377c-1.697,0.282-2.923,1.226-4.243,2.168c-1.414,1.037-3.017,1.318-4.62,0.848
				c-0.943-0.283-1.697-0.943-1.98-1.885c0.472,0.283,0.943,0.563,1.509,0.848c1.508,0.754,2.734,0.377,4.054-0.563
				c1.415-1.133,2.829-2.168,4.525-2.829c0.849-0.283,1.792-0.377,2.64-0.473C89.217,33.929,90.16,34.023,91.197,34.023"/>
			<path d="M40.855,78.91c-0.094,0.377-0.286,1.216-0.286,1.594c-0.094,1.604,0.094,3.111,0.471,4.619
				c0.283,0.941,0.472,1.886,0.754,2.829c0.377,1.226,0.849,2.45,1.32,3.677c0.754,2.264,1.131,4.525,0.566,6.883
				c-0.754,3.11-2.357,5.656-4.903,7.637c-1.131,0.854-2.545,1.319-4.054,1.229c-0.377,0-0.849-0.188-1.32-0.377
				c1.791-0.283,3.3-1.131,4.336-2.354c1.037-1.037,1.886-2.265,2.734-3.485c0.471-0.754,0.754-1.694,1.037-2.644
				c0.188-0.563,0.283-1.133,0.283-1.692c0-1.036-0.094-2.072-0.188-3.021c-0.283-2.168-1.414-4.055-2.168-6.029
				c-0.566-1.604-1.226-3.207-1.32-4.9c0-0.474,0.283-0.943,0.565-1.415C39.249,80.691,40.195,79.665,40.855,78.91
				C40.855,79.004,40.855,78.91,40.855,78.91z"/>
			<path d="M34.442,116.707c2.734,0.563,4.336-0.943,5.845-2.828c0.377,2.354-0.472,4.525-2.64,5.469
				c-1.508,0.659-3.017,0.659-4.62,0.188c-1.32-0.377-2.357-1.037-3.488-1.697c-0.094,0-0.094-0.094-0.188-0.28
				c1.508-0.283,2.451-1.316,3.206-2.354c1.508-2.074,3.583-2.928,6.128-2.73C37.836,114.538,36.326,115.857,34.442,116.707z"/>
			<path d="M154.553,46.752c1.037,0,3.018,0.472,3.488,1.32c0.66,1.132,1.32,2.354,2.074,3.583c-1.51-0.566-2.83-1.229-4.244-1.604
				c-2.262-0.66-4.619-0.848-6.977-0.563c-1.792,0.188-3.583,0.658-5.186,1.508c-1.791,0.849-3.301,1.886-4.715,3.109
				c-0.565,0.473-1.131,1.037-1.696,1.604l0,0c0.188-0.377,0.472-0.85,0.659-1.228c1.132-1.695,2.546-3.017,4.244-4.054
				c1.697-1.037,3.487-1.979,5.468-2.354c1.508-0.283,2.922-0.66,4.431-0.85c0.941-0.094,1.979-0.094,3.018-0.094
				c0.283,0,0.472,0,0.754,0"/>
			<path d="M107.979,18.751c0.377,1.415-0.094,2.355-1.226,3.3c-1.037,0.943-2.263,1.697-3.111,2.734
				c-1.131,1.318-1.508,3.017-0.942,4.714c0.471,1.32,1.603,1.792,2.922,1.886c0.849,0.094,1.697,0.094,2.64,0.188
				c0,0.094,0,0.094,0,0.188c-0.377,0.094-0.66,0.094-1.037,0.188c-1.603,0.377-3.206,0.754-4.809,1.035
				c-0.283,0.096-0.66,0-0.943-0.094c-1.414-0.66-2.922-1.319-4.242-2.168c-1.131-0.754-2.263-1.603-3.111-2.732
				c-0.848-1.133-1.32-2.357-1.697-3.679c-0.094-0.281-0.114-0.524-0.114-0.809c2.074,3.865,5.583,5.712,9.731,7.126
				c-0.094-0.283-0.188-0.566-0.283-0.754c-0.566-1.228-0.566-2.545,0-3.771c0.848-1.886,0.188-4.054-1.226-5.468
				c-0.377-0.377-0.66-0.66-1.037-0.943c1.226-0.094,2.64,1.414,3.488,4.056c1.131-0.754,2.357-1.509,3.488-2.265
				C107.413,20.919,107.979,19.975,107.979,18.751z"/>
			<path d="M129.946,34.495c1.227,0.094,2.357,0.564,3.301,1.226c1.226,0.851,2.356,1.697,3.488,2.546
				c1.036,0.754,2.733,0.66,3.771,0c0.377-0.188,0.659-0.472,1.036-0.754c-0.282,1.131-1.225,1.886-2.356,2.074
				c-0.659,0.094-1.319,0.094-1.886,0c-1.227-0.188-2.168-0.849-3.111-1.604c-1.414-1.131-3.017-1.885-4.809-1.791
				c-0.943,0-1.791,0-2.734,0c0,0.096,0,0.096,0,0.188c0.66,0.472,1.227,1.037,1.887,1.603c0,0.096,0,0,0,0.096
				c-0.095,0,0,0-0.096,0c-1.226-0.754-2.922-1.037-4.431-0.943c-0.472,0-0.849,0.377-1.226,0.471c-0.188,0.096-0.377,0-0.472-0.094
				c-0.659-0.471-1.319-1.037-1.979-1.508c-0.094-0.094-0.188-0.188-0.283-0.283c0.094-0.094,0.283-0.188,0.377-0.188
				c1.792-0.565,3.488-1.228,4.809-2.545c0.565-0.566,1.037-1.32,1.508-1.98c0.094,0.754,0.094,0.754-1.508,3.111
				C126.741,34.306,128.343,34.4,129.946,34.495"/>
			<path d="M81.11,96.531c-2.451-0.283-4.431-1.037-5.751-3.111c-0.943-1.414-1.037-2.828-0.66-4.431
				c0.094-0.378,0.377-0.757,0.66-1.229c-0.377,1.887,0.283,3.396,1.697,4.62c0.094,0.095,0.283,0.188,0.565,0.283
				c-1.037-1.979-1.508-3.771-0.283-5.751c0.849,0.471,1.791,0.939,2.64,1.414c0.66,0.377,0.943,1.131,0.849,1.886
				c-0.094,0.754-0.188,1.509-0.188,2.263C80.545,93.796,80.261,95.211,81.11,96.531z"/>
			<path d="M70.833,97.852c-1.037-0.563-1.98-1.416-2.734-2.547c-0.849-1.414-1.131-2.923-0.66-4.432
				c0.377-1.318,1.131-2.355,2.451-2.828c0.472-0.188,0.943-0.377,1.32-0.564c-0.471,1.037-1.131,1.979-1.414,3.021
				c-0.283,1.038-0.283,2.169-0.283,3.3c0.754-1.886,1.414-3.862,2.922-5.374c0.377,0.66,0.754,1.229,1.037,1.889
				c0.472,1.135,0.189,2.268-0.471,3.303c-0.377,0.658-0.943,1.229-1.226,1.888C71.493,96.248,71.211,97.003,70.833,97.852z"/>
			<path d="M179.255,68.435c1.037,1.791,1.98,3.396,3.017,4.997c0.095,0,0.095,0,0.188,0c-0.094-0.66-0.188-1.226-0.377-1.886
				s-0.377-1.226-0.66-1.885c-0.283-0.66-0.566-1.228-0.85-1.98c1.227,0.377,2.264,0.754,3.111,1.604
				c1.604,1.695,2.074,3.677,1.697,5.938c-0.094,0.852-0.283,1.604-0.471,2.643c-0.85-1.229-2.168-1.51-3.207-2.074
				c-1.226-0.66-2.073-1.604-2.45-2.828C178.594,71.546,178.688,70.132,179.255,68.435z"/>
			<path d="M189.059,67.398c-0.754,0-1.509-0.094-2.263,0c-0.66,0.096-1.226,0.377-1.792,0.565c-0.377,0.094-0.85,0.283-1.32,0.283
				c-1.227,0.094-2.263-0.474-3.206-1.131c-0.282-0.189-0.565-0.474-0.942-0.754c1.791,0.094,3.394-0.188,5.09-0.943
				c-1.885-0.188-3.676-0.377-5.467-0.565c2.168-2.452,3.677-2.923,6.222-2.355C186.985,62.779,188.87,65.512,189.059,67.398z"/>
			<path d="M31.895,85.971c0.188,0.565,0.377,1.037,0.566,1.51c0.754,2.168-0.472,4.813-2.168,5.852
				c-0.943,0.563-1.697,1.313-2.734,2.066c-0.283-1.508-0.66-2.922-0.942-4.431c-0.283-1.696,1.037-4.146,2.545-4.809
				c0.471-0.188,0.943-0.377,1.414-0.66c-0.283,0.849-0.66,1.696-0.849,2.452c-0.188,0.848-0.377,1.693-0.565,2.545
				c0.094,0,0.094,0,0.188,0C30.104,88.989,30.952,87.574,31.895,85.971z"/>
			<path d="M60.368,56.086c-1.037-0.377-2.074-0.283-3.017,0.188c-0.943,0.473-1.792,1.037-2.64,1.51
				c0.283-1.604,0.942-3.396,3.017-4.148c0.754-0.283,1.509-0.565,2.357-0.66c0.943-0.188,1.603-0.66,2.263-1.508
				c0.095,1.131,0.283,2.263,0.283,3.3c-0.094,1.414-0.472,2.734-1.509,3.677c-1.131,1.133-2.451,1.32-3.959,1.133
				c-0.472-0.096-0.943-0.188-1.414-0.377C56.974,57.593,58.576,56.745,60.368,56.086z"/>
			<path d="M142.485,22.616c0.094,1.318,0.943,1.979,1.697,2.64c0.564,0.472,1.227,1.037,1.697,1.697
				c0.566,0.848,0.754,1.885,0.377,2.922c-0.188,0.564-0.377,1.131-0.66,1.886c-0.473-0.66-0.943-1.226-1.32-1.792
				c-0.377-0.563-0.754-1.226-1.226-1.885c0,1.508,0.377,2.828,1.226,4.054c-0.943,0.094-2.64-0.848-3.3-1.791
				c-0.754-1.226-0.849-2.546-0.472-3.96C140.788,25.067,141.542,23.935,142.485,22.616z"/>
			<path d="M172.655,87.764c-0.094-1.037-0.754-1.887-1.319-2.642c-0.66-0.851-1.509-1.604-2.169-2.545
				c-0.942-1.32-0.942-2.734-0.282-4.147c0.094-0.188,0.094-0.283,0.188-0.473c0.849,0.564,1.414,1.414,1.885,2.264
				c0.472,0.85,0.849,1.791,1.226,2.733c0.283-1.979-0.094-3.488-1.509-5.468c1.509,0.377,2.734,1.035,3.395,2.354
				c0.848,1.604,0.848,3.206,0.094,4.902c-0.377,0.939-0.849,1.791-1.227,2.73C172.843,87.574,172.749,87.669,172.655,87.764z"/>
			<path d="M94.969,66.362c-0.094-0.566-0.189-1.133-0.283-1.604c-0.283-1.603,0.566-2.734,1.697-3.677
				c0.754-0.66,1.508-1.228,2.263-1.886c0.565-0.473,0.943-1.133,1.131-1.887c0.188,0.473,0.471,0.943,0.565,1.414
				c0.189,1.131,0.472,2.168,0.566,3.3c0.094,1.697-0.094,3.302-1.603,4.339c-0.377,0.281-0.848,0.377-1.226,0.563
				c-0.565,0.189-1.226,0.189-1.979,0.377c0.848-1.415,1.697-2.732,2.545-4.054C97.042,63.911,96.1,65.042,94.969,66.362z"/>
			<path d="M119.01,25.632c-0.754-2.922-1.131-3.583-2.734-4.62c0.848,1.697,1.604,3.396,1.131,5.468
				c-0.66-0.281-1.226-0.563-1.886-0.941c-1.603-0.943-2.073-2.357-1.886-4.056c0.094-1.226,0.377-2.546-0.283-3.864
				c0.66,0.188,1.227,0.188,1.792,0.472c1.037,0.471,2.074,0.848,2.923,1.508c1.413,1.037,2.073,2.642,1.603,4.433
				c-0.095,0.563-0.378,1.131-0.566,1.695C119.104,25.632,119.104,25.632,119.01,25.632z"/>
			<path d="M157.47,70.628c-0.565,2.263-1.319,4.337-3.677,5.28c-1.508,0.66-3.111,0.563-4.525-0.377
				c-0.094,0-0.094-0.098-0.094-0.189c1.131-1.32,2.734-1.885,4.242-2.734c-1.697-0.28-3.205,0.283-4.525,1.134
				c0.189-1.511,1.32-3.019,3.111-3.302c1.414-0.281,2.64,0.188,3.96,0.283C156.339,70.628,156.811,70.628,157.47,70.628z"/>
			<path d="M107.715,21.582c1.037-0.943,0.83-1.7,0.643-3.021c-0.096-0.471-0.378-0.941-0.661-1.414
				c0,1.791-0.283,3.488-2.074,4.525c-0.377-0.849-0.943-1.697-1.226-2.545c-0.283-0.849,0.094-1.604,0.471-2.357
				c0.472-0.754,0.849-1.508,1.32-2.263c0.377-0.66,0.283-1.32-0.189-2.074c1.226,0.377,2.168,0.943,2.923,1.886
				c1.227,1.414,1.792,3.11,1.227,4.996c-0.378,1.228-1.227,1.888-2.264,2.546c-0.188,0.095-0.668,0.354-0.951,0.448
				C107.028,22.123,107.809,21.582,107.715,21.582z"/>
			<path d="M68.193,73.148c-1.603-0.94-3.111-1.694-5.091-1.317c1.037,0.563,1.98,0.94,2.829,1.508
				c0.565,0.283,1.037,0.754,1.508,1.132c0.094,0.094,0,0.471-0.094,0.471c-1.131,0.66-2.357,0.756-3.677,0.474
				c-2.263-0.565-3.3-2.168-4.054-4.243c-0.094-0.188-0.188-0.377-0.188-0.565c-0.094-0.188,0-0.377-0.094-0.564
				c1.603-0.095,3.206-0.377,4.808-0.377c1.98,0,2.923,0.941,3.583,2.641C67.91,72.584,68.005,72.771,68.193,73.148z"/>
			<path d="M181.517,97.945c0.565,1.789,1.697,3.017,3.111,3.863c-0.755-1.695-1.697-3.306-1.979-5.188
				c1.319,0.188,2.45,0.472,3.393,1.317c0.85,0.852,1.227,1.889,1.509,3.02c0.282,1.132,0.094,2.266-0.188,3.396
				c-0.094,0.475-0.377,0.938-0.66,1.512c-0.565-1.32-1.791-1.697-2.828-2.266c-1.793-0.94-2.828-2.828-2.641-4.813
				C181.329,98.605,181.423,98.322,181.517,97.945z"/>
			<path d="M28.973,105.486c-2.074-4.146,0-9.146,4.431-8.861c-0.283,1.792-1.131,3.395-1.98,4.997
				c1.508-0.754,2.451-2.074,3.111-3.582c0.283,1.979-0.189,3.677-1.792,4.899c-0.471,0.379-0.943,0.66-1.508,0.852
				C30.387,103.979,29.538,104.545,28.973,105.486z"/>
			<path d="M83.844,25.067c-1.415,1.51-2.074,3.583-3.866,4.716c-0.188-0.473-0.377-0.943-0.471-1.32
				c-0.377-1.131,0-2.168,0.849-3.019c0.754-0.754,1.697-1.412,2.451-2.072s1.226-1.414,1.508-2.451
				c0.377,0.754,0.754,1.414,1.037,2.168c0.377,1.131,0.566,2.355,0.471,3.583c-0.094,2.546-1.508,3.96-3.865,4.525
				c-0.188,0-0.377,0.095-0.566,0.095C82.995,29.499,83.749,27.33,83.844,25.067z"/>
			<path d="M159.644,101.527c0.755-1.319,0.472-2.646,0.377-3.961c-0.094-0.754-0.094-1.51,0-2.269
				c0.095-1.032,0.943-1.692,1.697-2.263c0.472-0.283,0.942-0.563,1.509-0.938c0.471,2.446-0.66,4.434-1.509,6.405
				c0.66-0.094,2.168-1.229,2.546-1.979c0.471-0.94,0.848-2.071,1.227-3.021c0.377,0.853,0.66,1.888,0.564,2.923
				c-0.188,1.604-1.131,2.646-2.357,3.487C162.472,100.773,161.153,101.15,159.644,101.527z"/>
			<path d="M156.628,37.701c-0.566-1.604-1.131-3.111-1.697-4.62c-0.377,1.697,0,3.394,0.377,5.186
				c-1.131-0.564-1.885-1.318-2.451-2.263c-0.754-1.415-0.564-2.734-0.094-4.243c0.473-1.508,1.32-2.734,2.545-3.866
				c-0.471,1.228,0.283,1.98,0.754,2.734c0.66,0.943,1.508,1.791,1.887,2.923c0.282,1.037,0.188,1.979-0.377,2.922
				C157.288,36.947,157.005,37.229,156.628,37.701z"/>
			<path d="M92.14,21.767c-0.188,1.792,0,3.396,0.754,4.997c-0.754,0.189-1.226-0.188-1.603-0.563
				c-1.791-1.51-1.979-3.679-1.32-5.657c0.377-1.037,0.849-1.98,1.603-2.734c0.377,1.037,1.226,1.792,2.074,2.357
				c1.415,0.94,2.357,2.355,2.074,4.336c-0.094,0.66-0.188,1.415-0.377,2.168C93.554,25.444,92.8,23.653,92.14,21.767z"/>
			<path d="M58.297,90.26c0.377-1.697,0.849-3.205,2.357-4.337c0.754,1.414,1.131,2.923,0.66,4.525
				c-0.283,1.034-1.037,1.792-1.792,2.448c-0.66,0.66-1.226,1.315-1.131,2.453c-1.886-1.695-2.734-3.684-2.545-6.035
				c0.094-1.412,1.697-3.396,2.922-3.771c-0.283,0.754-0.565,1.509-0.848,2.354C57.732,88.658,58.014,89.412,58.297,90.26z"/>
			<path d="M60.745,28.178c1.226,1.131,1.98,2.451,2.451,3.865c0.283,1.037,0.472,1.979,0.283,3.111
				c-0.283,1.226-1.037,2.168-2.074,2.826c-0.189,0.097-0.283,0.189-0.377,0.283c0.283-1.792,0.566-3.583,0.754-5.374
				c-0.094,0-0.188-0.094-0.283-0.094c-0.188,0.377-0.377,0.754-0.566,1.226c-0.189,0.474-0.283,0.943-0.471,1.32
				c-0.188,0.472-0.377,0.943-0.566,1.32c-0.188,0.472-0.283,0.849-0.565,1.509c-0.472-0.754-1.037-1.32-1.32-1.98
				c-0.377-0.849-0.377-1.792,0-2.64c0.471-0.943,1.131-1.792,1.791-2.734C60.463,30.063,61.028,29.309,60.745,28.178z"/>
			<path d="M52.071,33.174c1.415,0.188,3.017,0.566,4.243,1.697c1.697,1.603,2.168,3.486,1.226,5.751
				c-0.66-1.604-1.508-3.019-3.111-3.96c0.66,1.603,1.226,3.109,1.792,4.714c-0.094,0-0.094,0.094-0.188,0.094
				c-0.754-0.283-1.509-0.472-2.263-0.754c-0.66-0.283-1.037-0.943-1.32-1.603c-0.472-1.134-0.283-2.265-0.283-3.489
				C52.165,34.778,52.071,33.929,52.071,33.174z"/>
			<path d="M103.548,74.658c-0.848-2.357-2.168-4.148-4.525-4.902c1.414,1.697,2.734,3.301,3.111,5.563
				c-2.074,0.283-4.243-1.131-4.714-3.108c-0.094-0.565,0-1.131,0-1.792c0-0.85-0.094-1.697-0.754-2.451
				c0.283,0,0.472-0.094,0.754-0.094c1.226,0,2.545,0,3.771,0.472c0.943,0.377,1.697,1.037,2.168,2.074
				c0.566,1.131,0.566,2.263,0.377,3.489C103.548,74.092,103.548,74.281,103.548,74.658z"/>
			<path d="M136.075,29.686c-1.604-1.226-2.168-3.109-3.584-4.714c0.095,2.263,0.754,4.054,2.074,5.845
				c-0.943-0.188-1.603-0.377-2.263-0.849c-0.942-0.66-1.697-1.603-1.979-2.828c-0.188-0.754-0.188-1.696,0-2.451
				c0.188-1.035,0.66-1.979,1.037-2.923c0.094-0.283,0.282-0.471,0.471-0.849c0.188,1.414,1.132,2.168,2.074,2.923
				c0.754,0.565,1.416,1.131,2.074,1.791c0.66,0.754,0.66,1.792,0.377,2.734C136.263,28.838,136.169,29.309,136.075,29.686z"/>
			<path d="M136.208,67.464c1.037,0.094,1.979,0,3.017,0.283c0.942,0.188,1.791,0.66,2.733,1.037
				c-0.659-1.51-2.45-2.922-5.656-2.922c0.566-0.566,1.037-1.133,1.792-1.414c1.979-0.756,4.147,0.281,5.185,1.603
				c0.85,1.131,1.416,2.357,1.604,3.771c-1.037-0.377-2.074-0.377-3.111,0c-1.226,0.377-2.545,0.472-3.771-0.377
				c-0.659-0.566-1.319-1.133-1.979-1.697C136.208,67.558,136.208,67.464,136.208,67.464z"/>
			<path d="M154.237,60.007c0.473,0.754,0.943,1.509,1.227,2.357c1.037,2.45,0.472,4.431-1.604,6.032
				c-0.565,0.473-1.226,0.851-1.979,1.228c0.094-1.32-0.754-2.074-1.132-3.111c-0.564-1.603-0.471-3.109,0.378-4.523
				c0.282-0.473,0.659-1.037,1.036-1.604c0.565,2.168,0.188,4.242,0.377,6.316c1.32-1.979,1.509-4.337,1.414-6.602
				C154.143,60.007,154.143,60.007,154.237,60.007z"/>
			<path d="M36.704,58.63c0.188-1.508,0.565-3.017,1.508-4.337c1.131-1.508,2.64-2.357,4.525-2.074
				c0.377,0.094,0.754,0.283,1.131,0.377c-1.98,1.131-3.677,2.545-4.808,4.433c1.885-1.037,3.677-2.357,5.845-3.206
				c-0.377,0.848-0.66,1.603-1.037,2.263c-0.66,0.943-1.508,1.603-2.64,1.979c-1.037,0.377-2.168,0.377-3.206,0.377
				C37.552,58.442,37.081,58.537,36.704,58.63z"/>
			<path d="M140.52,74.383c-0.283,1.979-0.849,3.678-2.64,4.715c-0.377-1.132-0.566-2.264-0.283-3.395
				c0.283-1.32,1.037-2.266,1.886-3.206c0.66-0.66,1.414-1.32,2.074-1.886c0.377,1.226,0.943,2.45,1.131,3.771
				c0.377,2.357-0.188,4.054-2.545,5.279c-0.283,0.095-0.566,0.095-0.943,0.188C140.897,78.25,141.18,76.459,140.52,74.383z"/>
			<path d="M177.934,107.184c0.66,0.188,1.227,0.283,1.791,0.479c1.32,0.563,2.546,0.094,3.771-0.377
				c0.094,0,0.094-0.103,0.188-0.188c-0.094,0-0.188-0.097-0.283-0.097c-0.754-0.097-1.509-0.188-2.263-0.377
				c-0.942-0.283-1.792-0.94-2.452-1.791c1.51-1.037,3.583-0.854,4.997,0.276c0.754,0.563,1.414,1.138,2.168,1.604
				c0.377,0.283,0.943,0.378,1.509,0.563c-1.132,0.758-2.074,1.414-3.111,2.072c-0.471,0.28-1.131,0.477-1.697,0.477
				c-0.754,0-1.51,0-2.264-0.188C178.971,109.258,178.407,108.316,177.934,107.184z"/>
			<path d="M113.542,75.695c-0.377-1.98,1.037-3.771,3.111-4.057c0.754-0.095,1.508-0.188,2.262-0.188
				c0.756,0,1.509,0.188,2.168,0.188c-0.377,0.565-0.848,1.229-1.131,1.791c-0.282,0.566-0.471,1.131-0.66,1.697
				c-0.471,1.414-1.225,2.355-2.922,2.264c-0.659,0-1.319,0-1.979,0c0.565-1.51,1.697-2.451,2.64-3.678
				C115.521,73.809,114.39,74.563,113.542,75.695z"/>
			<path d="M137.112,38.078c0.659-1.604,2.168-2.923,4.147-2.546c0.942,0.188,1.979,0,3.017,0c-0.188,1.979-0.943,3.771-2.923,4.618
				c-1.226,0.566-2.545,0.474-3.677-0.188c1.227,0.094,2.451-0.094,3.3-1.037c0.472-0.563,0.943-1.226,0.943-2.168
				C140.506,37.983,139.091,39.115,137.112,38.078z"/>
			<path d="M79.601,37.983c-1.697,0.379-3.111-0.281-4.431-1.603c-0.188,0.849,0.188,1.414,0.66,1.886
				c0.472,0.473,0.943,0.851,1.509,1.037c0.565,0.283,1.226,0.283,1.886,0.377c-0.943,0.565-1.886,0.565-2.923,0.471
				c-1.131-0.188-1.98-0.848-2.64-1.789c-0.66-1.037-0.849-2.17-0.943-3.488c1.037,0.563,1.979,0.377,2.922,0.188
				C77.527,34.873,79.412,36.287,79.601,37.983z"/>
			<path d="M125.422,51.088c-1.226,0.943-1.886,2.074-2.074,3.583c-0.942-0.754-1.131-2.734-0.565-3.865
				c0.66-1.131,0.849-1.508,2.828-2.732c0.283,0.754,0.566,1.603,0.85,2.355c0.849,1.885,0.564,3.111-0.943,4.431
				c-0.188,0.188-0.472,0.283-0.85,0.565C124.855,53.917,125.138,52.503,125.422,51.088z"/>
			<path d="M90.82,50.899c0.283,1.604,0.565,3.111,0.943,4.716c-1.792-0.943-2.546-2.168-2.263-3.771
				c0.094-0.565,0.471-1.131,0.66-1.697c0.188-0.471,0.283-0.94,0.377-1.414c0.848,0.188,2.64,1.604,3.017,2.546
				c0.472,1.319,0.472,2.451-0.471,3.584C92.611,53.256,92.14,51.936,90.82,50.899z"/>
			<path d="M106.094,35.25c0.471-0.094,1.037-0.188,1.508-0.188c1.131,0,1.98,0.473,2.641,1.32c0.472,0.566,0.754,1.32,1.131,1.98
				c0.188,0.281,0,0.471-0.283,0.471c-0.85,0.188-1.604,0.377-2.451,0.472c-1.792,0.377-3.017-0.849-3.677-2.168
				c-0.095-0.188-0.095-0.283-0.283-0.564c1.603,0.094,2.923,0.849,4.243,1.414C108.922,37.134,107.319,35.815,106.094,35.25z"/>
			<path d="M84.945,40.341c0-1.226,0.471-2.546,1.603-3.394c0.566-0.474,1.32-0.66,1.98-0.474c-0.565,0.66-1.131,1.32-1.697,2.074
				c0.094,0.094,0.094,0.094,0.188,0.188c1.131-0.379,2.074-1.228,3.3-1.228c0.283,2.074-1.98,3.488-3.583,2.923
				C86.172,40.248,85.605,40.341,84.945,40.341z"/>
			<path d="M126.936,37.701c0.85,0.377,1.697,0.754,2.641,1.226c-0.188-1.037-1.037-1.603-1.697-2.168
				c1.697-0.754,4.148,1.037,4.431,3.583c-1.131,0-2.263,0.094-3.394,0C127.973,40.151,126.842,38.925,126.936,37.701z"/>
			<path d="M176.897,106.053c0.188-0.66,0.377-1.32,0.66-2.074c1.32,1.696,2.734,3.021,4.903,3.205
				C181.329,108.128,177.934,107.09,176.897,106.053z"/>
			<path d="M114.485,101.999"/>
		</g>
	</g>
</g>
<path d="M102.705,146.896c-0.951-1.271-3.738-1.912-4.574-2.193c-1.458-0.629-1.674-0.568-2.429-0.945
	c-0.471-0.188-0.616-0.305-0.946-0.533c-0.575-0.246-0.92-1.203-0.866-2.02c-0.905-1.627,1.197,0.645,2.263,0.939
	c1.617,0.504,3.192,1.334,4.354,1.93c1.052,0.539,2.517,0.795,2.342,1.412"/>
<path d="M106.444,141.932c0.565-0.473,0.686-1.271,1.158-1.656c1.414,1.229,5.549,3.432,7.34,4.186
	c0.943,0.377,1.643,0.914,2.586,1.291c0.129,0.063,1.996,1.563,2.034,1.625c0.071,0.123-0.973-0.313-1.034-0.188
	c-0.293,0.514,0.194,0.726-0.186,0.688c-0.109-0.016-1.671-1.02-1.798-1.061c-1.132-0.475-2.263-0.938-3.3-1.414
	C111.642,144.547,108.047,142.779,106.444,141.932z"/>
<path d="M95.709,153.043c-0.66-1.037-0.754-2.168-0.471-3.301c0.283-1.131,0.84-2.082,1.783-2.838
	c0.289-0.205,0.889-0.789,1.484-1.16c0.766-0.479,1.608-1.297,2.022-1.104c1.469,0.676,4.345,2.188,0.367,0.854
	c0.283,0.096,1.047-0.004,1.424,0.188c-1.603,0.563-3.499,1.418-4.63,2.455C96.276,149.459,95.615,150.875,95.709,153.043"/>
<path d="M107.965,152.373c-0.471-2.266,0.283-4.057,1.98-5.563c0.564-0.479,1.131-0.77,1.791-1.232
	c0.094-0.096,2.828-1.221,2.922-1.125c0.377,0.189,1.34,0.482,1.623,0.674c-0.479,0.436-1.529,0.506-2.695,1.119
	c-1.36,0.717-2.852,1.984-3.358,2.545c-1.036,1.037-1.521,2.885-1.992,4.393"/>
<path d="M114.188,151.713c0.094-1.037,0.565-1.791,1.227-2.451c0.66-0.66,1.508-1.227,2.074-1.979
	c0.66-0.756,1.226-1.512,1.696-2.451c0.81-1.619,0.406-1.496,1.593-1.836c0.377-0.098,0.654-0.563,1.125-0.75
	c-0.754,2.168-2.341,4.852-4.037,6.266c-0.85,0.658-1.553,1.064-2.4,1.818C114.993,150.609,114.565,151.24,114.188,151.713z"/>
<path d="M120.411,153.127c0.377-1.697-0.094-3.111-1.227-4.432c-0.188-0.234-1.21-1.105-1.188-1.271
	c0.023-0.164,0.519,0.057,0.801-0.18c0.094-0.07,0.08-0.35,0.146-0.35c0.199-0.002,0.971,0.832,1.183,1.045
	c0.849,1.133,1.131,2.451,0.942,3.77c-0.094,0.473-0.481,1.152-0.67,1.721"/>
<path d="M97.717,147.578c0.377-0.283,0.704-0.412,0.986-0.602c0.188,0.188,0.209-0.313,0.429-0.109
	c1.213,1.1,3.718,3.502,3.957,5.18C101.92,150.346,98.864,148.561,97.717,147.578z"/>
<path d="M104.433,144.445"/>
<path d="M103.299,146.463c-0.188-0.236-1.21-1.107-1.187-1.273"/>
<path d="M104.525,150.893"/>
<path d="M103.937,151.195c0.377-1.697-0.848-4.506-2.653-5.369c-3.771-1.381,0.217-0.17,0.241-0.334
	c0.023-0.166,0.518,0.057,0.8-0.182c0.094-0.068,0.08-0.354,0.146-0.354c0.2-0.004,0.971,0.832,1.183,1.045
	c0.849,1.137,1.131,2.449,0.943,3.771c-0.094,0.475-0.482,1.146-0.67,1.721"/>
<polyline points="66.866,126.945 54.961,126.945 54.961,126.382 66.866,126.382 "/>
<rect x="47.024" y="126.382" width="3.969" height="0.563"/>
<polyline points="64.866,131.945 52.961,131.945 52.961,131.383 64.866,131.383 "/>
<polyline points="69.992,138.945 66.024,138.945 66.024,138.383 69.992,138.383 "/>
<rect x="90.362" y="97.382" width="8.504" height="0.563"/>
<rect x="94.024" y="100.382" width="3.969" height="0.563"/>
<rect x="87.024" y="100.382" width="3.969" height="0.563"/>
<polyline points="118.024,100.382 121.991,100.382 121.991,100.945 118.024,100.945 "/>
<polyline points="136.86,17.382 155.464,17.382 155.464,17.945 136.86,17.945 "/>
<rect x="161.663" y="17.382" width="6.201" height="0.563"/>
<polyline points="163.86,28.382 182.464,28.382 182.464,28.945 163.86,28.945 "/>
<rect x="188.663" y="28.382" width="6.201" height="0.563"/>
<rect x="164.663" y="32.382" width="6.201" height="0.563"/>
<rect x="175.663" y="32.382" width="6.201" height="0.563"/>
<rect x="186.663" y="32.382" width="6.201" height="0.563"/>
<polyline points="15.289,38.382 29.464,38.382 29.464,38.945 15.289,38.945 "/>
<rect x="35.663" y="38.382" width="6.201" height="0.563"/>
<rect x="18.663" y="71.382" width="6.201" height="0.563"/>
<polyline points="155.866,145.383 155.866,145.945 144.528,145.945 144.528,145.383 "/>
<rect x="160.366" y="145.383" width="4.5" height="0.563"/>
<g>
	<path d="M106.541,139.082h-2.928c0.75,0.857,1.552,1.68,2.315,2.387c0.651-0.432,1.225-0.84,1.665-1.203
		C107.255,139.871,106.886,139.477,106.541,139.082z"/>
	<path d="M112.679,134.572c0.563,0.281,1.224,0.473,1.976,0.658c0.006-0.01,0.012-0.021,0.018-0.025
		c-0.776-0.303-1.567-0.594-2.37-0.84c-0.09-0.035-0.194-0.074-0.294-0.109c-0.104,0.182-0.188,0.336-0.219,0.412
		C111.979,134.291,112.208,134.289,112.679,134.572z"/>
	<path d="M102.103,136.246h2.5c-0.229-0.371-0.447-0.746-0.666-1.123C103.598,135.326,102.906,135.754,102.103,136.246z"/>
	<path d="M95.413,111.458C95.443,111.428,95.282,111.525,95.413,111.458L95.413,111.458z"/>
	<path d="M131.077,140.748c-0.66,1.791-0.942,3.486-0.094,5.277c0.471,0.85,1.227,1.604,2.357,1.697
		c0.66,0.094,1.686-0.57,2.063-1.23c-0.095,0-0.555,0.479-0.648,0.479c-0.754,0.471-1.32,0.094-1.885-0.283
		c-1.51-1.131-1.604-3.301-0.943-4.998c0.352-0.986,0.938-1.836,1.634-2.604h-1.673
		C131.579,139.609,131.303,140.162,131.077,140.748z"/>
	<path d="M127.495,139.238c-0.942,1.695-2.073,3.301-2.356,5.279c-0.188,1.131-0.188,2.445,0.095,3.582
		c0.377,1.604,1.413,2.822,2.827,3.582c0.849,0.563,1.972,1.049,3.196,0.955c-0.188-0.189-0.65-0.301-0.84-0.396
		c-1.979-0.938-3.393-2.354-3.959-4.521c-0.377-1.414-0.282-2.73,0.283-4.059c0.703-1.756,1.897-3.188,3.125-4.59h-2.283
		C127.554,139.135,127.524,139.186,127.495,139.238z"/>
	<path d="M122.345,44.201C122.44,44.201,122.345,44.106,122.345,44.201L122.345,44.201z"/>
	<path d="M119.051,46.077c0.014-0.012,0.027-0.021,0.042-0.029C119.012,46.047,119.024,46.065,119.051,46.077z"/>
	<path d="M122.028,140.654c-0.086,0.055-0.177,0.109-0.265,0.168c0.033,0.24-0.125-0.418-0.267-0.348
		c-0.377,0.096-1.019,0.256-1.489,0.531c-0.027-0.115,0.089,0.982,0.083,0.854c-0.451,0.271-0.906,0.531-1.363,0.766
		c-1.414,0.66-2.828,1.229-4.431,1.893c0.556,0.104,0.679,0.789,1.127,0.893c0.312,0.07,0.937-0.359,1.323-0.516
		c1.98-0.754,4.055-1.318,5.752-2.547c1.342-0.957,2.484-2.021,3.338-3.271h-2.19C123.192,139.688,122.659,140.232,122.028,140.654z
		"/>
	<path d="M102.806,132.984c-0.051-0.084-0.108-0.176-0.152-0.252c0.042,0.09,0.092,0.174,0.135,0.262
		C102.795,132.99,102.801,132.986,102.806,132.984z"/>
	<path d="M103.938,135.123c0.055-0.031,0.101-0.061,0.136-0.078c-0.05,0.02-0.1,0.039-0.149,0.057
		C103.929,135.107,103.934,135.115,103.938,135.123z"/>
	<path d="M101.49,136.246c-0.005-0.008,0.98,0.01,0.975,0c-0.191-0.313,6.127-3.133,6.266-3.836c0.143-0.727-5.936,0.574-6.12,0.23
		c-0.176,0.123,0.082-0.244-0.911,0.459c-1.111,0.789-3.454,2.758-3.922,3.146L101.49,136.246L101.49,136.246z"/>
	<path d="M114.655,135.232c-0.246,0.354-0.49,0.713-0.709,1.016h0.028c0.222-0.328,0.44-0.67,0.687-1.016
		C114.657,135.232,114.657,135.232,114.655,135.232z"/>
	<path d="M108.059,139.852c-0.128,0.129-0.29,0.271-0.467,0.414c0.003,0.004-0.443-0.059-0.44-0.055
		c-0.377,0.379-0.498,0.414-0.969,0.793c-0.094,0.094-0.249-0.031-0.344-0.125c-0.128-0.113,0.219,0.709,0.088,0.588
		c-2.168,1.432-5.135,3.066-6.463,3.797c0.377,0.283,0.298,0.406,0.675,0.5c0.283,0.096,1.509,0.197,1.697,0.104
		c1.414-0.851,5.845-3.279,7.164-4.316c0.951-0.727,1.859-1.563,2.703-2.469h-2.938
		C108.532,139.346,108.298,139.613,108.059,139.852z"/>
	<path d="M112.054,134.098c-0.267,0.531-0.835,1.629-1.161,2.148h3.051c0.244-0.418,2.084-2.021,1.627-2.314
		S112.282,134.182,112.054,134.098z"/>
	<path d="M118.241,140.492c0.283,0.379,0.566,0.756,0.943,0.85c-0.188-0.658-0.471-1.227-0.471-1.791
		c-0.021-0.156-0.027-0.313-0.021-0.469h-0.937C117.821,139.572,117.961,140.051,118.241,140.492z"/>
	<path d="M120.034,132.008c-0.701,0.861-1.272,1.76-1.674,2.736c0.226,0.178-0.517,0.203-0.349,0.338
		c-0.72,0.01,0.629,0.301,0.688,0.604c0.041-0.082,0.535,0.635,0.59,0.563c0.049,0.049,0.386-0.676,0.457-0.791
		c0.598-0.828,0.722-0.972,0.947-1.278c0.135-0.125,2.451-2.074,3.771-3.018c0.146-0.087,0.487-0.063,0.542-0.148
		c-0.171-0.582-0.639-1.279-0.906-1.854c-0.125-0.237-0.27-0.469-0.406-0.692c-0.273,0.304-0.513,0.593-0.74,0.813
		C121.92,130.123,120.882,131.064,120.034,132.008z"/>
	<path d="M115.885,135.686c0.238,0.08,0.65,0.313,1.079,0.563h2.325c0.074-0.36-0.637-0.717-0.355-1.397
		c-0.895-1.506-2.134-1.283-2.93-1.746c-0.204,0.392-0.76,1.265-1.333,2.104C115.081,135.363,115.495,135.521,115.885,135.686z"/>
	<path d="M116.005,133.102c-0.446-0.535-3.828-1.371-4.362-1.563c-0.188-0.063-1.987-0.65-2.489-0.814
		c-0.976,1.104-0.597,2.18,0.479,0.896l-1.805,0.52c-0.188,0.131,0.624,0.66,0.435,0.777c0.992,0.363,5.39,1.912,6.638,2.379
		C115.196,134.768,115.573,133.863,116.005,133.102z"/>
	<path d="M95.447,140.619c0,0.479-0.026,0.982-0.007,1.508c1.702,0.354,0.788,0.697,0.127,0.996
		c0.023,0.105,0.036,0.217,0.068,0.326c0.146,0.803,0.65,2.068,1.142,2.979c0.143,0.268,0.489,0.705,0.595,0.918
		c0.094,0.094,0.55,0.176,0.738,0.271c0.188-0.377,0.729-0.832,0.071-2c-0.377-0.66-0.566-1.414-0.849-2.074
		c-0.471-1.316-0.188-2.645,0.283-3.961c0.045-0.139,0.178-0.313,0.346-0.5H95.83C95.657,139.598,95.517,140.131,95.447,140.619z"/>
	<path d="M119.29,136.246"/>
	<path d="M121.448,139.738c-0.068-0.229-0.156-0.438-0.234-0.656h-1.833c0.231,0.709,0.483,1.393,0.626,1.934
		c0.081,0.313,0.07,0.586,0.083,0.855c0.573-0.348,1.134-0.703,1.673-1.049C121.71,140.42,121.506,139.916,121.448,139.738z"/>
	<path d="M119.184,136.246c-0.029-0.178-0.061-0.342-0.088-0.486c-0.074,0.15-0.132,0.313-0.162,0.486H119.184z"/>
	<path d="M113.944,136.246h-1.33"/>
	<path d="M119.214,136.422"/>
</g>
<g>
	<path d="M136.515,144.148c0.188,0.66,0.565,1.135,1.226,1.512c-0.188-0.377-0.472-0.66-0.565-0.852
		c-0.849-2.074,0.377-4.146,2.073-5.096c0.395-0.211,0.789-0.426,1.183-0.639h-2.413
		C136.606,140.465,136.021,142.092,136.515,144.148z"/>
	<path d="M131.518,139.813c-0.943,1.697-1.32,3.582-0.849,5.477c0.282,1.229,1.509,2.354,2.733,2.443
		c0.66,0.102,1.438-0.35,1.908-0.914c-0.188,0-0.398,0.16-0.494,0.16c-1.226,0.377-2.64-0.379-3.017-1.689
		c-0.754-2.17-0.095-4.063,1.319-5.658c0.164-0.188,0.336-0.355,0.506-0.541h-1.648
		C131.825,139.326,131.659,139.559,131.518,139.813z"/>
</g>
<g>
	<g>
		<path d="M146.98,129.348c-0.229-1.613-0.791-3.091-1.646-4.396h-7.25c0.707,1.336,1.021,2.762,0.693,4.396
			c-0.283,1.696-1.32,2.922-2.356,4.146c-0.818,0.902-1.63,1.813-2.403,2.752h2.564c0.072-0.068,0.146-0.135,0.216-0.205
			c1.319-1.229,2.733-2.451,3.864-3.771c0.943-1.037,1.227-2.449,1.32-3.771c0-0.942,0-1.791,0-2.828
			c0.754,0.565,1.32,1.132,1.791,1.979c0.754,1.509,1.037,3.018,0.66,4.617c-0.283,1.512-1.037,2.729-2.263,3.681
			c-0.125,0.104-0.255,0.196-0.384,0.299h3.08c0.576-0.586,1.067-1.271,1.451-2.09C147.075,132.646,147.169,130.95,146.98,129.348z"
			/>
		<g>
			<path d="M139.495,119.566c0.123,0.082,0.248,0.16,0.371,0.242"/>
			<path d="M138.741,119.084v0.48h0.754C139.245,119.404,138.993,119.243,138.741,119.084z"/>
			<path d="M137.615,118.441h0.061c-0.242-0.146-0.493-0.293-0.785-0.406l-4.148-2.168c-0.471-0.188-0.848-0.475-1.319-0.66
				c-1.414-0.564-2.828-1.229-4.337-1.791c-1.508-0.566-3.018-0.943-4.525-1.509c-1.885-0.66-3.771-1.414-5.279-2.734
				c0.094,0.472,0.283,1.132,0.377,1.697c0.188,0.377,0.472,0.659,0.66,1.037c0.754,1.603,2.074,2.546,3.489,3.394
				c1.886,1.037,3.771,2.074,5.563,3.301c0.848,0.565,1.603,1.319,2.356,2.073c0.095,0.095,0.188,0.095,0.377,0
				c-0.754-0.848-1.508-1.603-2.263-2.45l-0.301-0.301c0.564,0.188,1.525,0.488,1.998,0.771c1.509,0.755,3.111,1.51,4.525,2.449
				c1.414,0.852,2.828,1.791,3.678,3.207c0.006,0.012,0.012,0.021,0.018,0.025h7.179c-0.077-0.102-0.14-0.21-0.222-0.313
				c-1.039-1.313-2.27-2.396-3.598-3.377h-0.129v-0.101c-0.369-0.269-0.744-0.528-1.125-0.782"/>
		</g>
	</g>
	<path d="M144.938,124.382"/>
	<path d="M147.866,124.382"/>
</g>
<g>
	<path d="M81.463,121.632c1.415-0.942,3.017-1.696,4.526-2.45c0.471-0.283,1.432-0.584,1.998-0.771l-0.301,0.3
		c-0.36,0.405-0.72,0.788-1.08,1.171c1.156-0.972,4.229-2.491,5.568-3.282c1.697-0.938,7.043-3.713,8.646-4.75
		c2.702-1.726-2.023-2.662-1.979-2.707c0.068-0.035-3.197,2.192-2.904,2.027c-0.953,0.479-1.959,0.87-2.971,1.227
		c-1.509,0.563-3.017,0.94-4.525,1.515c-1.509,0.563-2.923,1.226-4.337,1.79c-0.472,0.188-0.849,0.473-1.32,0.654l-4.148,2.168
		c-0.471,0.188-0.849,0.479-1.226,0.66c-2.386,1.469-4.679,3.03-6.453,5.2h7.171C78.987,123.225,80.214,122.382,81.463,121.632z"/>
	<path d="M68.547,129.835c-0.188,1.603-0.094,3.3,0.66,4.81c0.66,1.414,1.603,2.451,2.828,3.205
		c1.414,0.854,2.829,1.604,4.243,2.355c1.697,0.941,2.922,3.018,2.074,5.092c-0.094,0.188-0.377,0.473-0.566,0.85
		c0.66-0.377,1.037-0.85,1.226-1.51c0.566-2.354-0.283-4.146-2.168-5.656c-1.131-0.848-2.357-1.604-3.488-2.545
		c-1.226-0.938-1.98-2.168-2.263-3.678c-0.377-1.603-0.094-3.111,0.66-4.619c0.471-0.849,1.037-1.414,1.791-1.979
		c0,1.035,0,1.886,0,2.826c0.094,1.318,0.377,2.729,1.32,3.771c1.131,1.32,2.545,2.548,3.865,3.771
		c1.226,1.229,2.545,2.268,3.677,3.582c1.415,1.604,2.074,3.488,1.32,5.656c-0.377,1.318-1.791,2.072-3.017,1.695
		c-0.094,0-0.305-0.158-0.494-0.158c0.471,0.563,1.248,1.008,1.908,0.912c1.226-0.096,2.451-1.227,2.734-2.449
		c0.471-1.887,0.094-3.771-0.849-5.471c-1.32-2.354-3.111-4.336-4.903-6.314c-1.037-1.227-2.074-2.445-2.357-4.146
		c-0.368-1.841,0.076-3.412,0.975-4.89h-7.188C69.483,126.373,68.805,128.018,68.547,129.835z"/>
	<path d="M89.783,126.889c-0.66,1.508-1.226,3.021-1.508,4.713c-0.283,2.17-0.094,4.244,0.849,6.229
		c1.037,2.17,3.984,4.313,5.964,5.627c0-0.104,0.22-0.211,0.48-0.328c-0.072-0.336-0.115-0.67-0.127-0.996
		c-0.111-0.021-0.219-0.047-0.353-0.065c0-0.563-1.537-1.61-2.008-1.99c-1.885-1.508-2.636-3.368-2.824-5.819
		c-0.094-2.073,0.66-3.866,1.508-5.563c0.746-1.354,1.643-2.604,2.681-3.729h-3.494C90.509,125.561,90.11,126.204,89.783,126.889z"
		/>
	<path d="M115.05,127.077c-0.472,1.226-0.754,2.452-1.131,3.678c-0.035,0.211-0.314,0.741-0.659,1.351
		c0.516,0.172,1.04,0.332,1.588,0.477c0.325,0.082,0.729,0.271,1.157,0.521c0.042-0.082,0.075-0.146,0.083-0.18
		c0.283-0.754,0.564-1.51,0.848-2.264c0.665-1.85,1.151-3.752,1.287-5.715h-2.869C115.323,125.674,115.261,126.391,115.05,127.077z"
		/>
	<path d="M97.514,125.757c0.377,1.697,0.849,3.394,1.32,4.997c0.354,1.182,0.902,2.355,1.511,3.49
		c0.047-0.031,0.085-0.061,0.099-0.064c0.223-0.182,1.819-1.188,2.196-1.471c0.004,0.008,0.01,0.018,0.014,0.021
		c-0.326-0.676-0.628-1.361-0.897-2.071c-0.768-1.845-1.278-3.747-1.393-5.714h-2.926C97.457,125.359,97.483,125.693,97.514,125.757
		z"/>
	<path d="M137.961,131.508c-0.66,1.037-1.603,1.979-2.451,2.924c-0.521,0.605-1.047,1.207-1.56,1.814h2.744
		c1.019-0.875,2.039-1.768,3.057-2.664c1.037-0.852,1.697-1.98,2.074-3.3l-3.11-3.396
		C139.091,128.492,138.903,130.094,137.961,131.508z"/>
	<path d="M123.696,128.459c0.068-0.074-0.275,1.589-0.199,1.514c0.188,0.377,0.312-0.658,0.5-0.281
		c0.119,0.361,0.063,0.563,0.063,0.875c0.064,0.27,0.807,0.129,0.684,0.33c0.189,0.646,0.342,1.287,0.49,1.938
		c0.271,1.213,0.15,2.33-0.179,3.42h2.069c0.121-0.459,0.222-0.938,0.277-1.438c0.188-1.692,0-3.303-0.472-4.813
		c-0.472-1.695-1.319-3.205-2.263-4.714c-0.078-0.119-0.17-0.229-0.252-0.34H121.1C122.026,126.034,122.936,127.189,123.696,128.459
		z"/>
	<path d="M130.889,130.754c-0.094,1.508-0.473,3.018-1.131,4.338c-0.184,0.391-0.381,0.773-0.587,1.154h2.792
		c0.297-0.492,0.576-0.998,0.813-1.533c0.471-1.037,0.754-2.168,0.941-3.395c0.189-1.51,0-2.924-0.283-4.338
		c-0.131-0.698-0.329-1.379-0.572-2.035h-3.377C130.464,126.727,131.048,128.605,130.889,130.754z"/>
	<path d="M82.241,126.605c-0.283,1.691-0.565,3.396-0.188,5.188c0.283,1.51,0.849,3.018,1.697,4.338
		c1.131,1.791,2.451,3.299,3.677,4.996c1.414,1.887,2.357,3.865,1.697,6.41c-0.472,1.604-1.38,3.119-2.7,4.063
		c-0.565,0.377-1.152,0.449-1.958,0.793c0.283,0,0.887,0.146,1.076,0.049c1.226-0.275,2.263-0.85,3.206-1.689
		c1.226-1.131,1.886-2.545,1.886-4.242c0-0.854,0-1.791-0.188-2.642c-0.188-0.761-0.66-1.515-1.037-2.269
		c-0.754-1.414-1.603-2.729-2.357-4.146c-0.566-1.134-1.226-2.168-1.603-3.302c-0.471-1.036-0.754-2.264-0.848-3.396
		c-0.095-0.941,0-1.886,0.188-2.829c0.271-0.991,0.715-1.985,1.166-2.979h-3.203C82.538,125.482,82.355,126.032,82.241,126.605z"/>
	<path d="M109.489,128.492c-0.482,0.707-0.93,1.224-1.436,1.669c-0.387-0.249-0.78-0.49-0.828-0.538
		c-1.175-1.41-1.886-2.952-2.042-4.678h-3.107c0.171,1.392,0.626,2.716,1.471,3.924c0.343,0.679,1.663,1.951,2.502,2.604
		c-0.647,0.338-1.404,0.695-2.363,1.146c-0.382,0.16-0.659,0.273-0.88,0.365c0.391,0.645,0.953,1.473,1.284,2.051
		c-0.004,0.002-0.012,0.008-0.016,0.012c0.718-0.271,1.497-0.785,1.831-0.896c0.83-0.379,1.599-0.76,2.355-1.229
		c0.041,0.018,0.077,0.027,0.001-0.002c0.754-0.656,1.293-0.309,2.047-0.775c0.063-0.027-0.308-1.207-0.06-1.125
		c0.957-1.084,2.16-2.475,2.16-2.521c0.596-0.832,0.946-2.188,1.131-3.3c0.013-0.083,0.01-0.163,0.02-0.246h-2.943
		C110.61,126.252,110.235,127.464,109.489,128.492z"/>
</g>
<g>
	<rect x="109.741" y="97.441" width="1.125" height="1.125"/>
	<rect x="110.866" y="96.316" width="1.125" height="1.125"/>
</g>
<g>
	<path d="M51.881,77.382h2.577c-0.104-0.028-0.208-0.059-0.312-0.084C53.336,77.146,52.581,77.165,51.881,77.382z"/>
	<path d="M50.186,78.43c-1.131,1.131-1.8,2.985-2.083,4.587l-0.279,2.106c0.188-0.188,1.035-0.789,1.224-0.883
		c1.131-0.283,1.704-0.537,2.741-0.82c0.66-0.188,1.414-0.188,1.98-0.563c1.32-0.752,2.168-1.883,2.357-3.583
		c-0.188,0-0.472,0-0.66,0c-1.603,0.377-3.017,1.131-4.337,2.072c0.189-1.037,0.849-1.791,1.603-2.355
		c0.598-0.448,1.313-0.725,2.006-1.051h-3.974C50.568,78.087,50.373,78.243,50.186,78.43z"/>
	<path d="M77.339,79.372c-0.438-0.461-0.777-0.942-1.032-1.427h-1.345c0.12,0.164,0.25,0.324,0.396,0.481
		C76.018,79.089,76.678,79.466,77.339,79.372z"/>
	<path d="M79.271,77.945h-1.316c0.334,0.338,0.72,0.634,1.175,0.859C79.13,78.498,79.196,78.202,79.271,77.945z"/>
	<path d="M76.207,73.999c0.283,0.849,0.471,1.885,0.849,2.731c0.125,0.228,0.266,0.442,0.419,0.65h1.919
		c0.242-1.377-0.062-2.734-0.924-3.855c-0.943-1.131-2.074-2.168-3.111-3.3c0,0.188,0,0.377-0.094,0.566
		c-0.283,0.943-0.66,1.979-0.943,3.018c-0.353,1.271-0.283,2.487,0.289,3.572h1.445C75.591,76.171,75.661,74.967,76.207,73.999z"/>
	<path d="M44.434,81.164c0.189-0.283,0.477-0.834,0.571-1.023c0.393-1.021,0.853-1.596,1.595-2.192h-0.93
		C45.047,78.854,44.629,79.91,44.434,81.164z"/>
	<path d="M76.433,77.382h0.538c-0.305-0.465-0.563-0.989-0.764-1.593C76.179,76.376,76.269,76.896,76.433,77.382z"/>
</g>
<g>
	<rect x="82.741" y="58.442" width="1.125" height="1.125"/>
	<rect x="83.866" y="57.317" width="1.125" height="1.125"/>
</g>
<g>
	<path d="M148.741,35.565"/>
	<path d="M150.991,33.317"/>
</g>
<path d="M195.464,88.081"/>
<path d="M93.421,85.246"/>
<g>
	<path d="M172.749,92.854c-0.282,1.037-0.471,1.979-0.564,3.021c-0.095,0.852,0.094,1.791,0.188,2.73
		c0.283,1.693,1.037,3.205,1.98,4.619c0,0.096,0.188,0.096,0.188,0.096c0.283-0.563,0.565-1.133,0.755-1.694
		c0.094-0.282,0.094-0.563,0-0.853c-0.565-1.131-0.849-2.447-0.942-3.771c0-1.604,0.188-3.109,0.754-4.62
		c0.44-1.101,0.881-2.198,1.321-3.302h-2.374C173.633,90.338,173.146,91.596,172.749,92.854z"/>
	<path d="M180.009,92.759c-0.283,0.755-0.377,1.509-0.66,2.263c-0.377,0.854-0.849,1.793-1.319,2.646
		c-0.754,1.509-1.697,3.021-2.357,4.521c-0.566,1.133-1.131,2.451-1.227,3.683c-0.188,2.446-0.283,4.996,0.942,7.354
		c1.037,1.979,2.452,3.203,4.526,3.484c-0.566-0.477-1.416-0.854-1.98-1.509c-1.227-1.319-1.886-2.828-1.98-4.619
		c-0.094-1.509,0.095-3.021,0.565-4.438c0.377-0.938,0.472-1.979,0.943-2.826c1.226-2.17,2.64-4.237,3.96-6.313
		c0.094,0,0.188,0,0.283,0c0.188,1.229,1.414,3.582,2.074,3.68c-0.377-0.938-0.66-1.889-1.037-2.828
		c-0.472-1.131-0.565-2.354-0.188-3.396c0.597-1.792,0.578-3.584,0.638-5.376h-2.966C180.321,90.291,180.435,91.564,180.009,92.759z
		"/>
	<path d="M186.702,89.555c-0.043-0.16-0.088-0.313-0.133-0.475h-0.115C186.534,89.241,186.629,89.391,186.702,89.555z"/>
	<path d="M182.554,84.275c-0.094-0.281-0.094-0.479-0.188-0.756c0.86,0.855,1.651,1.771,2.36,2.729h0.841
		c-0.391-0.859-0.869-1.684-1.504-2.443c1.32,0.283,3.206,0.189,3.301-0.094c-0.754-0.094-1.509-0.283-2.264-0.471
		c-1.886-0.473-3.206-1.604-4.337-3.111c-0.565-0.754-1.037-1.508-1.508-2.263c-0.188,1.508-0.283,2.923-0.472,4.337
		c-0.094,1.131,0.66,2.074,0.849,3.109c0.026,0.313,0.075,0.623,0.132,0.937h3.301C182.946,85.588,182.774,84.932,182.554,84.275z"
		/>
	<path d="M140.727,91.468c-0.283,0.849-1.415,2.074-2.074,2.263c0.188-0.563,0.471-1.131,0.66-1.689
		c0.358-0.98,0.283-1.977-0.048-2.953h-2.544c-0.564,0.48-1.027,1.045-1.18,1.729c-0.188,0.939,0.095,1.791,0.473,2.645
		c0.564,1.414,1.227,2.73,0.754,4.337c1.51,0,4.243-2.168,5.092-4.146c0.678-1.813,0.322-3.373-0.52-4.559h-0.417
		C141.099,89.904,140.94,90.686,140.727,91.468z"/>
	<path d="M146.655,94.613c-0.824-2.021-1.479-4.117-3.162-5.532h-0.203c-0.139,0.241-0.23,0.481-0.312,0.724
		c-0.659,1.604-0.849,2.734,0.472,4.243c0.66,0.754,1.319,1.319,1.886,2.073c0.471,0.564,0.667,1.092,1.063,1.855
		c0.094,0,0.188,0.984,0.4,0.178c0.812-1.342,1.931-2.223,2.308-3.637c0.377-1.514,0.283-3.021-0.66-4.338
		c-0.3-0.451-0.633-0.812-0.998-1.104h-2.078C146.47,90.768,146.887,92.593,146.655,94.613z"/>
	<path d="M187.551,91.439c-0.094,0-0.094,0-0.094,0.188c-0.506-0.859-0.986-1.695-1.469-2.548h-1.93
		c-0.043,0.358-0.059,0.729,0.003,1.134c0.188,1.414,0.849,2.545,1.979,3.488c0.566,0.471,1.227,0.849,1.793,1.316
		c0.377,0.278,0.754,0.656,1.131,1.037c0.283-0.759,0.471-1.414,0.66-2.074c0.283-1.035,0.472-2.168,0.377-3.301
		c-0.059-0.529-0.133-1.096-0.307-1.604h-2.621C187.265,89.852,187.409,90.633,187.551,91.439z"/>
	<path d="M155.024,84.934c-0.15,0.455-0.299,0.883-0.436,1.313h1.926C156.143,85.739,155.672,85.29,155.024,84.934z"/>
	<path d="M157.913,86.246h0.873c-0.405-0.485-0.905-0.896-1.5-1.217C157.552,85.426,157.758,85.832,157.913,86.246z"/>
	<path d="M157.853,89.648c-0.048-0.188-0.096-0.379-0.146-0.565h-3.492c0.057,0.354,0.152,0.706,0.337,1.039
		c0.377,0.849,1.037,1.414,1.696,2.073c0.66,0.658,1.132,1.318,0.943,2.354c0.188-0.094,0.283-0.094,0.377-0.188
		c0.942-1.036,1.697-2.072,2.074-3.396c0.184-0.604,0.271-1.253,0.248-1.888h-1.854C157.987,89.268,157.928,89.457,157.853,89.648z"
		/>
	<path d="M139.94,90.874c-0.094,0.563-0.283,1.226-0.377,1.886c0.967-1.209,1.27-2.42,1.042-3.679h-0.842
		C139.937,89.617,140.006,90.209,139.94,90.874z"/>
	<path d="M146.351,93.043c0.099-1.275-0.522-2.756-1.403-3.962h-1.184C144.884,90.12,145.72,91.441,146.351,93.043z"/>
	<path d="M162.567,97.473c2.989-2.146,2.924-5.129,2.372-8.393h-2.221C164.126,91.73,164.182,94.566,162.567,97.473z"/>
	<path d="M169.544,96.814c0.472,3.104,0.094,6.224-1.508,9.146c1.131-0.66,1.791-1.604,2.263-2.545
		c0.754-1.509,1.131-3.11,1.131-4.812c0-1.035-0.094-2.071-0.188-3.108c-0.094-1.697-0.754-3.3-1.603-4.812
		c-0.292-0.563-0.618-1.097-0.969-1.604h-3.634C167.692,91.141,169.079,93.748,169.544,96.814z"/>
	<path d="M160.399,72.771c0.188-0.28,0.377-0.563,0.471-0.848c0.188-0.283,0.377-0.566,0.565-0.943
		c0.144-0.394,0.298-0.802,0.447-1.213l-1.663,2.682c-0.003,0.106-0.004,0.215-0.01,0.321
		C160.304,72.771,160.304,72.771,160.399,72.771z"/>
	<path d="M162.448,86.676c0.043,0.147,0.086,0.303,0.039,0.109C162.471,86.747,162.462,86.713,162.448,86.676z"/>
	<path d="M164.938,89.081h0.096c-0.039-0.03-0.07-0.063-0.109-0.092C164.929,89.02,164.933,89.05,164.938,89.081z"/>
</g>
<g>
	<path d="M65.741,42.131c0,0.094-0.094,0.094-0.094,0.094c0.465,1.021,0.929,2.045,1.394,3.157h1.535
		C67.642,44.298,66.658,43.214,65.741,42.131z"/>
	<path d="M62.159,42.225c2.263-2.451,4.714-4.523,7.637-6.128c1.508-0.754,3.017-1.415,4.62-1.979
		c1.226-0.473,2.546-0.754,3.771-1.228c0.848-0.377,1.603-0.849,2.357-1.318c1.131-0.66,1.791-1.792,2.357-2.925
		c0.283-0.754,0.66-1.508,0.565-2.449c-0.471,0.563-0.943,1.131-1.226,1.695c-1.037,1.98-2.828,2.923-4.808,3.489
		c-1.414,0.471-2.829,0.66-4.243,1.037c-0.471,0.095-0.943,0.188-1.508,0.377c0.754-1.226,1.508-2.263,1.603-3.677
		c-1.037,1.603-1.98,3.109-3.394,4.146l-1.697,1.037c-3.017,1.32-5.657,3.206-8.014,5.468c0.377-1.792,0.848-3.486,1.226-5.278
		c-1.037,2.64-1.886,5.374-3.583,7.823c-1.226-3.583-1.32-3.771-2.357-4.523c0.188,0.564,0.472,1.131,0.66,1.603
		c0.66,1.51,0.849,3.206,0.471,4.81c-0.118,0.414-0.385,0.791-0.66,1.177h3.818C60.549,44.353,61.248,43.219,62.159,42.225z"/>
	<path d="M55.465,46.091c-0.377,0.565-0.66,1.226-1.131,1.885c0.754-0.281,1.226-0.563,1.792-0.754
		c0.754-0.283,1.603-0.564,2.451-0.849c0.233-0.078,0.525-0.223,0.728-0.43H55.56C55.529,45.994,55.494,46.042,55.465,46.091z"/>
	<path d="M79.035,44.017c1.32-0.188,2.734-0.188,4.148-0.094c1.226,0.094,2.357,0.471,3.488,0.849
		c0.377,0.096,0.566,0.096,0.754-0.188c0.754-0.848,1.414-1.697,2.168-2.734c-0.283,0-0.377-0.094-0.566,0
		c-0.283,0-0.66,0-0.943-0.094c-1.697-0.66-3.488-0.754-5.279-0.754c-1.415,0-2.829,0.094-4.243,0.377
		c-1.32,0.283-2.734,0.66-3.96,1.226c-1.559,0.701-2.981,1.669-4.282,2.779h4.317C76.028,44.732,77.498,44.292,79.035,44.017z"/>
	<path d="M102.228,49.203c0.094,0,0.283,0,0.377-0.097c0.095-0.094,0.283-0.281,0.377-0.471c0.891-0.979,1.83-1.871,2.825-2.691
		h-4.772c-0.444,0.397-0.89,0.799-1.353,1.185C100.531,47.882,101.38,48.636,102.228,49.203z"/>
	<path d="M109.393,43.452c1.32-0.66,2.546-1.32,3.866-1.979c1.226-0.564,2.545-1.037,3.771-1.603
		c0.473-0.188-0.188,0.094,0.473-0.188c-1.037-0.66-2-1.51-2.85-2.075l-0.732,0.378c-1.792,0.851-3.583,1.604-5.28,2.548
		c-1.98,1.131-3.866,2.449-5.657,3.771c-0.448,0.336-0.88,0.705-1.31,1.083h4.858C107.432,44.69,108.374,44.04,109.393,43.452z"/>
	<path d="M137.017,41.094c-3.487-0.471-6.978-0.188-10.276,0.943c0.754,0.941,1.32,1.792,1.887,2.451
		c0.188,0.281,0.283,0.564,0.754,0.377c1.32-0.566,2.734-0.943,4.148-0.943c1.508,0,3.017,0,4.431,0.377
		c1.125,0.3,2.133,0.663,3.163,1.083h4.765C143.307,43.077,140.297,41.641,137.017,41.094z"/>
	<path d="M144.372,46.185c0.168-0.102,0.369-0.175,0.578-0.239h-2.521C143.021,46.237,143.639,46.551,144.372,46.185z"/>
	<path d="M42.266,47.128c0.566,2.074,2.074,3.111,4.054,3.205c0.849,0,1.603-0.188,2.451-0.283c0.094,0,0.094-0.094,0.094-0.188
		c-1.791-0.66-3.205-1.792-4.242-3.302c1.508,0.754,3.017,1.697,4.997,1.98c-0.344-0.946-0.541-1.811-0.929-2.598h-6.688
		C42.071,46.337,42.153,46.731,42.266,47.128z"/>
	<path d="M45.378,43.734c-1.226-0.094-2.357-0.281-3.583-0.377c0,0.627,0.036,1.314,0.125,2.025h6.455
		C47.698,44.387,46.655,43.905,45.378,43.734z"/>
	<path d="M166.055,47.317c1.575-0.204,2.951-0.715,4.309-1.371h-3.888C166.294,46.369,166.141,46.819,166.055,47.317z"/>
	<path d="M166.528,48.826c0.564,0.188,1.036,0.377,1.508,0.564c1.414,0.377,2.733,0.094,3.865-0.754
		c0.941-0.685,1.48-1.612,1.786-2.69h-2.442C169.964,47.381,168.452,48.344,166.528,48.826z"/>
	<path d="M171.901,45.148c-0.062,0.082-0.127,0.155-0.188,0.234h2.141c0.228-0.77,0.327-1.547,0.499-2.402
		c-0.754,0.377-1.509,0.377-3.017,0.188c-2.077-0.208-3.69,0.659-4.591,2.214h4.709C171.603,45.302,171.751,45.231,171.901,45.148z"
		/>
	<path d="M114.108,49.485c0.754-0.754,1.603-1.413,2.356-2.168c0.094,0,0-0.377-0.095-0.472c-0.371-0.292-0.746-0.599-1.119-0.899
		h-4.831C111.741,47.012,112.995,48.176,114.108,49.485z"/>
	<path d="M112.317,43.64c-0.378-0.283-0.755-0.754-1.32-0.472c-0.85,0.472-1.508,0.943-2.357,1.414
		c0.361,0.258,0.714,0.529,1.066,0.8h4.847C113.825,44.794,113.085,44.204,112.317,43.64z"/>
	<path d="M149.922,42.552c0.094,0.094,0.188,0.094,0.188,0.188c0.073,0.967-0.207,1.814-0.559,2.642h1.314
		c0.353-0.339,0.627-0.771,0.752-1.228c0.377-1.32-0.66-3.771-1.697-4.242c-0.66,0.848-1.415,1.695-2.074,2.64
		c-0.436,0.438-0.465,2.063-0.171,2.83h0.211C148.585,44.42,149.214,43.525,149.922,42.552z"/>
	<path d="M149.261,46.041c0.242,0.021,0.483-0.019,0.716-0.097h-0.674C149.288,45.976,149.276,46.008,149.261,46.041z"/>
	<path d="M83.991,52.442v1.125"/>
	<path d="M82.866,54l-0.947-1.826c-0.2-0.171-0.579-0.684-0.78-0.857l0,0l-0.523-0.428c-0.622-0.506-1.26-0.994-1.958-1.404
		c-1.792-1.035-3.677-1.695-5.563-2.546c-0.094-0.094-0.188-0.094-0.283,0c-1.131,0.851-2.168,1.604-2.923,2.734
		c0.283,0.094,0.566,0.188,0.849,0.283c1.131,0.564,2.357,1.131,3.488,1.697c1.886,1.035,3.583,2.545,4.808,4.336
		c0.754,1.131,1.415,2.263,1.98,3.394c0.66,1.32,1.131,2.829,1.697,4.243c0.283,0.754,0.377,1.509,0.565,2.263
		c-0.849-0.094-1.791-0.188-2.734-0.283c-0.943,0-1.886-0.094-2.829,0.283c-0.754,0.377-1.603,0.66-2.168,1.509
		c0.472-0.188,1.037-0.472,1.509-0.564c1.131-0.283,2.168-0.377,3.3-0.188c1.979,0.283,3.488,1.133,4.62,2.642
		c0.754,1.131,1.414,2.354,2.168,3.485c0.565,0.852,1.037,1.697,1.603,2.549c0.521,0.742,0.565,1.369,0.194,2.063h7.47
		c-0.274-0.354-0.537-0.724-0.782-1.121c-1.226-1.979-1.886-4.055-1.037-6.315c0.566-1.414,1.32-2.642,1.98-3.962
		c0.188-0.471,0.566-0.94,0.849-1.412c-0.094,0-0.094-0.096-0.188-0.096c-1.603,1.414-2.829,3.206-3.677,5.28
		c0-0.188-0.094-0.283-0.094-0.377c0.094-1.697,0-3.395,0.283-5.091c0.283-1.98,0.849-3.771,1.697-5.563
		c0.943-1.792,1.886-3.486,3.206-4.997c0.094-0.188,0.094-0.563,0-0.66c-0.66-0.754-1.414-1.509-2.074-2.168
		c-0.188-0.188-0.471-0.188-0.66,0.096c-1.037,1.603-2.168,3.109-3.205,4.62c-0.189-1.228-0.377-2.545-1.32-3.583
		c0.094,0.941,0.377,1.886,0.377,2.826c0.094,1.037,0.094,2.168-0.094,3.206c-0.283,1.415-0.943,2.734-1.32,4.148
		c-0.283,1.414-0.471,2.829-0.66,4.243c-0.094,0.094-0.094,0.283-0.188,0.377c-0.094,0-0.094,0-0.188,0
		c-1.84-4.233-2.682-8.737-2.108-13.421c0.784-2.438,2.443-4.592,3.711-6.755c0.144-0.246,0.315-0.475,0.468-0.712h-4.343
		c-0.323,0.51-0.634,1.029-0.935,1.557c-0.709,1.24-1.253,2.561-1.864,3.812"/>
	<path d="M83.991,53.567h-1.125"/>
	<path d="M97.137,39.397c-1.037-0.377-1.98-0.754-2.923-1.035c-0.188-0.096-0.377,0-0.471,0.094
		c-1.226,1.131-2.546,2.263-3.677,3.486c-1.017,1.077-1.873,2.235-2.658,3.439h4.344C93.244,43.185,95.079,41.217,97.137,39.397z"/>
	<path d="M149.745,43.452c-0.377,0.281-0.565,0.66-0.849,1.037c-0.231,0.31-0.458,0.608-0.694,0.894h1.016
		C149.501,44.753,149.685,44.103,149.745,43.452z"/>
	<path d="M127.589,44.583c-1.697-2.168-3.583-4.148-5.657-5.939c-1.32-1.131-2.641-2.168-4.243-2.829
		c-1.226-0.471-2.356-0.94-3.583-1.318c-0.283-0.096-0.66-0.096-1.037,0c-1.131,0.283-2.356,0.66-3.394,0.941
		c1.131,0.283,2.45,0.66,3.771,1.132c2.357,0.755,4.338,2.073,6.129,3.771c1.619,1.547,3.293,3.155,4.625,5.042h3.979
		C127.983,45.116,127.794,44.845,127.589,44.583z"/>
	<path d="M93.838,44.017c-0.283-0.188-0.377-0.188-0.566,0.096c-0.342,0.427-0.66,0.853-0.972,1.271h3.566
		C95.179,44.937,94.494,44.492,93.838,44.017z"/>
	<path d="M122.345,44.201c-0.289,0.173-1.265,0.719-2.086,1.182h2.989C122.954,44.987,122.657,44.589,122.345,44.201z"/>
	<path d="M147.201,33.743c-1.604-1.133-2.734-2.734-3.771-4.433c0.094,1.508,0.943,2.642,1.697,3.865
		c-0.66-0.188-1.131-0.377-1.604-0.471c-1.32-0.377-2.64-0.66-3.96-1.037c-0.942-0.283-1.791-0.66-2.64-1.037
		c-1.508-0.754-2.357-2.074-3.206-3.488c-0.188-0.283-0.472-0.564-0.66-0.849c0.095,0.754,0.283,1.508,0.565,2.263
		c0.472,1.414,1.414,2.545,2.733,3.488c1.603,1.131,3.488,1.697,5.279,2.168c1.792,0.472,3.394,1.131,4.997,1.979
		c2.263,1.228,4.337,2.828,6.128,4.62c0.942,0.851,1.886,1.792,2.64,2.734c0.492,0.591,0.956,1.208,1.396,1.837h3.738
		c-0.104-0.175-0.213-0.355-0.321-0.518c-0.188-0.188-0.188-0.188-0.378-0.566c-0.34-0.704-0.188-1.414-0.094-2.168
		c0.188-1.32,0.472-2.64,1.319-3.771c0.095-0.094,0.095-0.377,0.095-0.658c-1.416,1.415-1.98,3.017-2.451,4.809
		c-1.51-2.452-2.547-5.091-3.489-7.729c0,1.885,0.565,3.583,1.036,5.277c-0.471-0.471-0.942-0.848-1.413-1.318"/>
	<path d="M154.149,38.267"/>
</g>
<g>
	<path d="M178.124,59.479c0.849-0.094,1.697,0.096,2.64,0.188c-0.024-0.243-0.054-0.483-0.088-0.722h-5.261
		C176.211,59.334,177.114,59.523,178.124,59.479z"/>
	<path d="M178.784,54.67c-0.942-1.131-2.168-1.885-3.771-1.791c-0.564,0.094-1.131,0.283-1.791,0.471
		c1.697,1.131,3.205,2.451,4.242,4.148c-1.697-0.943-3.301-2.168-5.279-3.019c0.377,0.851,0.471,1.697,0.941,2.357
		c0.394,0.622,0.859,1.134,1.384,1.543h6.069C180.309,56.981,179.798,55.686,178.784,54.67z"/>
	<path d="M140.317,58.093c0.454,0.038,0.834,0.148,1.186,0.289h2.408c-0.517-1.194-1.67-1.816-2.746-2.175
		c-0.754-0.283-1.696-0.094-2.639-0.188c-0.473,0-0.66,0.188-0.566,0.566c0.104,0.581,0.186,1.19,0.299,1.797h2.29
		C140.47,58.286,140.396,58.19,140.317,58.093z"/>
	<path d="M142.862,59.224c0.66,0.566,1.227,1.32,1.887,1.98c0.035,0,0.068,0,0.094,0c-0.241-0.802-0.419-1.535-0.698-2.259h-1.641
		C142.626,59.037,142.749,59.127,142.862,59.224z"/>
	<path d="M138.62,59.791c0.754,1.885,2.641,3.109,4.809,2.922c-0.611-1.374-1.473-2.564-2.428-3.767h-2.627
		C138.442,59.231,138.519,59.514,138.62,59.791z"/>
	<path d="M152.762,65.758c0.283-0.848,0.473-1.603,0.66-2.357c0.331-1.521,0.238-2.993-0.037-4.454h-1.355
		C152.659,61.056,152.92,63.321,152.762,65.758z"/>
	<path d="M152.95,57.086c-0.564-1.98-1.508-3.771-2.545-5.468c-0.188-0.283-0.564-0.566-0.849-0.754
		c-0.849-0.473-1.603,0.094-2.451,0.188c2.263,2.16,3.828,4.611,4.744,7.332h1.421C153.175,57.95,153.069,57.517,152.95,57.086z"/>
	<path d="M171.713,61.93c0.942,1.697,1.792,3.396,2.263,5.28c0.283,1.32,0.66,2.734,0.943,4.054
		c0.188,0.566,0.094,1.037,0.188,1.604c0.188,1.508,0.566,3.017,0.566,4.522c0.094,1.791-0.188,3.488-0.188,5.188
		c-0.07,1.262-0.299,2.472-0.604,3.668h2.656c0.217-0.61,0.399-1.232,0.492-1.877c0.377-1.98,0.471-3.865,0.565-5.848
		c0.094-1.791,0-3.582-0.095-5.373c0-1.035-0.188-2.072-0.377-3.018c-0.282-1.226-0.659-2.545-1.036-3.771
		c-0.095-0.283-0.095-0.566-0.188-0.851c2.074,1.792,3.488,4.054,4.902,6.411c-0.471-2.263-1.604-4.148-2.922-5.94
		c1.414,0,2.828-0.094,4.242-0.188c-1.32-0.377-2.641-0.565-3.959-0.848c-1.793-0.474-3.111-1.415-3.866-3.111
		c-0.443-0.998-0.978-1.956-1.554-2.89h-4.105C170.403,59.893,171.09,60.894,171.713,61.93z"/>
	<path d="M170.675,54.859c-0.66-0.658-1.226-1.318-1.886-1.979c2.641,0.66,5.092,1.886,7.354,3.394
		c-1.226-1.508-2.733-2.545-4.62-3.583c-1.508-0.754-3.017-1.226-4.619-1.603c-0.377-0.094-0.66-0.188-0.943-0.377
		c-0.85-0.566-1.792-1.131-2.641-1.697c0.188,0.566,0.471,1.037,0.66,1.604c0.473,1.131,0.754,2.263,1.227,3.394
		c0.283,0.565,0.283,1.131,0.849,1.508s1.037,0.754,1.509,1.228c0.576,0.513,1.096,1.065,1.594,1.638h4.238
		C172.586,57.139,171.673,55.958,170.675,54.859z"/>
	<path d="M159.362,57.97c-0.565-0.283-1.227-0.283-1.886-0.471c0,0.094,0,0.094,0,0.188c0.095,0.096,0.283,0.188,0.472,0.283
		c0.231,0.136,0.463,0.273,0.692,0.412h1.665C159.999,58.235,159.683,58.098,159.362,57.97z"/>
	<path d="M161.222,58.946h-1.718c0.554,0.393,1.061,0.833,1.46,1.381c0.659,0.849,1.037,1.886,1.319,3.017
		c0.377,1.508,0.472,2.923,0.188,4.431c-0.117,0.645-0.345,1.322-0.59,1.992l2.758-4.441c-0.377-1.037-0.965-2.682-1.53-3.623
		c-0.058-0.098-0.104-0.235-0.146-0.394c-0.358-0.592-0.752-1.166-1.152-1.735C161.647,59.326,161.444,59.126,161.222,58.946z"/>
	<path d="M150.028,82.671c0.565-0.377,1.131-0.754,1.697-1.131c0.189-0.095,0.473-0.188,0.754-0.188c0.034,0,0.07,0,0.104,0
		c-0.024-0.076-0.057-0.117-0.104-0.095c0-0.094,0-0.282,0-0.282c0.85-0.66,1.792-1.318,2.641-2.074
		c0.849-0.658,1.603-1.412,2.356-2.168c0.095-0.094,0.095-0.281,0.095-0.377c0.094,0,0.188-0.095,0.282-0.095l2.841-1.028
		c0.058-1.768-0.633-6.238-1.521-7.928c0.188,0.942,0.282,1.885,0.377,2.734c0.091,1.361-0.168,2.639-0.608,3.912
		c-0.018,0.047-0.033,0.095-0.051,0.142c-0.283,0.565-0.566,1.227-1.037,1.697c-0.849,0.941-1.886,1.792-2.923,2.641
		c-0.263,0.206-0.534,0.405-0.812,0.596c-1.114,0.767-2.336,1.386-3.621,1.764c-1.508,0.471-3.016,0.754-4.524,1.037
		c-0.282,0.095-0.659,0-1.037,0c0-0.096-0.094-0.096-0.094-0.188c1.319-1.697,1.792-3.865,3.11-5.563
		c1.037-1.32,2.451-2.265,4.148-3.019c-1.792-0.095-3.111,0.754-4.242,1.696c0-1.414,0.094-2.828,0-4.243
		c-0.095-1.037-0.377-1.979-0.566-3.017c-0.094-0.66-0.471-1.32-0.565-2.074c-0.188-1.32,0.095-2.64,0.472-3.866
		c0.094-0.283,0.188-0.66,0.283-1.037c0,0-0.095-0.095-0.189-0.095c-0.377,0.849-0.848,1.792-1.227,2.64
		c0,0.096-0.094,0.188-0.188,0.283c0,0-0.094-0.094-0.188-0.188c-0.188-0.283-0.283-0.566-0.472-0.851
		c-0.849-1.226-1.792-2.355-3.11-3.206c-0.13-0.063-0.265-0.088-0.455-0.154h-0.184c0.189,0.211,0.275,0.357,0.354,0.438
		c1.414,1.604,2.357,3.395,3.018,5.374c0.473,1.697,0.943,3.3,1.037,5.091c0.094,2.167-0.094,4.337-1.037,6.411
		c-1.037,2.168-2.734,3.396-4.809,4.242c-0.75,0.265-1.504,0.507-2.265,0.74c0.521-0.482,0.999-1.077,1.417-1.494
		c0.85-0.851,1.414-2.452,1.227-3.396c-0.188,0.473-0.377,1.037-0.66,1.51c-1.131,2.072-4.715,3.771-7.166,3.017
		c-1.414-0.472-2.734-0.66-3.959-1.509c-1.604-1.131-1.697-2.074-0.85-3.583c0.66-1.132,1.414-2.168,2.074-3.3
		c0.564-0.943,1.131-1.887,1.791-2.734c0.85-1.228,2.074-1.98,3.488-2.263c1.037-0.283,2.168-0.66,3.395-0.188
		c0.754,0.283,1.604,0.471,2.357,0.66c-0.094-0.283-0.377-0.471-0.66-0.66c-1.792-1.131-3.865-1.226-5.939-0.849
		c-0.377,0.094-0.754,0.094-1.226,0.188c0.188-0.564,0.188-0.941,0.377-1.414c0.472-1.415,0.943-2.829,1.509-4.243
		c0.565-1.226,1.319-2.355,1.979-3.583c0.103-0.153,0.226-0.872,0.331-1.553c0.094-0.179,0.197-0.354,0.328-0.521
		c0.943-1.133,1.886-2.357,3.018-3.396c0.943-0.849,2.074-1.508,3.206-2.074c1.509-0.658,3.017-1.226,4.62-1.695
		c1.32-0.377,2.829-0.473,4.243-0.66c0.942-0.188,1.979-0.094,2.923-0.188c0.188,0,0.471-0.094,0.66-0.094
		c-0.565-0.188-1.131-0.472-1.697-0.472c-1.792-0.188-3.488-0.188-5.279-0.283c-0.188,0-0.378,0-0.66,0
		c0.119-0.171,0.219-0.348,0.319-0.524h-1.247c-0.505,0.493-1.094,0.89-1.9,1.091c-2.074,0.563-4.055,1.318-5.939,2.168
		c-1.697,0.658-3.206,1.603-4.525,2.732c-0.849,0.66-1.603,1.32-2.451,2.074c-0.188-0.189-0.283-0.377-0.377-0.66
		c-0.283-0.66-0.471-1.414-0.85-2.168c-0.813-1.848-1.861-3.577-3.047-5.238h-4.013c0.229,0.354,0.448,0.715,0.649,1.09
		c0.848,1.415,1.696,2.828,2.356,4.338c0.754,1.695,1.131,3.583,1.319,5.563c0.188,2.168-0.094,4.337-0.66,6.505
		c-0.377,1.32-0.942,2.545-1.413,3.771c0,0.095-0.188,0.188-0.188,0.188c-0.283-1.415-0.472-2.829-0.754-4.146
		c-0.283-1.131-0.471-2.265-0.943-3.3c-0.942-1.888-0.754-3.771-0.564-5.753c0-0.472,0.188-0.941,0.283-1.603
		c-1.131,1.037-1.131,2.263-1.414,3.583c-0.188-0.377-0.377-0.566-0.473-0.754c-0.848-1.32-1.791-2.64-2.64-3.96
		c-0.188-0.283-0.471-0.377-0.659-0.094c-0.565,0.658-1.227,1.226-1.791,1.886c-0.566,0.66-0.566,0.66,0,1.32l0.094,0.094
		c2.168,2.923,3.582,6.128,4.336,9.711c0,0.377,0.095,0.754,0.095,1.131c-1.979-3.017-3.677-3.866-4.431-4.148
		c0.754,0.851,1.791,1.888,2.64,3.111c0.754,1.037,1.226,2.263,1.696,3.396c0.283,0.564,0.472,1.318,0.377,1.979
		c-0.094,1.037-0.377,2.074-0.659,3.111c-0.754,2.354-1.792,4.522-3.866,6.128c-1.037,0.754-2.168,1.32-3.488,1.32
		c-0.471,0-1.226-0.66-1.131-1.133c0.188-0.849,0.471-1.791,0.85-2.545c0.377-0.85,1.037-1.509,1.603-2.264
		c-1.414,0.564-2.263,1.697-3.11,2.828c-0.472-3.583,0.754-6.601,3.017-9.239c-2.074,1.414-3.206,3.3-3.865,5.847
		c-0.094-0.281-0.188-0.377-0.188-0.564c0-0.66-0.094-1.229-0.094-1.886c0.094-1.133,0.188-2.357,0.282-3.488
		c0.095-1.32,0.188-2.642,0.377-3.865c0.283-1.415,0.66-2.829,1.037-4.243s1.037-2.732,1.792-3.864
		c0.564-0.85,1.227-1.696,1.885-2.451c1.32-1.509,2.641-3.019,4.338-4.148c1.131-0.754,1.967-1.477,3.191-2.325
		c-0.258-0.369-0.529-0.746-0.803-1.122h-4.428c-0.047,0.034-0.096,0.068-0.143,0.104c0.001,0,0,0,0.001,0
		c-0.009,0.008-0.026,0.022-0.038,0.034c-0.003-0.001-0.002-0.002-0.005-0.004c-1.333,0.969-2.656,1.868-3.812,2.937
		c-2.168,2.074-4.055,4.431-5.658,6.978c-0.282,0.565-0.754,1.036-1.131,1.604c-0.376,0.471-0.659,0.188-0.849-0.094
		c-0.566-1.037-1.131-2.074-1.131-3.301c-0.094-1.509,0-3.11,0.66-4.524c-1.226,1.226-1.508,2.734-1.603,4.431
		c-0.188-0.188-0.283-0.282-0.377-0.377c-0.66-0.66-1.131-1.508-1.792-2.168c-1.414-1.319-2.828-2.732-4.337-3.959
		c-0.724-0.596-1.507-1.131-2.303-1.654h-4.845c-0.227,0.306-0.455,0.613-0.678,0.9c1.037,0.66,1.98,1.32,3.017,1.98
		c2.828,1.792,4.997,4.054,6.788,6.882c1.226,1.886,1.98,4.054,2.451,6.223c0.188,1.131,0.377,2.264,0.472,3.396
		c0.188,1.695,0.377,3.3,0.471,4.996c0.094,1.979-0.094,3.96-0.471,5.846c0,0.283-0.189,0.473-0.283,0.941
		c-0.283-2.922-1.979-5.938-3.394-6.222c0.472,0.66,0.943,1.32,1.32,2.074c0.472,0.941,0.943,1.979,0.943,3.11
		c-0.094,1.132,0.094,2.356-0.377,3.487c-0.188,0.565-0.377,0.754-0.943,0.754c-1.037,0-1.886-0.563-2.734-1.037
		c-0.613-0.377-1.132-0.823-1.592-1.334h-8.3c-0.003,0.007-0.006,0.011-0.009,0.016c-0.66,0.754-1.508,1.227-2.451,1.508
		c-1.603,0.473-3.017,1.227-4.714,0.754c-1.681-0.436-3.025-1.129-3.994-2.274H76.67c0.454,0.896,1.2,1.651,2.083,2.37
		c-0.283,0-0.471-0.188-0.66-0.188c-1.32-0.188-2.546-0.851-3.677-1.604c-0.263-0.182-0.501-0.377-0.732-0.578h-3.57
		c0.356,0.695,0.681,1.393,1.002,2.089c0.188,0.28,0.283,0.563,0.472,0.849c-0.283,0-0.377,0-0.472,0
		c-2.074,0-3.865-0.566-5.751-1.227c-1.168-0.46-2.23-1.047-3.223-1.71h-5.906c-0.776,0.237-1.602,0.429-2.279,0.768
		c-1.508,0.849-1.792,1.226-1.886,1.697c2.546-1.697,5.374-2.451,7.637,0.377c-1.414,0.563-2.828,1.036-4.243,1.694
		c-1.603,0.659-2.922,1.604-4.243,2.733c-1.791,1.51-3.299,3.201-4.431,5.275c-0.66,1.132-1.226,2.354-1.603,3.682
		c-0.377,1.409-0.377,2.922-0.377,4.336c0,1.979,0.565,3.862,1.508,5.563c0.377,0.756,0.943,1.414,1.792,1.887
		c-0.26-0.605-0.513-1.133-0.626-1.65c-0.023-0.104-0.048-0.215-0.077-0.35c-0.063-0.333-0.139-0.669-0.222-1.017
		c-0.245-1.138-0.524-2.481-0.583-3.021c-0.094-1.604,0.189-3.3,0.66-4.899c0.565-1.887,1.603-3.582,3.017-4.998
		c0.377-0.377,0.754-0.654,1.226-1.031c-0.943,5.188,0.565,7.637,2.451,8.577c-1.508-2.925-1.697-5.654-0.188-8.482
		c1.508-2.731,3.771-4.337,6.694-5.188c-0.377,0.66-0.849,1.229-1.226,1.89c-0.472,0.754-0.566,1.509-0.472,2.169
		c0.283-0.564,0.566-1.229,0.943-1.792c1.037-1.511,2.545-2.45,4.431-2.267c1.037,0.099,2.168,0.476,3.206,0.853
		c1.131,0.282,2.074,0.851,3.3,0.851c1.037,0.099,1.98,0.283,3.111,0.476c-2.263,1.414-3.583,3.396-3.771,6.03
		c1.226-3.106,3.3-5.275,6.694-6.223c-1.131,1.979-1.226,3.862,0.094,5.653c-0.283-1.132-0.565-2.354-0.094-3.485
		c0.377-1.133,0.943-2.074,2.168-2.451c0.943-0.282,1.792-0.474,2.734-0.66c0.66-0.188,1.414-0.471,2.168-0.563
		c1.226-0.188,2.451-0.476,3.677-0.476c1.037,0,2.074,0.38,3.111,0.563c1.32,0.188,2.545,0.659,3.771,1.414
		c0.194,0.114,0.367,0.245,0.551,0.368h28.217c0.121-0.063,0.244-0.12,0.363-0.185c0.85-0.377,1.697-0.656,2.547-0.851
		c1.226-0.28,2.545-0.473,3.771-0.473c1.226,0,2.356,0.377,3.583,0.655c0.943,0.188,1.792,0.477,2.734,0.759
		c0.106,0.03,0.219,0.061,0.332,0.086h8.043c0.463-0.168,0.916-0.353,1.336-0.563c0.436-0.191,0.887-0.396,1.334-0.604
		 M47.482,104.29c-0.009-0.041-0.023-0.082-0.03-0.122c-0.008-0.049-0.021-0.095-0.03-0.146L47.482,104.29z M108.956,61.879
		c-0.014-0.034-0.024-0.067-0.039-0.1c0.014-0.008,0.027-0.016,0.041-0.021C108.958,61.799,108.958,61.839,108.956,61.879z"/>
	<path d="M163.511,67.145c-0.472,0.188-2.819,5.021-3.291,5.304c-0.472,0.281-0.104,2.587-0.575,2.964c-0.095,0-0.283,0-0.377,0
		c0.188-0.474,0.377-0.942,0.566-1.415c-0.473,0.564-0.754,1.132-1.131,1.695c-0.283,0.473-0.85,0.097-1.131,0.66
		c-0.472,0.377-1.129,1.263-1.602,1.64c-1.037,0.849-2.902,2.106-3.939,2.958c-1.414,1.037-2.328,1.85-3.836,2.792
		c-0.547,0.383-1.213,1.207-1.832,1.5c0.498-0.114,1.754-0.396,2.252-0.497c0.283-0.096,0.471-0.188,0.754-0.283
		c0.849-0.188,1.697-0.281,2.451-0.564c0.942-0.276,1.885-0.096,2.733,0.283c1.074,0.441,1.929,1.146,2.494,2.064h0.556
		c-0.254-0.872-0.713-1.633-1.447-2.254c1.746,0.4,3.199,1.146,4.405,2.254h5.687c-0.396-0.387-0.803-0.762-1.229-1.123
		c-2.073-1.697-4.337-3.111-6.978-3.865c-0.471-0.094-0.942-0.283-1.508-0.471c1.131-1.229,2.451-1.604,3.959-1.604
		c1.51,0,2.734,0.565,4.055,1.319c-1.227-1.696-3.018-2.263-4.997-2.356c0.094-0.188,0.094-0.281,0.188-0.281
		c0.942-0.66,1.885-1.229,2.922-1.604c1.227-0.472,2.357-0.849,3.678-0.377c1.227,0.472,2.263,1.037,3.206,1.792
		c1.036,0.943,1.696,2.074,2.356,3.301c-0.094-1.131-0.471-2.168-1.131-3.018c-0.66-0.852-1.508-1.508-2.263-2.266
		c2.546,0.283,4.81,1.229,6.788,3.02c-0.094-1.32-0.094-2.545-0.188-3.677c0-0.377-0.188-0.851-0.66-1.037
		c-1.32-0.565-2.547-1.228-3.867-1.509c-1.885-0.377-3.771-0.66-5.656-0.283c-0.094,0-0.283-0.094-0.283-0.094
		c1.744-4.515,2.084-8.889,1.402-13.167h-3.322c0.008,0.113,0.027,0.229,0.034,0.345c0,0.45,0.048,1.408,0.21,2.02"/>
	<path d="M162.379,48.354c3.11,0.473,5.845,0.096,8.108-2.072c-1.037,0.281-2.168,0.658-3.301,1.035
		c-1.792,0.565-3.583,0.283-5.279-0.188c-0.188-0.094-0.472-0.283-0.565-0.472c-0.149-0.227-0.3-0.471-0.45-0.712h-3.723
		c0.264,0.394,0.535,0.785,0.779,1.184c0.754,1.037,1.414,2.168,1.979,3.3c0.565,1.131,1.037,2.263,1.508,3.396
		c0.634,1.424,1.052,2.98,1.229,4.56h3.287C165.34,54.99,164.089,51.654,162.379,48.354z"/>
</g>
<g>
	<path d="M56.031,70.509c0.094-1.979,0.565-3.866,1.885-5.374c-0.188,1.98-0.377,3.865-0.565,5.751c0.094,0,0.094,0.094,0.283,0
		c0.094-0.094,0.188-0.094,0.283-0.188c1.037-0.943,1.886-1.98,2.168-3.396c0.189-0.754,0.189-1.603,0-2.354
		c-0.165-0.617-0.416-1.234-0.626-1.867h-3.517C54.352,65.217,53.918,68.087,56.031,70.509z"/>
	<path d="M62.347,59.574c-0.188,0.212-0.364,0.438-0.532,0.673h0.492C62.318,60.023,62.328,59.798,62.347,59.574z"/>
	<path d="M64.139,59.668c-0.073,0.19-0.132,0.385-0.19,0.579h0.695C64.486,60.05,64.318,59.857,64.139,59.668z"/>
	<path d="M63.479,65.702c-0.461-0.838-0.766-1.718-0.954-2.621h-1.946c-0.333,2.048,0.544,4.227,3.843,5.73
		c0.188-0.564,0.377-1.131,0.66-1.695c0.283-0.66,0.66-1.228,0.849-1.888c0.198-0.761,0.214-1.473,0.097-2.147h-2.521
		C63.465,63.962,63.479,64.84,63.479,65.702z"/>
	<path d="M73.472,58.537c1.226-0.943,1.886-1.131,2.64-0.943c-0.796,0.854-1.543,1.717-2.188,2.653h2.94
		c0.313-0.439,0.564-0.944,0.757-1.521c0.377-1.037,0.566-2.074,0.849-3.109c-4.223-0.918-7.185,1.296-6.99,4.633h0.269
		C72.304,59.657,72.819,59.026,73.472,58.537z"/>
	<path d="M68.382,58.914c0.094-0.094,0.094-0.094,0.188-0.094c0.555,0.401,0.969,0.891,1.311,1.427h1.167
		c-0.007-0.256-0.027-0.511-0.027-0.769c0-0.849-0.283-1.509-0.849-2.168c-0.66-0.66-1.414-1.131-2.263-1.509
		c-0.565-0.283-1.037-0.66-1.603-1.037c-0.188,1.131-0.471,2.168-0.66,3.299c-0.064,0.772,0.104,1.497,0.419,2.184h2.668
		C68.622,59.797,68.508,59.354,68.382,58.914z"/>
	<path d="M75.452,57.97c-0.66,0.188-1.131,0.377-1.603,0.754c-0.605,0.44-1.107,0.953-1.558,1.521h1.43
		c0.217-0.323,0.443-0.645,0.693-0.956C74.793,58.914,75.075,58.442,75.452,57.97z"/>
	<path d="M69.153,60.247h0.333c-0.162-0.229-0.338-0.45-0.538-0.673C69.018,59.821,69.088,60.038,69.153,60.247z"/>
	<path d="M72.192,63.081h-2.411c0.107,0.676,0.122,1.366-0.173,2.055c-0.188,0.377-0.283,0.754-0.377,1.229
		c-0.189,0.941-0.472,1.979-0.566,3.017c-0.094,1.226,0,2.355,0,3.583c0,0.377,0.094,0.754,0.094,1.226
		c-1.32-1.131-2.64-1.979-4.337-1.979c0.377,0.283,0.66,0.471,0.943,0.563c1.697,0.756,2.923,1.98,3.866,3.584
		c0.21,0.344,0.404,0.687,0.59,1.026h3.289c-1.512-1.608-2.201-3.675-2.276-5.93c-0.188-2.545,0.094-5.187,1.037-7.637
		C71.972,63.567,72.083,63.325,72.192,63.081z"/>
	<path d="M59.048,56.273c-1.32-0.094-2.357,0.473-3.205,1.133c-0.943,0.563-1.603,1.508-2.452,2.354
		c0.189-2.545,0.754-4.997,1.886-7.354c-1.037,0.658-2.074,1.415-3.206,2.072c-0.849,0.474-1.414,1.132-1.508,2.074l-0.094,0.66
		c-0.21,1.014-0.356,2.023-0.46,3.03h4.864C55.675,58.595,56.982,57.231,59.048,56.273z"/>
	<path d="M51.6,71.923c-0.377,0-0.754-0.094-1.131-0.094c-1.32,0.094-2.64,0.188-3.96,0.282c-0.848,0-1.603,0.188-2.357,0.472
		c-1.037,0.377-2.074,0.849-3.017,1.415c-1.226,0.754-2.357,1.604-3.299,2.545c-0.849,0.754-1.32,1.791-1.98,2.641
		c-0.754,1.131-1.886,1.887-3.017,2.642c-0.188,0.188-0.471,0.188-0.754,0.28c-0.66,0.188-1.414,0.474-2.074,0.66v0.096
		c0.754,0,1.603-0.096,2.451-0.096c-1.226,1.889-2.263,3.771-2.64,5.94c1.131-1.979,2.357-4.054,3.96-5.751
		c-0.094,0.563-0.283,0.939-0.377,1.414c-0.472,2.074-0.66,4.242-0.377,6.41c0.188,0.941,0.188,1.887,0.472,2.729
		c0.565,1.696,0.283,3.396-0.377,5.096c-0.188,0.563-0.471,1.133-0.754,1.791c1.037-0.658,1.885-2.354,2.263-3.862
		c1.414,2.168,2.734,4.239,4.148,6.409c0.283-0.379,0.66-0.941,1.037-1.414c0.283-0.473,0.188-0.756,0-1.229
		c-1.037-2.169-2.545-4.055-3.111-6.408c-0.283-0.938-0.66-1.889-0.66-2.926c-0.094-1.693-0.094-3.396,0.283-5.091
		c0.472-1.888,1.226-3.677,2.451-5.279c1.509-1.791,3.3-3.205,5.468-4.146c1.131-0.475,2.451-0.66,3.677-0.943
		c0,0,0.094,0.094,0.094,0.188c-0.751,0.502-1.393,1.058-1.922,1.688h1.246c1.516-1.134,3.064-2.032,5.202-1.499
		c1.149,0.383,2.232,0.84,3.256,1.499h5.552c-0.935-0.705-1.804-1.479-2.586-2.347c-0.66-0.66-0.849-1.697-1.226-2.643
		c-0.471-1.317-0.565-2.64-0.377-4.054c0.094-0.564,0.094-1.226,0.094-1.886c-0.943,1.791-1.037,3.677-0.849,5.563
		c-1.131-0.659-2.734-4.62-2.64-6.882c0.035-0.709,0.105-1.395,0.219-2.055h-4.13C49.867,66.062,50.401,69.01,51.6,71.923z"/>
	<path d="M36.422,64.853c-1.131,0.188-2.278,0.354-3.409,0.447c0,0.094,0.89,0.029,0.984,0.124c1.415,0,2.048,0.089,3.462,0.183
		c-1.414,1.697-3.111,5.093-2.922,6.034c1.32-2.354,2.734-4.62,4.808-6.505c-1.131,3.488-1.792,7.071-1.603,10.843
		c0.283-0.281,0.472-0.472,0.754-0.658c0.66-0.379,1.32-0.852,1.98-1.32c0.188-0.094,0.471-0.283,0.471-0.475
		c0.094-0.471,0.094-0.94,0.188-1.411c0.189-1.037,0.189-2.168,0.472-3.111c0.471-1.604,1.037-3.206,1.697-4.808
		c0.155-0.381,0.341-0.746,0.526-1.112h-3.926C38.979,64.04,37.746,64.604,36.422,64.853z"/>
	<path d="M46.886,58.537c1.791-2.168,3.865-3.96,6.316-5.374c2.357-1.508,4.809-2.923,7.637-3.583
		c1.508-0.377,3.017-0.754,4.525-0.66c0.849,0.094,1.226-0.283,1.697-0.849c0.094-0.096,0.188-0.283,0.283-0.379
		c0.523-0.608,1.039-1.213,1.488-1.75H62.14c-1.034,0.184-2.064,0.408-3.092,0.714c-1.415,0.377-2.829,0.941-4.243,1.413
		c-0.66,0.282-1.226,0.659-1.886,0.85c-0.943,0.377-1.98,0.283-2.923,0c-1.037-0.283-2.168-0.565-3.205-0.85
		c-0.189-0.095-0.472-0.282-0.66-0.378c1.226,1.511,2.923,1.98,4.714,2.451c-0.471,0.377-0.943,0.66-1.414,0.851
		c-0.943,0.377-1.886,0.564-2.829,0.849c-1.979,0.66-3.677,1.697-5.279,3.017c-0.377,0.283-0.66,0.565-0.943,0.942
		c2.357-1.32,4.62-2.545,7.354-3.3c-0.188,0.188-0.283,0.377-0.377,0.472c-0.943,1.037-1.98,1.886-2.828,3.019
		c-1.043,1.391-1.998,2.79-2.881,4.255h3.919C45.991,59.659,46.429,59.085,46.886,58.537z"/>
	<path d="M63.762,59.668c0.471-1.228,0.848-2.451,1.32-3.583c0.471-1.037,1.131-2.074,1.697-3.111
		c1.32-2.263,2.923-4.243,4.997-5.845c0.57-0.446,1.16-0.837,1.768-1.184h-3.863c-0.055,0.05-0.113,0.096-0.167,0.146
		c-1.414,1.32-2.451,2.734-3.488,4.242c-0.943,1.509-1.886,3.111-2.357,4.809c-0.377,1.037-0.754,2.168-0.943,3.3
		c-0.086,0.604-0.141,1.203-0.161,1.806h1.045C63.659,60.053,63.702,59.86,63.762,59.668z"/>
	<path d="M63.183,63.081H62.81c0.098,0.434,0.221,0.867,0.386,1.301C63.172,63.935,63.17,63.504,63.183,63.081z"/>
</g>
<rect x="144.663" y="54.382" width="6.201" height="0.563"/>
<rect x="126.663" y="75.382" width="6.201" height="0.563"/>
<rect x="62.858" y="69.382" width="17.007" height="0.563"/>
<rect x="192.663" y="72.382" width="6.201" height="0.563"/>
<g>
	<path d="M116.181,105.864c-0.282-1.229-0.66-2.451-0.66-3.679c0.095-1.979-0.094-4.06,0.378-6.033
		c0.377-1.51,0.754-3.021,1.414-4.432c0.463-0.981,6.659-5.688,7.385-6.479l-18.294-1.087c0.994-3.834-13.078,0.953-12.982,1.087
		c0.66,1.034,5.979,6.286,6.262,7.514c0.283,1.414,0.66,2.734,0.849,4.058c0.094,1.604,0.094,3.205,0.094,4.813
		c0,1.021-0.224,1.984-0.537,2.92h7.926v2.834h-9.004c-0.134,0.331-0.285,0.67-0.432,1.007h18.799
		C116.836,107.615,116.43,106.777,116.181,105.864z"/>
	<path d="M136.452,122.835l0.908-3.815c-0.881-0.729-1.824-1.381-2.793-1.936c-1.227-0.754-2.546-1.414-3.865-2.074
		c-1.131-0.564-2.264-1.226-3.488-1.697c-1.98-0.849-4.055-1.508-6.034-2.263c-1.213-0.433-2.413-1.12-3.333-2.104H98.339
		c-0.104,0.287-0.33,0.732-0.636,1.066l-1.183,0.821c-0.248,0.144-0.429,0.246-0.584,0.334l-9.331,8.712
		c-0.635,0.533-1.25,1.094-1.818,1.729c-0.719,0.83-1.322,1.771-1.79,2.773h3.256c0.35-0.555,0.775-0.91,1.155-1.518
		c0.717-0.758,1.102-1.204,1.284-1.456c0.546-0.528,1.225-1.14,2.022-1.749c3.029-2.297,1.918-1.491,2.861-2.221
		c1.284-0.604,0,0,1.41-0.654c1.469-0.771,2.39-0.913,2.966-1.008c-0.075,0.143-0.137,0.271-0.155,0.356
		c-0.094,0.478-0.283,1.037-0.471,1.513c-0.754,1.414-1.792,2.643-3.017,3.68c-1.051,0.938-2.065,1.947-2.937,3.057h3.628
		c0.238-0.236,0.47-0.477,0.722-0.699c0.533-0.438,1.071-0.809,1.683-1.242c-0.012,0.113-0.021,0.244-0.021,0.408
		c0,0.146,0.009,0.854,0.031,1.533h2.923c-0.005-0.264-0.006-0.527,0.004-0.794c0-0.754,0-1.414,0.094-2.168
		c0.138-1.106,0.683-2.012,1.224-2.938c0.097-0.004,1.501-2.219,1.596-2.219c-0.094,0.659-0.463,2.045-0.557,2.799
		c-0.188,1.131-0.566,2.356-0.66,3.487c-0.052,0.619-0.056,1.229-0.015,1.831h3.129c-0.003-0.17-0.01-0.338-0.002-0.511
		c0.094-0.942,0.283-1.886,0.471-2.828c0.094-0.565,0.377-1.132,0.566-1.697c0.377-0.754,0.66-1.509,0.943-2.263
		c0.283-0.564,0.471-1.229,0.66-1.791c0-0.188,0.131-0.361,0.32-0.551c0,0.378-0.037,0.736,0.057,0.928
		c0.471,1.131,0.848,2.168,1.32,3.3c0.776,1.728,1.139,3.531,1.125,5.413h2.99c0.116-1.688-0.127-3.316-0.533-4.941
		c-0.188-0.754-0.188-1.604-0.377-2.641c0.283,0.283,0.471,0.378,0.565,0.473c0.282,0.479,0.659,1.037,0.942,1.51
		c0.754,1.414,1.32,2.826,1.227,4.437c-0.027,0.396-0.041,0.782-0.053,1.171h2.88c0.012-0.354,0.015-0.716,0.002-1.07
		c0-0.188,0-0.377,0-0.564c0.094-0.096,0.094-0.096,0.188-0.096c0.696,0.541,1.45,1.092,2.118,1.73h3.437
		c-0.937-1.18-2.045-2.188-3.104-3.24c-1.414-1.414-2.733-2.928-3.206-4.9c0-0.096,0-0.282,0.094-0.473c0-0.1,0.283-0.1,0.377-0.1
		c2.168,0.477,4.242,1.133,6.129,2.168c2.258,1.396,2.58,2.051,3.3,3.682c0.282,0.938,0.849,1.692,1.319,2.449
		c0.088,0.141,0.168,0.275,0.252,0.414h3.474c-0.236-0.563-0.499-1.105-0.802-1.643c-0.564-1.021-1.299-2.74-2.082-4.248
		c0.1,0.025,0.197,0.063,0.291,0.104C132.397,119.629,134.471,121.232,136.452,122.835z"/>
</g>
<rect x="158.663" y="113.382" width="6.201" height="0.563"/>
<rect x="25.663" y="61.382" width="6.201" height="0.563"/>
<g>
	<path d="M46.503,108.945c0.788,0.604,1.708,1.021,2.726,1.345c0.66,0.188,1.414,0.377,2.168,0.563
		c-0.305-0.652-0.364-1.287-0.334-1.908H46.503z"/>
	<path d="M51.303,106.801c0-0.849,0.094-1.791-0.188-2.546c-0.566-1.696-1.886-2.733-3.677-3.205c0,0.849,0.094,1.697,0.094,2.451
		c0.565,1.414,1.131,2.733,1.697,4.146c-2.357-1.412-3.488-3.395-4.054-5.846c-0.283,0.756-0.566,1.414-0.66,2.17
		c-0.188,1.413,0,2.827,0.943,3.959c0.129,0.168,0.282,0.305,0.425,0.449h5.225C51.171,107.852,51.265,107.327,51.303,106.801z"/>
	<path d="M36.045,109.165c0.119-0.065,0.225-0.146,0.336-0.22h-4.715C33.014,109.627,34.445,109.818,36.045,109.165z"/>
	<path d="M37.929,106.996c-2.168,0.941-4.243,0.66-5.563-0.188c0.848-0.283,1.885-0.377,2.734-0.754
		c0.943-0.384,1.697-0.941,2.451-1.798c-0.848-0.188-1.508-0.563-2.263-0.563c-1.508-0.098-2.734,0.563-3.771,1.604
		c-0.754,0.759-1.603,1.513-2.923,1.604c0.66,0.474,1.226,0.938,1.886,1.315c0.08,0.063,0.161,0.105,0.242,0.16h6.343
		C37.426,108.009,37.723,107.563,37.929,106.996z"/>
	<path d="M35.384,116.611c1.226,0,2.263-0.564,3.111-1.229c1.414-1.034,2.263-2.545,2.64-4.146c0.174-0.756,0.3-1.521,0.403-2.295
		h-1.67C39.6,111.977,38.08,115.336,35.384,116.611z"/>
	<path d="M41.7,107.467c0.094-1.037-0.094-2.074-0.094-3.111c-0.094-0.095-0.094-0.095-0.188-0.095
		c-0.566,0.66-1.131,1.229-1.697,1.886c0.151,0.688,0.207,1.441,0.178,2.235H41.6C41.633,108.078,41.678,107.782,41.7,107.467z"/>
</g>
<g>
	<rect x="421.75" y="88.564" width="6.514" height="0.643"/>
	<rect x="403.299" y="87.323" width="9.77" height="0.642"/>
	<rect x="425.008" y="92.294" width="3.256" height="0.642"/>
	<polyline points="416.747,95.039 416.868,95.18 417.682,96.111 418.139,96.631 	"/>
	<line fill="none" x1="405.471" y1="96.578" x2="405.471" y2="94.869"/>
	<polygon points="366.394,83.928 366.394,111.956 372.678,111.956 372.907,96.111 372.907,95.18 372.907,94.247 372.907,93.314 
		372.907,89.587 372.907,83.928 	"/>
	<rect x="385.934" y="107.206" width="3.256" height="0.644"/>
	<rect x="376.163" y="107.206" width="6.514" height="0.644"/>
	<rect x="376.163" y="97.42" width="3.256" height="0.643"/>
</g>
<g>
	<rect x="239.398" y="76.448" width="9.769" height="0.643"/>
	<polygon points="234.232,102.311 234.602,102.311 234.602,100.912 233.381,100.912 233.381,101.337 	"/>
	<rect x="281.73" y="95.09" width="3.256" height="0.643"/>
	<rect x="252.424" y="76.448" width="3.256" height="0.643"/>
	<rect x="229.629" y="67.219" width="6.513" height="2.796"/>
	<rect x="271.961" y="95.09" width="6.513" height="0.643"/>
	<rect x="265.449" y="116.061" width="19.538" height="0.646"/>
	<rect x="262.192" y="82.197" width="6.513" height="0.642"/>
	<rect x="258.936" y="83.596" width="3.256" height="0.641"/>
	<path d="M230.938,103.709"/>
	<path d="M233.381,103.709"/>
	<path d="M232.16,105.105"/>
</g>
<rect x="288.243" y="67.219" width="6.512" height="3.86"/>
<g>
	<path d="M234.602,100.912"/>
	<polyline points="234.602,102.734 234.602,102.734 235.453,103.709 235.823,104.134 235.823,104.134 242.655,111.956 
		246.183,107.917 242.655,107.917 242.655,107.451 246.589,107.451 261.378,90.52 261.378,90.52 261.786,90.055 261.786,90.055 
		265.449,85.859 256.494,85.859 252.831,90.055 252.424,90.52 249.167,94.247 248.354,95.18 247.539,96.111 246.725,97.044 
		245.911,97.977 245.097,98.908 244.283,99.84 243.469,100.771 242.655,101.704 236.142,94.247 236.142,70.481 229.629,70.481 
		229.629,97.044 231.79,99.516 232.16,99.939 232.16,99.939 233.011,100.912 233.381,101.337 	"/>
	<polygon points="288.243,74.602 288.243,78.869 288.243,78.869 288.243,79.335 288.243,79.335 288.243,93.314 279.288,103.568 
		279.288,103.568 279.288,103.568 278.881,104.034 278.474,104.5 262.192,104.5 261.786,104.034 262.192,104.5 261.378,103.568 
		261.378,103.568 258.122,99.84 256.898,98.586 252.424,103.709 254.052,105.432 254.866,106.364 255.68,107.296 255.815,107.451 
		262.192,107.451 262.192,107.917 256.223,107.917 259.75,111.956 280.916,111.956 288.243,103.568 289.057,102.636 
		289.871,101.704 290.685,100.771 294.755,96.111 294.755,74.602 	"/>
</g>
<rect x="214.857" y="60.094" width="18.46" height="0.639"/>
<rect x="222.245" y="63.79" width="6.73" height="0.7"/>
<g>
	<rect x="346.856" y="91.206" width="6.513" height="0.644"/>
	<rect x="314.293" y="63.867" width="6.513" height="0.642"/>
	<rect x="343.6" y="101.85" width="3.256" height="0.645"/>
	<rect x="330.575" y="99.75" width="3.256" height="0.643"/>
	<polygon points="307.781,123.141 312.665,117.549 312.665,117.549 313.072,117.082 313.072,117.082 314.293,115.686 
		314.293,110.688 307.781,110.688 	"/>
	<rect x="317.55" y="99.75" width="9.769" height="0.643"/>
	<rect x="299.097" y="98.662" width="6.513" height="0.643"/>
	<path d="M363.138,67.856v-0.641H317.55l-19.538,22.37h8.955l0.814-0.933l0.814-0.932l0.814-0.936l0.814-0.936l4.07-4.661
		l0.814-0.932l0.814-0.932l0.814-0.932l3.256-3.729h36.634v7.457v6.523h6.512v-20.15l0,0v-0.642h0.001V67.856L363.138,67.856z"/>
	<rect x="335.269" y="59.984" width="24.613" height="0.641"/>
	<rect x="332.746" y="76.293" width="13.025" height="0.643"/>
</g>
<rect x="342.396" y="108.617" width="15.384" height="0.643"/>
<g>
	<path d="M328.947,82.131L328.947,82.131h-4.884l0,0l0,0v0.708v-0.708h-6.513l-9.769,11.186v13.854h6.513V96.111l3.256-3.729
		l0.814-0.933l0.814-0.934l0.814-0.935h30.121l6.513-7.456h-27.679"/>
</g>
<rect x="420.12" y="119.789" width="9.229" height="0.643"/>
<g>
	<polygon points="431.52,111.956 428.264,108.229 427.45,107.296 426.635,106.364 425.821,105.432 425.008,104.5 424.194,103.568 
		423.379,102.636 421.34,100.393 412.6,100.393 422.565,111.956 	"/>
	<polygon points="419.311,97.977 418.495,97.044 416.055,94.247 415.236,93.314 411.98,89.587 372.907,89.587 379.418,97.044 
		409.54,97.044 410.782,98.466 419.736,98.466 	"/>
</g>
<rect x="612.788" y="93.691" width="9.77" height="0.643"/>
<g>
	<rect x="610.618" y="76.138" width="3.256" height="0.643"/>
	<polygon points="589.993,83.553 594.334,83.553 594.334,74.675 610.618,74.675 609.803,73.743 608.989,72.812 608.174,71.879 
		607.36,70.947 604.104,67.219 587.823,67.219 587.823,111.956 594.334,111.956 594.334,102.052 594.334,101.41 594.334,87.076 
		589.993,87.076 	"/>
	<rect x="606.847" y="101.73" width="25.514" height="2.835"/>
	<rect x="587.823" y="114.816" width="3.256" height="0.644"/>
	<rect x="600.848" y="76.138" width="6.517" height="0.643"/>
	<rect x="622.823" y="82.061" width="14.766" height="0.645"/>
	<rect x="642.514" y="82.061" width="4.922" height="0.645"/>
</g>
<g>
	<polygon points="683.271,111.956 713.733,111.956 713.733,104.5 676.76,104.5 	"/>
	<rect x="685.512" y="101.148" width="3.256" height="0.642"/>
	<rect x="675.743" y="64.953" width="9.77" height="0.643"/>
	<rect x="695.28" y="101.148" width="6.514" height="0.642"/>
	<rect x="678.45" y="119.789" width="25.514" height="0.643"/>
	<rect x="688.768" y="64.953" width="3.261" height="0.643"/>
	<polyline points="713.733,85.859 662.717,85.859 665.973,89.587 666.305,89.964 689.854,89.964 689.854,90.605 666.866,90.605 
		667.196,90.984 668.008,91.917 668.417,92.384 668.823,92.85 669.192,93.287 713.733,93.311 	"/>
	<polygon points="656.206,67.219 656.612,67.685 657.018,68.151 657.426,68.617 658.241,69.549 658.647,70.015 659.055,70.481 
		659.461,70.947 659.868,71.413 660.276,71.879 660.682,72.345 661.497,73.277 661.903,73.743 662.311,74.209 662.717,74.675 
		713.733,74.675 713.733,67.004 	"/>
	<rect x="713.733" y="79.711" width="3.256" height="0.642"/>
	<rect x="723.502" y="79.711" width="6.512" height="0.642"/>
</g>
<rect x="375.079" y="115.904" width="3.256" height="0.643"/>
<rect x="362.052" y="115.904" width="9.769" height="0.643"/>
<path d="M418.495,67.219h-32.563l-4.887,5.592l-0.814,0.932l-0.813,0.932h-13.024v6.524v0.466v0.466h15.468l6.512-7.456h28.494
	l0.402,0.466l0.408,0.466l2.44,2.795l0.813,0.932l0.813,0.932l1.629,1.864l-4.885,5.593h8.141l4.885-5.593L418.495,67.219z
	 M418.495,70.567h-24.613v-0.643h24.613V70.567z"/>
<g>
	<polygon points="652.948,67.219 648.877,71.879 648.065,72.812 646.436,74.675 646.436,89.964 652.948,89.964 	"/>
	<polygon points="646.436,103.568 646.436,104.034 646.436,104.5 636.667,104.5 636.26,104.034 635.854,103.568 613.874,78.403 
		604.918,78.403 634.225,111.956 652.948,111.956 652.948,90.605 646.436,90.605 	"/>
	<polyline points="662.717,90.634 656.206,90.605 656.206,91.461 656.206,92.384 656.206,97.044 663.125,104.966 663.532,105.432 
		663.938,105.898 664.752,106.83 665.161,107.296 665.567,107.762 665.973,108.229 672.487,115.686 681.442,115.686 662.717,94.247 
		662.717,92.384 662.717,90.634 662.717,90.605 662.717,90.634 	"/>
	<polyline points="662.717,89.964 662.717,89.964 662.717,85.859 662.717,83.995 662.717,83.063 662.717,81.199 662.717,80.267 
		662.717,75.607 662.717,75.142 662.717,74.675 656.206,74.675 656.206,89.964 662.717,89.964 	"/>
</g>
<g>
	<rect x="542.235" y="78.779" width="3.256" height="0.642"/>
	<rect x="529.209" y="78.779" width="9.771" height="0.642"/>
	<rect x="542.235" y="90.896" width="13.021" height="0.642"/>
	<rect x="525.954" y="117.459" width="3.256" height="0.643"/>
	<rect x="529.209" y="116.061" width="9.771" height="0.646"/>
	<rect x="524.868" y="114.507" width="3.256" height="0.644"/>
	<rect x="558.516" y="90.896" width="3.261" height="0.642"/>
	<rect x="521.747" y="87.881" width="1.221" height="1.398"/>
	<rect x="522.967" y="86.482" width="1.226" height="1.396"/>
	<rect x="582.309" y="62.953" width="3.261" height="0.643"/>
</g>
<rect x="378.334" y="77.38" width="9.77" height="0.643"/>
<path d="M519.44,67.219v29.825l0.403,0.466l0.406,0.467l6.92,7.922l0.408,0.47l4.885,5.592h52.104v-0.466v-0.469V68.499v-0.643
	v-0.641L519.44,67.219L519.44,67.219z M574.797,109.246H550.18v-0.643h24.617V109.246z M578.053,75.607v0.932v27.029v0.466v0.466
	h-43.145l-0.814-0.932l-0.813-0.937l-7.326-8.389v-19.57h52.1L578.053,75.607L578.053,75.607z"/>
<g>
	<rect x="361.103" y="99.064" width="1.221" height="1.396"/>
	<path d="M361.103,99.064"/>
	<polyline points="363.138,96.27 363.138,89.121 356.625,89.121 356.625,101.704 356.625,102.17 356.625,105.432 356.625,106.364 
		356.625,111.956 363.138,111.956 363.138,100.464 	"/>
	<polyline points="363.138,99.064 363.138,97.977 363.138,97.667 362.324,97.667 	"/>
</g>
<rect x="132.398" y="116.611" width="17.007" height="2.837"/>
<rect x="88.856" y="89.029" width="17.007" height="2.838"/>
<polyline points="88.856,84.246 105.864,84.246 105.864,87.083 "/>
<rect x="329.194" y="115.246" width="5.669" height="2.837"/>
<g>
	<rect x="428.264" y="75.05" width="3.257" height="0.643"/>
	<rect x="456.485" y="78.779" width="9.77" height="0.642"/>
	<rect x="472.704" y="63.712" width="14.174" height="0.641"/>
	<rect x="480.364" y="83.904" width="3.258" height="0.643"/>
	<polygon points="504.45,67.219 451.057,67.219 451.057,74.675 498.073,74.608 	"/>
	<rect x="470.596" y="83.904" width="6.517" height="0.643"/>
	<rect x="489.047" y="97.42" width="13.025" height="0.643"/>
	<rect x="499.903" y="102.325" width="19.537" height="0.466"/>
	<polygon points="470.784,99.625 461.827,99.625 461.641,99.838 448.35,115.148 457.581,115.221 460.831,111.025 461.643,110.092 
		462.458,109.16 463.27,108.229 466.526,104.501 473.038,111.956 516.182,111.956 516.182,104.5 466.526,104.5 	"/>
	<polygon points="476.293,93.314 493.389,93.314 504.788,80.266 505.6,79.334 516.182,67.216 507.229,67.216 490.948,85.855 
		473.85,85.855 462.456,98.906 462.387,98.984 471.342,98.984 	"/>
</g>
<rect x="487.42" y="115.584" width="16.279" height="0.641"/>
<rect x="220.022" y="98.753" width="17.007" height="2.837"/>
<rect x="213.663" y="106.382" width="6.201" height="0.563"/>
<rect x="199.691" y="110.382" width="14.173" height="0.563"/>
<rect x="64.377" y="106.506" width="5.669" height="2.837"/>
<rect x="42.682" y="21.198" width="5.669" height="2.837"/>
<rect x="385.689" y="52.246" width="14.174" height="2.837"/>
<rect x="453.663" y="125.526" width="22.679" height="2.837"/>
<rect x="627.371" y="76.067" width="5.67" height="2.837"/>
<rect x="531.557" y="58.621" width="24.612" height="0.641"/>
<rect x="627.067" y="115.365" width="14.172" height="0.641"/>
</svg>
