<?xml version="1.0" encoding="utf-8"?>
<!-- Generator: Adobe Illustrator 15.1.0, SVG Export Plug-In . SVG Version: 6.00 Build 0)  -->
<!DOCTYPE svg PUBLIC "-//W3C//DTD SVG 1.1//EN" "http://www.w3.org/Graphics/SVG/1.1/DTD/svg11.dtd">
<svg version="1.1" id="Layer_1" xmlns="http://www.w3.org/2000/svg" xmlns:xlink="http://www.w3.org/1999/xlink" x="0px" y="0px"
	 width="741.805px" height="164px" viewBox="0 0 741.805 164" enable-background="new 0 0 741.805 164" xml:space="preserve" fill="black">
<g>
	<polyline points="416.747,95.039 416.868,95.18 417.682,96.111 418.139,96.631 	"/>
	<line fill="none" x1="405.471" y1="96.578" x2="405.471" y2="94.869"/>
	<polygon points="366.394,83.928 366.394,111.956 372.678,111.956 372.907,96.111 372.907,95.18 372.907,94.247 372.907,93.314 
		372.907,89.587 372.907,83.928 	"/>
</g>
<g>
	<polygon points="234.232,102.311 234.602,102.311 234.602,100.912 233.381,100.912 233.381,101.337 	"/>
	<rect x="229.629" y="67.219" width="6.513" height="3.719"/>
	<path d="M230.938,103.709"/>
	<path d="M233.381,103.709"/>
	<path d="M232.16,105.105"/>
</g>
<rect x="288.243" y="67.219" width="6.512" height="8.094"/>
<g>
	<path d="M234.602,100.912"/>
	<polyline points="234.602,102.734 234.602,102.734 235.453,103.709 235.823,104.134 235.823,104.134 242.655,111.956 
		246.183,107.917 246.183,107.917 246.589,107.451 246.589,107.451 261.378,90.52 261.378,90.52 261.786,90.055 261.786,90.055 
		265.449,85.859 256.494,85.859 252.831,90.055 252.424,90.52 249.167,94.247 248.354,95.18 247.539,96.111 246.725,97.044 
		245.911,97.977 245.097,98.908 244.283,99.84 243.469,100.771 242.655,101.704 236.142,94.247 236.142,70.481 229.629,70.481 
		229.629,97.044 231.79,99.516 232.16,99.939 232.16,99.939 233.011,100.912 233.381,101.337 	"/>
	<polygon points="288.243,74.602 288.243,78.869 288.243,78.869 288.243,79.335 288.243,79.335 288.243,93.314 279.288,103.568 
		279.288,103.568 279.288,103.568 278.881,104.034 278.474,104.5 262.192,104.5 261.786,104.034 262.192,104.5 261.378,103.568 
		261.378,103.568 258.122,99.84 256.898,98.586 252.424,103.709 254.052,105.432 254.866,106.364 255.68,107.296 255.815,107.451 
		255.815,107.451 256.223,107.917 256.223,107.917 259.75,111.956 280.916,111.956 288.243,103.568 289.057,102.636 
		289.871,101.704 290.685,100.771 294.755,96.111 294.755,74.602 	"/>
</g>
<g>
	<polygon points="307.781,123.141 312.665,117.549 312.665,117.549 313.072,117.082 313.072,117.082 314.293,115.686 
		314.293,110.688 307.781,110.688 	"/>
	<path d="M363.138,67.856v-0.641H317.55l-19.538,22.37h8.955l0.814-0.933l0.814-0.932l0.814-0.937l0.814-0.937l4.07-4.661
		l0.814-0.932l0.814-0.932l0.814-0.932l3.256-3.729h36.634v7.457l0.001,7.468h6.512l-0.001-21.095l0,0V67.85h0.001V67.856
		L363.138,67.856z"/>
</g>
<line x1="357.78" y1="108.617" x2="357.78" y2="109.26"/>
<g>
	<path d="M328.947,82.131L328.947,82.131h-4.884l0,0l0,0v0.708v-0.708h-6.513l-9.769,11.186l0,18.059h6.512l0.001-15.264
		l3.256-3.729l0.814-0.933l0.814-0.934l0.814-0.936h30.121l6.513-7.456h-27.679"/>
</g>
<g>
	<polygon points="431.52,111.956 428.264,108.229 427.45,107.296 426.635,106.364 425.821,105.432 425.008,104.5 424.194,103.568 
		423.379,102.636 421.34,100.393 412.6,100.393 422.565,111.956 	"/>
	<polygon points="419.311,97.977 418.495,97.044 416.055,94.247 415.236,93.314 411.98,89.587 372.907,89.587 379.418,97.044 
		409.54,97.044 413.078,100.947 421.844,100.947 	"/>
</g>
<g>
	<polygon points="594.334,83.553 594.334,83.553 594.334,74.675 610.618,74.675 609.803,73.743 608.989,72.812 608.174,71.879 
		607.36,70.947 604.104,67.219 587.823,67.219 587.823,111.956 594.334,111.956 594.334,102.052 594.334,101.41 594.334,87.076 
		594.334,87.438 	"/>
</g>
<g>
	<polygon points="683.271,111.956 713.733,111.956 713.733,104.5 676.76,104.5 	"/>
	<polyline points="713.733,85.859 662.717,85.859 665.973,89.587 666.305,89.964 666.305,89.964 666.866,90.605 666.866,90.605 
		667.196,90.984 668.008,91.917 668.417,92.384 668.823,92.85 669.192,93.287 713.733,93.311 	"/>
	<polygon points="656.206,67.219 656.612,67.685 657.018,68.151 657.426,68.617 658.241,69.549 658.647,70.015 659.055,70.481 
		659.461,70.947 659.868,71.413 660.276,71.879 660.682,72.345 661.497,73.277 661.903,73.743 662.311,74.209 662.717,74.675 
		713.733,74.675 713.733,67.004 	"/>
</g>
<line x1="362.052" y1="116.547" x2="362.052" y2="115.904"/>
<path d="M418.495,67.219h-32.563l-4.887,5.592l-0.814,0.932l-0.813,0.932h-13.024v6.524v0.466v0.466h15.467l6.513-7.456h28.494
	l0.401,0.466l0.408,0.466l2.44,2.795l0.813,0.932l0.813,0.932l1.629,1.864l-4.885,5.593h8.141l4.885-5.593L418.495,67.219z"/>
<g>
	<polygon points="652.948,67.219 648.877,71.879 648.065,72.812 646.436,74.675 646.436,90.605 652.948,90.605 	"/>
	<polyline points="646.436,90.188 646.436,103.568 646.436,104.034 646.436,104.5 636.667,104.5 636.26,104.034 635.854,103.568 
		613.874,78.403 604.918,78.403 634.225,111.956 652.948,111.956 652.948,90.188 	"/>
	<polyline points="662.717,90.634 656.206,90.605 656.206,91.461 656.206,92.384 656.206,97.044 663.125,104.966 663.532,105.432 
		663.938,105.898 664.752,106.83 665.161,107.296 665.567,107.762 665.973,108.229 672.487,115.686 681.442,115.686 662.717,94.247 
		662.717,92.384 662.717,90.634 662.717,90.605 662.717,90.634 	"/>
	<path d="M662.717,90.634"/>
	<polyline points="662.717,91.188 662.717,90.634 662.717,85.859 662.717,83.995 662.717,83.063 662.717,81.199 662.717,80.267 
		662.717,75.607 662.717,75.142 662.717,74.675 656.206,74.675 656.206,91.188 	"/>
</g>
<g>
	<rect x="521.747" y="87.881" width="1.221" height="1.398"/>
	<rect x="522.967" y="86.482" width="1.227" height="1.396"/>
</g>
<path d="M519.44,67.219v29.825l0.402,0.466l0.406,0.467l6.92,7.922l0.408,0.471l4.885,5.592h52.104v-0.466v-0.47V68.499v-0.643
	v-0.641L519.44,67.219L519.44,67.219z M578.053,75.607v0.932v27.029v0.466v0.466h-43.145l-0.814-0.932l-0.813-0.938l-7.326-8.389
	v-19.57h52.1L578.053,75.607L578.053,75.607z"/>
<g>
	<rect x="361.103" y="99.064" width="1.221" height="1.396"/>
	<path d="M361.103,99.064"/>
	<polyline points="363.138,96.27 363.138,89.121 356.625,89.121 356.625,101.704 356.625,102.17 356.625,105.432 356.625,106.364 
		356.625,111.956 363.138,111.956 363.138,100.464 	"/>
	<polyline points="363.138,99.064 363.138,97.977 363.138,97.667 362.324,97.667 	"/>
</g>
<g>
	<polygon points="504.45,67.219 451.057,67.219 451.057,74.675 498.073,74.608 	"/>
	<polygon points="471.342,98.984 462.387,98.984 461.641,99.838 448.35,115.148 457.581,115.221 460.831,111.025 461.643,110.092 
		462.458,109.16 463.27,108.229 466.526,104.501 473.038,111.956 516.182,111.956 516.182,104.5 466.526,104.5 	"/>
	<polygon points="476.293,93.314 493.389,93.314 504.788,80.266 505.6,79.334 516.182,67.216 507.229,67.216 490.948,85.855 
		473.85,85.855 462.456,98.906 461.922,99.517 470.262,100.221 	"/>
</g>
<g id="uw9n4Z.tif_1_">
	<g>
		<path d="M24,84.608c0.57-1.491,1.518-2.796,3.037-3.635c1.518-0.839,3.795-0.839,5.124,0.466c0.379,0.373,0.854,0.746,1.233,1.119
			c0,0.093,0,0.186,0,0.279c-1.233,0.187-2.467,0.373-3.7,0.559c0.379,0.561,1.043,0.652,1.708,0.652
			c0.664,0,1.234,0.094,1.897,0.188c-1.139,1.211-2.467,2.236-4.27,1.957c-0.569-0.094-1.044-0.373-1.613-0.652
			c-0.759-0.373-1.423-0.746-2.087-1.025c-0.475-0.186-0.949,0.187-1.329,0.559C24,84.982,24,84.795,24,84.608z"/>
		<path d="M196.878,85.82c-0.095-0.092-0.285-0.092-0.379-0.187c-0.759-0.56-1.423-0.373-2.183,0
			c-0.474,0.279-0.949,0.56-1.328,0.839c-0.664,0.466-1.423,0.466-2.182,0.373c-1.234-0.092-2.373-0.652-3.227-1.863
			c1.518,0.092,2.847,0,4.08-0.84c-1.423-0.186-2.941-0.373-4.459-0.467c0-0.092-0.095-0.186-0.095-0.279
			c0.664-0.559,1.234-1.211,1.992-1.677c1.898-1.025,3.606-0.933,5.503,0.651c0.854,0.653,1.423,1.492,1.803,2.424
			c0.095,0.188,0.284,0.373,0.379,0.561C196.878,85.541,196.878,85.634,196.878,85.82z"/>
		<path d="M122.395,46.765 M124.767,45.367c0.094,0,0.284,0,0.284,0.093c0.759,0.932,1.423,1.864,2.087,2.796
			c-1.233,0.839-2.467,1.584-3.605,2.33c-1.708,1.119-3.036,2.61-4.365,4.102c-0.665,0.745-1.328,1.584-1.897,2.423
			c-0.759,1.119-1.423,2.424-1.803,3.821c-0.379,1.399-0.759,2.797-1.044,4.195c-0.189,1.212-0.284,2.518-0.38,3.822
			c-0.094,1.118-0.189,2.33-0.284,3.449c0,0.652,0.095,1.211,0.095,1.865c0,0.186,0.095,0.279,0.189,0.559
			c0.665-2.518,1.803-4.381,3.891-5.78c-2.277,2.61-3.511,5.593-3.036,9.135c0.854-1.118,1.708-2.237,3.131-2.796
			c-0.569,0.746-1.233,1.398-1.613,2.237c-0.379,0.746-0.664,1.678-0.854,2.517c-0.095,0.466,0.664,1.119,1.139,1.119
			c1.328,0,2.467-0.559,3.511-1.305c2.087-1.584,3.131-3.729,3.89-6.06c0.285-1.024,0.569-2.05,0.665-3.075
			c0.094-0.653-0.095-1.399-0.38-1.958c-0.475-1.119-0.949-2.331-1.708-3.356c-0.854-1.212-1.898-2.237-2.657-3.076
			c0.759,0.279,2.467,1.118,4.459,4.101c0-0.373-0.095-0.745-0.095-1.118c-0.759-3.542-2.182-6.712-4.365-9.602l-0.095-0.093
			c-0.569-0.652-0.569-0.652,0-1.305c0.569-0.652,1.233-1.211,1.802-1.864c0.19-0.279,0.475-0.186,0.665,0.093
			c0.854,1.305,1.803,2.61,2.657,3.915c0.095,0.186,0.285,0.373,0.475,0.746c0.285-1.305,0.285-2.518,1.423-3.543
			c-0.095,0.652-0.285,1.119-0.285,1.584c-0.189,1.958-0.379,3.823,0.569,5.687c0.475,1.025,0.664,2.145,0.949,3.262
			c0.285,1.305,0.475,2.704,0.759,4.101c0,0,0.19-0.092,0.19-0.186c0.475-1.211,1.043-2.423,1.423-3.728
			c0.569-2.144,0.854-4.289,0.664-6.432c-0.189-1.958-0.569-3.821-1.328-5.5c-0.665-1.491-1.519-2.89-2.372-4.288
			c-1.424-2.61-3.606-4.661-5.693-6.618c-1.803-1.679-3.795-2.983-6.167-3.729c-1.328-0.466-2.656-0.839-3.795-1.119
			c1.043-0.28,2.276-0.652,3.415-0.932c0.38-0.093,0.76-0.093,1.044,0c1.233,0.373,2.372,0.839,3.606,1.305
			c1.613,0.652,2.941,1.678,4.27,2.796c2.087,1.771,3.985,3.729,5.693,5.873c1.613,2.05,3.036,4.194,4.08,6.525
			c0.379,0.745,0.569,1.491,0.854,2.144c0.095,0.279,0.19,0.466,0.38,0.652c0.854-0.746,1.613-1.398,2.467-2.051
			c1.328-1.118,2.846-2.05,4.554-2.703c1.898-0.839,3.89-1.585,5.978-2.144c1.519-0.373,2.277-1.398,3.132-2.517
			c0.284-0.373,0.474-0.746,0.854-1.026c-0.095,1.026-0.474,2.051-1.139,2.983c0.285,0,0.475,0,0.665,0
			c1.803,0.093,3.511,0.093,5.313,0.28c0.569,0,1.139,0.28,1.708,0.466l0,0c-0.19,0-0.474,0.094-0.664,0.094
			c-0.949,0.093-1.992,0-2.941,0.187c-1.423,0.186-2.941,0.279-4.27,0.652c-1.613,0.466-3.131,1.025-4.649,1.678
			c-1.139,0.559-2.277,1.212-3.226,2.05c-1.139,1.025-2.087,2.237-3.036,3.356c-0.38,0.466-0.57,1.025-0.759,1.492
			c0,0,0.095,0,0.095,0.093c0.189-0.186,0.379-0.373,0.475-0.559l0,0c-0.096,0.373-0.286,0.746-0.475,1.025
			c-0.664,1.211-1.423,2.331-1.993,3.542c-0.569,1.398-1.043,2.796-1.519,4.194c-0.189,0.466-0.189,0.84-0.379,1.399
			c0.475-0.094,0.854-0.094,1.233-0.188c2.087-0.372,4.175-0.279,5.978,0.84c0.284,0.186,0.569,0.373,0.664,0.652
			c-0.759-0.187-1.613-0.373-2.372-0.652c-1.234-0.467-2.372-0.094-3.416,0.186c-1.423,0.279-2.657,1.025-3.511,2.237
			c-0.665,0.839-1.234,1.771-1.803,2.704c-0.665,1.119-1.424,2.145-2.088,3.262c-0.854,1.491-0.759,2.423,0.854,3.542
			c1.234,0.838,2.562,1.025,3.985,1.491c2.467,0.746,6.072-0.932,7.211-2.982c0.285-0.467,0.475-1.026,0.664-1.492
			c0.19,0.932-0.379,2.517-1.233,3.356c-0.76,0.746,4.282,0.261,3.238,0.446c-1.233,0.188-0.582,1.507-1.721,1.786
			c5.164,0.421-11.265,2.064-12.593,2.25c-0.664,0.094,0.414-1.451-0.25-1.639c-0.854-0.279,15.228-1.87,14.564-1.778
			c1.044,0.28-15.384,2.103-14.245,2.382c0.569,0.188,1.233,0.188,1.897,0.094c1.708-0.373,3.321-0.839,5.029-1.305
			c1.708-0.467,3.32-0.932,4.934-1.491c2.087-0.839,3.795-2.051,4.839-4.194c0.949-2.051,1.139-4.196,1.044-6.339
			c-0.095-1.771-0.569-3.356-1.044-5.033c-0.664-1.958-1.613-3.729-3.036-5.313c-0.095-0.093-0.19-0.28-0.474-0.56
			c0.379,0.187,0.569,0.187,0.759,0.28c1.328,0.839,2.277,1.958,3.131,3.17c0.19,0.279,0.285,0.559,0.474,0.838
			c0.095,0.093,0.19,0.187,0.19,0.187c0.095-0.094,0.19-0.187,0.19-0.28c0.379-0.839,0.854-1.771,1.233-2.61
			c0.094,0,0.19,0.094,0.19,0.094c-0.096,0.373-0.19,0.746-0.285,1.025c-0.38,1.211-0.664,2.517-0.475,3.821
			c0.095,0.746,0.475,1.398,0.569,2.051c0.19,1.025,0.475,1.958,0.569,2.983c0.095,1.398,0,2.796,0,4.194
			c1.138-0.932,2.467-1.771,4.27-1.678c-1.708,0.746-3.131,1.678-4.175,2.983c-1.328,1.678-1.803,3.821-3.131,5.5
			c0,0.094,0.095,0.094,0.095,0.187c0.379,0,0.759,0.093,1.043,0c1.519-0.28,3.036-0.56,4.555-1.025
			c1.613-0.466,3.131-1.305,4.459-2.33c1.044-0.839,2.088-1.678,2.942-2.61c0.474-0.466,0.759-1.119,1.044-1.678
			c0.474-1.305,0.759-2.61,0.664-4.009c-0.095-0.838-0.19-1.771-0.379-2.702c0.949,1.771,1.139,3.542,1.044,5.406
			c0.095,0,0.095,0,0.189,0c0.189-0.279,0.379-0.559,0.474-0.838c0.19-0.281,0.379-0.56,0.57-0.932
			c0.379-1.025,0.854-2.145,1.043-3.17c0.285-1.491,0.19-2.889-0.189-4.38c-0.285-1.119-0.664-2.145-1.328-2.983
			c-0.759-1.025-1.897-1.678-3.036-2.331c-0.19-0.093-0.38-0.186-0.474-0.279c0-0.094,0-0.094,0-0.187
			c0.664,0.187,1.328,0.187,1.897,0.466c0.949,0.373,1.898,0.746,2.467,1.584c0.664,0.932,1.328,1.864,1.802,2.89
			c0.475,0.839,0.854,1.864,1.044,2.797c0.19,1.118,0.285,2.331,0.285,3.542c0,1.491-0.569,2.889-1.613,4.101
			c0,0.093,0,0.187,0,0.187c-0.285,0.186-0.475,0.373-0.759,0.559c-0.475,0.186-1.044,0.28-1.519,0.559
			c-0.475,0.28-0.949,0.652-1.423,1.025l0,0c-0.095,0-0.285,0-0.379,0c0.189-0.465-1.139,2.431-0.949,1.964
			c-0.475,0.56,0.76-2.243,0.38-1.684c-0.285,0.466-0.664,0.932-0.949,1.491l0,0c-0.475,0.374-0.949,0.84-1.423,1.213
			c-1.044,0.838-2.183,1.77-3.227,2.61c-1.423,1.025-2.751,2.051-4.27,2.981c-0.949,0.653-2.088,1.119-3.132,1.585
			c-0.759,0.373-1.613,0.653-2.467,0.932c-0.379,0.095-0.759,0.187-1.138,0.187c1.897,0.561,4.365,3.729,4.175,6.153
			c-1.233-3.076-3.226-5.128-6.642-6.06c1.233,2.051,1.329,3.916-0.189,5.779c0.095-0.653,0.284-1.306,0.379-1.863
			c0.19-1.865-0.665-3.171-2.183-4.196c-0.474-0.278-1.139-0.278-1.708-0.466c-0.949-0.279-1.803-0.558-2.751-0.745
			c-1.233-0.28-2.372-0.652-3.606-0.652c-1.233,0-2.562,0.188-3.795,0.466c-0.854,0.187-1.708,0.466-2.562,0.839
			c-0.949,0.466-1.993,0.933-2.847,1.584c-1.423,1.12-2.562,2.424-3.321,4.01c-0.664,1.397-1.044,2.888-1.423,4.381
			c-0.474,1.957-0.285,4.008-0.379,5.965c0,1.212,0.379,2.424,0.664,3.635c0.284,1.025,0.759,1.958,1.423,2.797
			c0.949,1.119,2.277,1.865,3.606,2.33c1.993,0.745,4.08,1.397,6.072,2.236c1.234,0.468,2.373,1.12,3.511,1.678
			c1.328,0.653,2.657,1.307,3.89,2.052c1.993,1.117,3.891,2.61,5.313,4.475c0.95,1.212,1.519,2.517,1.993,3.914
			c0.475,1.493,0.57,3.076,0,4.662c-0.379,1.305-1.043,2.423-2.087,3.261c-1.613,1.398-3.226,2.796-4.839,4.103
			c-1.329,1.118-2.467,2.33-3.036,3.914c-0.665,1.678-0.57,3.822,0.949,4.941c0.569,0.373,1.139,0.746,1.897,0.278
			c0.095,0,0.19,0,0.285,0c-0.379,0.652-1.043,0.839-1.708,0.746c-1.139-0.094-1.898-0.839-2.372-1.677
			c-0.854-1.771-0.57-3.449,0.095-5.221c0.949-2.423,2.751-4.289,4.459-6.245c0.854-0.932,1.803-1.865,2.467-2.891
			c0.949-1.397,1.139-2.981,0.759-4.567c-0.285-1.583-1.044-2.981-2.277-4.007c-1.992-1.585-4.08-3.171-6.452-4.196
			c-0.474-0.186-1.044-0.278-1.613-0.558c-0.379-0.188-0.759-0.561-1.044-0.84c-0.19-0.186-0.474-0.373-0.759-0.466
			c0.569,0.56,1.044,1.118,1.613,1.678c1.329,1.306,2.657,2.609,3.606,4.288c0.759,1.305,1.328,2.703,1.612,4.194
			c0.285,1.398,0.475,2.796,0.285,4.289c-0.19,1.21-0.474,2.328-0.949,3.354c-0.664,1.493-1.613,2.797-2.657,4.01
			c-1.328,1.491-2.656,2.982-3.416,4.847c-0.569,1.305-0.665,2.609-0.285,4.008c0.57,2.145,1.993,3.543,3.985,4.474
			c0.19,0.095,0.38,0.188,0.57,0.373c-1.234,0.095-2.088-0.373-2.941-0.931c-1.424-0.746-2.467-1.959-2.847-3.542
			c-0.285-1.12-0.285-2.424-0.095-3.543c0.285-1.957,1.423-3.542,2.373-5.221c0.759-1.398,1.613-2.702,2.277-4.102
			c0.664-1.304,1.044-2.796,1.139-4.287c0.19-2.517-0.665-4.66-1.993-6.711c-0.474-0.746-1.044-1.49-1.328-2.424
			c-0.475-1.678-1.803-2.796-3.321-3.636c-1.898-1.025-3.986-1.677-6.167-2.144c-0.095,0-0.38,0-0.38,0.093
			c-0.095,0.188-0.095,0.374-0.095,0.467c0.475,1.956,1.803,3.449,3.226,4.847c1.328,1.307,2.752,2.517,3.795,4.103
			c0.949,1.49,1.803,2.981,2.277,4.659c0.474,1.491,0.664,3.077,0.474,4.755c-0.379,3.354-2.277,5.593-4.934,7.456
			c-1.708,1.212-3.796,1.771-5.788,2.517c-0.949,0.373-1.519-0.186-2.467-0.372c1.613-0.653,3.036-1.212,4.459-1.864
			c1.139-0.56,2.277-1.305,3.321-1.958c1.139-0.745,1.992-1.863,2.562-3.076c0.664-1.491,1.043-2.981,0.664-4.66
			c-0.285-1.211-0.569-2.424-1.139-3.635c-0.854-1.585-1.993-2.983-3.131-4.288c-0.759-0.839-1.708-1.491-2.562-2.144
			c-0.095,0-0.095,0-0.19,0.093c0,0.187,0,0.373,0,0.56c0.095,2.517-0.475,4.939-1.329,7.271c-0.284,0.745-0.569,1.49-0.854,2.236
			c-0.095,0.373-0.38,0.373-0.569,0.279c-0.665-0.279-1.423-0.558-2.183-0.838c0.189-0.467,0.475-1.024,0.569-1.585
			c0.38-1.211,0.664-2.424,1.139-3.634c0.38-1.213,0.285-2.519,0.38-3.823c0.095-1.584-0.475-2.982-1.234-4.381
			c-0.285-0.466-0.665-1.025-0.949-1.491c-0.095-0.094-0.285-0.187-0.569-0.467c0.19,1.025,0.19,1.865,0.379,2.61
			c0.474,1.864,0.759,3.729,0.474,5.686c-0.189,1.12-0.759,2.238-1.138,3.264c0,0.093-1.993,2.608-2.182,2.796
			c2.087-4.475,1.72-7.587,0.167-11.837c0,0.279-0.832-1.771-0.736-1.679c0.759,1.212,1.613,2.424,2.277,3.729
			c0.379,0.652,0.569,1.398,0.664,2.144c0.19,1.584,0.095,3.169-0.569,4.754c-0.665,1.678-1.708,3.075-3.226,4.101
			c-0.949,0.652-1.897,1.118-2.942,1.586c-1.123,0.366-5.788,0.942-4.27,0.419c-0.474-0.467,1.233-0.472,0.949-1.03
			c0-0.093-0.369-0.412-0.464-0.507c0.19-0.092,1.318-0.653,1.413-0.747c2.467-0.466,4.555-1.677,5.978-3.728
			c0.759-1.025,1.139-2.238,1.139-3.543c0.095-2.05-0.284-4.008-1.139-5.872c-0.474-1.119-0.854-2.145-1.329-3.263
			c-0.094-0.186,0-0.372,0-0.745c-0.189,0.187-0.379,0.187-0.379,0.373c-0.189,0.56-0.379,1.212-0.665,1.771
			c-0.284,0.745-0.569,1.49-0.949,2.237c-0.189,0.56-0.474,1.118-0.569,1.677c-0.19,0.933-0.38,1.865-0.474,2.798
			c-0.096,2.144,0.664,4.007,2.087,5.685c0.095,0.094,1.138,0.903,1.233,1.091c-0.664,0.373-1.435,1.222-2.289,1.688
			c-0.569-0.746-2.076-2.778-2.645-3.522c-1.329-1.865-1.708-4.009-1.519-6.246c0.095-1.118,0.475-2.33,0.665-3.448
			c0.095-0.746,0.19-1.491,0.284-2.145c-0.094,0-0.094-0.094-0.189-0.094c-0.19,0.188-0.475,0.373-0.57,0.652
			c-0.664,1.306-1.613,2.425-1.803,3.916c-0.095,0.745-0.095,1.398-0.095,2.144c-0.095,2.424,0.474,4.754,1.423,6.991
			c1.044,2.703,2.562,5.127,4.174,7.551c0.475,0.652,1.139,1.304,1.708,1.957c-0.38,0.372-0.854,0.744-1.329,1.117
			c-0.095,0.095-0.474,0-0.569-0.092c-1.708-1.491-3.131-3.17-4.27-5.033c-1.044-1.678-2.087-3.542-2.657-5.407
			c-0.475-1.584-0.949-3.262-1.329-4.94c-0.095-0.187,0-0.465,0-0.745c0-0.839,0-1.585,0-2.61c-0.664,0.467-1.233,0.839-1.802,1.305
			c-1.613,1.398-2.941,3.076-3.985,4.94c-0.854,1.678-1.613,3.448-1.518,5.499c0.189,2.425,3.438,6.197,5.335,7.688
			c0.474,0.372-0.25-0.225-0.25,0.335c-0.095,0.372,0,0.877,0,1.25c-1.993-1.306-5.181-3.588-6.224-5.731
			c-0.949-1.956-1.139-4.007-0.854-6.15c0.285-1.678,0.854-3.17,1.519-4.662c1.043-2.144,2.752-3.914,4.554-5.499
			c1.233-1.025,2.277-2.236,3.037-3.635c0.189-0.467,0.379-1.025,0.474-1.491c0.095-0.467-0.095-0.652-0.569-0.467
			c-2.087,1.118-4.27,2.237-5.503,4.288c-0.474,0.839-0.665,1.771-0.949,2.703c-0.19,0.652,0.269,2.992,0.079,3.645
			c-0.189,0.561-0.09,0.642-0.375,1.202c-0.379,0.651-0.868,2.271-1.438,2.923c-0.19-0.932-1.113-4.135-1.303-5.066
			c-0.095-0.933-0.095-1.958-0.285-2.981c-0.475,0.744-1.139,1.49-1.519,2.329c-0.474,1.025-0.948,2.05-1.233,3.075
			c-0.189,0.934-0.284,1.864-0.189,2.797c0.095,1.118,0.38,2.331,0.854,3.356c0.379,1.118,1.043,2.144,1.613,3.261
			c0.759,1.399,1.613,2.704,2.372,4.103c0.38,0.745,0.854,1.491,1.044,2.236c0.189,0.84,0.189,1.772,0.189,2.61
			c0,1.678-0.664,3.076-1.897,4.194c-0.949,0.839-1.992,1.398-3.226,1.679c-0.19,0.093-0.474,0-0.759,0
			c0.569-0.373,1.139-0.745,1.708-1.118c1.329-0.934,2.183-2.144,2.657-3.729c0.664-2.517-0.285-4.474-1.708-6.338
			c-1.233-1.678-2.562-3.169-3.7-4.941c-0.854-1.304-1.423-2.796-1.708-4.287c-0.379-1.771-0.095-3.449,0.19-5.127
			c0.379-1.864,1.328-3.542,2.562-4.939c1.613-1.771,3.511-3.076,5.599-4.288c1.708-0.932,3.321-1.865,4.934-2.891
			c1.328-1.583,2.182-2.796,2.466-4.287l0,0c0.19-0.28,0.38-0.652,0.475-0.933c0.474-1.025,1.044-2.144,1.423-3.169
			c0.57-1.304,1.044-2.701,1.044-4.194c0-1.584,0-3.169-0.095-4.753c-0.19-1.306-0.57-2.61-0.854-4.009
			c-0.284-1.211-0.854-2.236-1.518-3.262c-1.043-1.398-2.277-2.611-3.89-3.543c-1.233-0.746-2.467-1.212-3.795-1.398
			c-1.044-0.187-2.087-0.559-3.131-0.559c-1.233,0-2.467,0.28-3.701,0.466c-0.759,0.093-1.518,0.373-2.182,0.561
			c-0.949,0.185-1.803,0.371-2.752,0.652c-1.233,0.373-1.803,1.304-2.183,2.423c-0.475,1.119-0.189,2.329,0.095,3.449
			c-1.328-1.772-1.234-3.637-0.095-5.594c-3.416,0.932-5.503,3.076-6.736,6.151c0.19-2.608,1.518-4.566,3.795-5.965
			c-1.139-0.187-2.087-0.373-3.131-0.465c-1.233,0-2.182-0.561-3.321-0.84c-1.044-0.373-2.183-0.746-3.226-0.839
			c-1.898-0.187-3.416,0.745-4.46,2.236c-0.379,0.561-0.664,1.213-0.948,1.771c-0.095-0.653,0-1.398,0.474-2.145
			c0.379-0.652,0.854-1.21,1.234-1.863c-2.941,0.839-5.219,2.424-6.737,5.127c-1.518,2.797-1.328,5.498,0.19,8.389
			c-1.898-0.932-3.416-3.355-2.467-8.482c-0.474,0.372-0.854,0.652-1.233,1.024c-1.423,1.398-2.467,3.077-3.036,4.94
			c-0.475,1.586-0.759,3.264-0.665,4.848c0.095,0.839,0.284,1.678,0.475,2.517l0,0c-0.285,0.654,0.284,1.119,0.379,1.678
			c0.095,0.56,0.379,1.12,0.664,1.772c-0.853-0.468-1.423-1.12-1.802-1.865c-0.949-1.678-1.518-3.542-1.518-5.5
			c0-1.398,0-2.889,0.379-4.287c0.379-1.306,0.949-2.517,1.613-3.635c1.139-2.051,2.656-3.729,4.459-5.22
			c1.328-1.12,2.657-2.051,4.27-2.704c1.423-0.652,2.847-1.118,4.27-1.678c-2.277-2.797-5.124-2.051-7.686-0.373
			c0.095-0.466,0.38-0.839,1.898-1.678c0.759-0.373,1.708-0.559,2.562-0.838c-1.233-0.933-2.562-1.492-3.985-1.958
			c-2.277-0.56-3.89,0.465-5.503,1.678c-1.044,0.745-1.803,1.771-2.277,2.982c-0.095,0.187-0.19,0.28-0.38,0.56
			c0.38-2.424,1.613-4.102,3.605-5.407c0-0.094-0.094-0.186-0.094-0.186c-1.234,0.279-2.562,0.466-3.701,0.932
			c-2.182,0.932-3.985,2.33-5.503,4.101c-1.233,1.585-1.993,3.355-2.467,5.22c-0.38,1.678-0.38,3.355-0.285,5.034
			c0,1.025,0.379,1.957,0.664,2.889c0.569,2.331,2.087,4.195,3.131,6.339c0.189,0.466,0.284,0.746,0,1.212
			c-0.379,0.466-0.759,1.025-1.044,1.398c-1.423-2.145-2.751-4.194-4.174-6.339c-0.38,1.491-1.234,3.169-2.277,3.822
			c0.284-0.653,0.569-1.212,0.759-1.771c0.664-1.678,0.949-3.355,0.38-5.033c-0.285-0.839-0.285-1.771-0.475-2.704
			c-0.285-2.144-0.095-4.287,0.379-6.338c0.095-0.466,0.284-0.838,0.379-1.398c-1.613,1.678-2.846,3.729-3.985,5.686
			c0.379-2.144,1.423-4.008,2.656-5.871c-0.854,0-1.708,0.092-2.467,0.092v-0.092c0.664-0.188,1.423-0.467,2.087-0.652
			c0.285-0.094,0.569-0.094,0.759-0.28c1.139-0.745,2.277-1.492,3.036-2.61c0.664-0.839,1.139-1.865,1.993-2.61
			c0.949-0.933,2.087-1.771,3.321-2.518c0.949-0.559,1.993-1.025,3.036-1.397c0.76-0.279,1.519-0.466,2.373-0.466
			c1.328-0.094,2.656-0.186,3.985-0.28c0.379,0,0.759,0.094,1.139,0.094c-1.993-4.754-2.183-9.602-1.139-14.542
			c0,0.187,0.095-0.839,0.095-0.652l0.095,1.212c0-0.373-0.095-0.839-0.095-1.212c0.095-0.932,0.665-1.584,1.518-2.05
			c1.139-0.653,2.183-1.398,3.227-2.051c-1.139,2.331-1.708,4.753-1.898,7.271c0.854-0.839,1.518-1.771,2.467-2.331
			c0.854-0.652,1.898-1.211,3.226-1.119c-3.89,1.771-5.124,4.94-5.313,8.762c-0.095,2.237,1.519,6.152,2.657,6.805
			c-0.19-1.865-0.095-3.729,0.854-5.5c0,0.653,0,1.305-0.095,1.865c-0.19,1.397-0.095,2.703,0.38,4.007
			c0.379,0.933,0.569,1.958,1.233,2.61c1.803,1.958,3.985,3.542,6.642,4.568c1.897,0.652,3.701,1.212,5.788,1.212
			c0.095,0,0.19,0,0.475,0c-0.189-0.28-0.284-0.56-0.475-0.84c-0.569-1.211-1.138-2.423-1.897-3.635
			c-0.949-1.584-2.183-2.796-3.89-3.542c-0.284-0.093-0.57-0.279-0.949-0.559c1.708,0,3.036,0.839,4.365,1.958
			c0-0.466-0.095-0.838-0.095-1.212c0-1.211-0.095-2.33,0-3.542c0.095-1.024,0.38-2.05,0.569-2.982
			c0.095-0.466,0.19-0.839,0.379-1.212c0.57-1.305,0-2.61-0.189-3.821c-0.095-0.559-0.285-1.026-0.474-1.678
			c0.854,0.932,1.328,1.864,1.708,3.169c0.285-0.465,0.569-0.838,0.759-1.211c0.664-1.119,1.423-2.05,2.467-2.796
			c0.475-0.373,0.949-0.559,1.613-0.746c-0.38,0.466-0.665,0.932-1.044,1.305c-1.138,1.398-1.897,2.889-2.562,4.474
			c-0.949,2.424-1.233,5.034-1.043,7.551c0.095,2.796,1.139,5.313,3.605,6.991c1.139,0.745,2.373,1.397,3.701,1.584
			c0.189,0,0.379,0.186,0.664,0.186c-1.518-1.211-2.656-2.517-2.562-4.474c0.854,2.517,2.657,3.728,5.219,4.38
			c1.708,0.467,3.131-0.279,4.744-0.745c0.949-0.28,1.803-0.746,2.467-1.492c0.759-0.932,0.854-1.677,0.19-2.61
			c-0.569-0.838-1.043-1.677-1.613-2.517c-0.759-1.119-1.423-2.331-2.182-3.448c-1.139-1.492-2.657-2.331-4.649-2.61
			c-1.138-0.188-2.182-0.094-3.321,0.186c-0.474,0.094-1.044,0.373-1.519,0.559c0.57-0.838,1.424-1.118,2.183-1.491
			c0.948-0.373,1.897-0.28,2.846-0.28c0.949,0.093,1.898,0.186,2.751,0.28c-0.19-0.746-0.285-1.491-0.569-2.237
			c-0.57-1.398-1.044-2.889-1.708-4.194c-0.569-1.119-1.233-2.237-1.992-3.356c-1.234-1.771-2.941-3.262-4.839-4.288
			c-1.139-0.559-2.373-1.118-3.511-1.678c-0.285-0.093-0.569-0.186-0.854-0.279c0.759-1.119,1.803-1.865,2.941-2.704
			c0.095-0.093,0.19-0.093,0.285,0c1.897,0.839,3.795,1.491,5.598,2.517c1.613,0.932,2.942,2.237,4.365,3.354
			c0.095,0.094,0.285,0.188,0.38,0.373c0.284-0.559,0.474-1.211,0.759-1.678c0.664-1.305,1.233-2.703,1.993-4.007
			c1.139-1.958,2.372-3.822,3.985-5.5c1.139-1.212,2.467-2.331,3.701-3.449c0.095-0.093,0.285-0.187,0.475-0.093
			c0.948,0.279,1.897,0.652,2.941,1.025c-2.467,2.144-4.649,4.474-6.262,7.177c-1.613,2.703-3.619,5.38-3.904,8.642
			c-0.925,4.101-3.758,5.255-0.532,0.781c-3.226,3.635,1.305-7.745,0.735-3.084c-0.664,4.753,0.189,9.321,2.087,13.608
			c0.095,0,0.095,0,0.189,0c0.095-0.093,0.095-0.279,0.19-0.373c0.19-1.397,0.379-2.796,0.665-4.194
			c0.379-1.397,1.043-2.702,1.328-4.101c0.19-1.026,0.19-2.145,0.095-3.169c0-0.933-0.285-1.865-0.379-2.797
			c0.949,1.026,1.139,2.331,1.328,3.542c1.044-1.491,2.183-2.983,3.226-4.567c0.19-0.279,0.475-0.279,0.665-0.092
			c0.664,0.651,1.423,1.397,2.087,2.144c0.095,0.093,0.095,0.466,0,0.652c-1.328,1.491-2.277,3.169-3.226,4.94
			c-0.854,1.771-1.424,3.542-1.708,5.5c-0.285,1.678-0.19,3.356-0.285,5.033c0,0.094,0.095,0.187,0.095,0.373
			c0.854-2.05,2.087-3.821,3.701-5.22c0.095,0,0.095,0.093,0.189,0.093c-0.284,0.466-0.664,0.932-0.854,1.398
			c-0.664,1.305-1.423,2.517-1.992,3.915c-0.854,2.237-0.189,4.287,1.043,6.246c0.759,1.211,1.613,2.237,2.847,2.982
			c0.854,0.466,1.708,1.025,2.751,1.025c0.569,0,0.759-0.186,0.949-0.746c0.474-1.118,0.285-2.33,0.379-3.448
			c0-1.118-0.475-2.144-0.949-3.077c-0.379-0.745-0.854-1.397-1.328-2.05c1.423,0.279,3.131,3.262,3.416,6.152
			c0.095-0.466,0.284-0.652,0.284-0.932c0.38-1.865,0.57-3.821,0.475-5.78c-0.095-1.677-0.285-3.262-0.475-4.939
			c-0.095-1.119-0.284-2.238-0.474-3.356c-0.475-2.144-1.233-4.288-2.467-6.152c-1.803-2.797-3.985-5.034-6.832-6.805
			c-1.043-0.652-1.993-1.305-3.037-1.958c0.665-0.839,1.329-1.771,2.088-2.703c0.189-0.28,0.284-0.28,0.569-0.093
			c1.708,1.211,3.605,2.237,5.219,3.542c1.519,1.212,2.941,2.609,4.365,3.915c0.664,0.653,1.139,1.492,1.803,2.145
			c0.095,0.093,0.19,0.186,0.38,0.373c0.095-1.678,0.379-3.169,1.612-4.381c-0.664,1.398-0.759,2.982-0.664,4.473
			c0,1.212,0.569,2.238,1.139,3.263c0.189,0.28,0.474,0.56,0.854,0.093c0.38-0.559,0.854-1.025,1.139-1.584
			c1.613-2.517,3.51-4.847,5.693-6.898c1.233-1.118,2.657-2.05,4.08-3.076"/>
		<path d="M160.348,77.152c0.379-0.187,2.277-2.145,2.657-2.238c0.759-0.279,1.518-0.745,2.467-0.372 M163.319,74.083
			 M164.902,74.076C164.902,74.263,164.902,74.169,164.902,74.076c0.285-0.187,0.475-0.373,0.759-0.559
			c0.284-0.279,0.759-0.652,0.949-1.025c-1.224-11.441-0.75-9.391-1.224-11.441c-0.19-0.653,0.285,0.652,0,0
			c-0.379-1.025,0.939,1.747,0.371,0.815c-0.285-0.466-0.475-0.933-0.475-1.492c-0.095-1.864-0.569-3.728-1.328-5.406
			c-0.475-1.119-0.949-2.237-1.519-3.356c-0.569-1.118-1.233-2.237-1.992-3.262c-0.76-1.212-1.613-2.423-2.563-3.542
			c-0.759-0.932-1.708-1.865-2.656-2.704c-1.803-1.771-3.89-3.355-6.167-4.567c-1.613-0.838-3.227-1.491-5.029-1.957
			s-3.7-1.025-5.313-2.144c-1.328-0.933-2.277-2.05-2.751-3.449c-0.285-0.746-0.475-1.492-0.569-2.237
			c0.19,0.28,0.475,0.559,0.665,0.839c0.854,1.398,1.708,2.703,3.226,3.449c0.854,0.373,1.708,0.746,2.656,1.025
			c1.329,0.373,2.657,0.653,3.985,1.026c0.475,0.093,0.949,0.279,1.613,0.466c-0.759-1.212-1.613-2.331-1.708-3.822
			c1.044,1.678,2.183,3.263,3.796,4.382c0.854,0.652,1.897,1.025,2.846,1.584c1.708,0.932,3.416,2.05,4.839,3.355
			c0.475,0.466,0.949,0.839,1.423,1.305c-0.474-1.678-1.043-3.355-1.043-5.22c0.948,2.61,1.992,5.22,3.51,7.644
			c0.475-1.771,1.043-3.355,2.467-4.753c0,0.279,0,0.559-0.095,0.652c-0.854,1.119-1.139,2.423-1.329,3.729
			c-0.095,0.746,0,1.491,0.095,2.144c0,0.187,0.189,0.373,0.379,0.559c0.38,0.56,0.76,1.212,1.139,1.771
			c0.095,0.187,0.38,0.373,0.57,0.466c1.708,0.466,3.511,0.746,5.313,0.187c1.139-0.373,2.277-0.746,3.321-1.026
			c-2.277,2.144-5.028,2.517-8.16,2.051c3.985,7.55,5.503,15.286,2.277,23.489c0,0,0.19,0.093,0.285,0.093
			c1.897-0.373,3.795-0.093,5.693,0.28c1.329,0.279,2.562,0.932,3.89,1.491c0.474,0.187,0.664,0.654,0.664,1.025
			c0.095,1.119,0.095,2.331,0.189,3.636c-1.992-1.771-4.27-2.703-6.831-2.983c0.759,0.746,1.613,1.398,2.277,2.237
			c0.664,0.839,1.043,1.865,1.139,2.983c-0.665-1.212-1.329-2.331-2.373-3.263c-0.949-0.745-1.993-1.305-3.227-1.771
			c-1.328-0.467-2.466-0.094-3.7,0.373c-1.043,0.372-1.992,0.932-2.941,1.584c-0.095,0-0.095,0.092-0.189,0.279
			c1.993,0.094,3.795,0.652,5.028,2.331c-1.328-0.746-2.562-1.305-4.08-1.305c-1.519,0-2.847,0.373-3.985,1.584
			c0.569,0.187,1.044,0.373,1.519,0.466c2.657,0.746,4.934,2.145,7.021,3.821c1.897,1.586,3.511,3.355,4.649,5.5
			c0.854,1.491,1.518,3.076,1.613,4.754c0.095,1.025,0.19,2.051,0.19,3.076c0,1.678-0.38,3.263-1.139,4.754
			c-0.475,0.932-1.139,1.865-2.277,2.518c1.613-2.891,1.992-5.967,1.518-9.042c-0.475-3.076-1.898-5.688-4.649-7.737
			c0.57,3.263,0.665,6.244-2.372,8.389c1.898-3.354,1.518-6.618-0.664-9.6c-1.423-1.959-3.321-3.169-5.788-3.729
			c1.233,1.025,1.708,2.424,1.708,4.103c-0.095-0.094-0.19-0.188-0.19-0.373c-0.379-1.679-1.518-2.891-3.131-3.542
			c-0.854-0.374-1.803-0.561-2.751-0.28c-0.759,0.28-1.613,0.372-2.467,0.559c-0.285,0.095-0.474,0.187-0.759,0.28
			c-1.423,0.279-2.847,0.652-4.27,0.932c0,0-0.095,0-0.095-0.092c2.087-0.561,3.985-1.679,5.788-2.891
			c0.57-0.373,1.277-1.117,1.846-1.49c0.189-0.092,0.336,0.186,0.621,0.186c1.423,0,2.941,0,4.365,0.373
			c1.328,0.279,2.562,0.652,3.795,1.211c1.139,0.561,2.087,1.491,2.562,2.703c0.284,0.653,0.664,1.306,0.949,2.052
			c0.095,0,0.095,0,0.19-0.093c-0.095-0.375-0.285-0.747-0.379-1.12c-0.475-1.304,1.37,2.609,0.231,1.771
			c-1.519-1.119-10.669-6.433-12.472-6.712c-1.139-0.186,6.641,1.692,5.408,1.6c-0.19,0-3.887-1.045-5.613,0
			c0-0.093,0.964-2.158,0.964-2.158c0.854-0.653-3.94,2.904-3.086,2.158c0.854-0.651,7.355-5.607,8.115-6.353
			c0.095-0.093,0.095-0.279,0.095-0.373l0,0c0.095,0,0.19-0.092,0.285-0.092"/>
		<path d="M77.609,120.962c0.095-0.094,0.095-0.28,0.095-0.466c0.38-0.28,0.665-0.467,1.044-0.746
			c1.613-1.678,3.511-2.796,5.693-3.636c1.138-0.372,2.277-0.653,3.51-1.025c1.613-0.465,3.227-0.838,4.839-1.398
			c1.423-0.465,2.846-1.025,4.27-1.583c-0.379,0.093-0.285-0.095-0.19-0.095"/>
		<path d="M81.551,117.699c0.474-0.187,5.029-2.61,5.504-2.796c1.423-0.561,2.846-1.213,4.364-1.771
			c1.519-0.559,3.037-0.932,4.555-1.492c1.897-0.652,3.795-1.398,5.313-2.702c-0.095,0.467-0.285,1.119-0.379,1.677l0,0
			c-0.19,0.373-0.474,0.652-0.664,1.025c-0.759,1.586-14.879,14.41-9.132,9.322c-1.898,1.025-0.072-1.211-1.875,0
			c-0.854,0.56,0.285-1.398-0.474-0.652c-0.095,0.093-1.522,1.518-1.712,1.425c0.759-0.839,2.851-3.01,3.61-3.85v-0.092
			c-0.569,0.187-1.233,0.279-1.708,0.559c-1.518,0.746-3.131,1.491-4.554,2.424c-1.423,0.839-2.847,1.771-3.7,3.169
			c-0.949,1.491-1.423,3.077-1.044,4.94c0.285,1.679,1.329,2.889,2.373,4.102c1.802,1.956,3.605,3.915,4.934,6.245
			c0.948,1.678,1.328,3.542,0.854,5.406c-0.284,1.212-1.518,2.33-2.751,2.423c-0.664,0.095-1.234-0.186-1.708-0.745
			c0.19,0,0.19,0,0.285,0c1.233,0.372,2.656-0.373,3.036-1.678c0.759-2.145,0.095-4.008-1.328-5.593
			c-1.139-1.305-2.467-2.33-3.701-3.542c-1.329-1.211-2.751-2.424-3.89-3.729c-0.949-1.025-1.233-2.423-1.329-3.727
			c0-0.934,0-1.771,0-2.797c-0.759,0.559-1.328,1.118-1.802,1.956c-0.759,1.493-1.044,2.984-0.665,4.567
			c0.285,1.493,1.044,2.703,2.277,3.637c1.138,0.932,2.372,1.678,3.511,2.517c1.897,1.49,2.752,3.261,2.182,5.592
			c-0.19,0.653-0.569,1.119-1.233,1.491c0.189-0.372,0.474-0.65,0.569-0.838c0.854-2.051-0.379-4.102-2.088-5.033
			c-1.423-0.747-2.846-1.493-4.269-2.331c-1.234-0.745-2.183-1.771-2.847-3.169c-0.759-1.492-0.854-3.169-0.664-4.754
			c0.285-1.958,1.043-3.729,2.277-5.22c1.803-2.237,4.175-3.822,6.642-5.313C80.697,118.165,81.077,117.885,81.551,117.699
			c-0.759,0.652-1.518,1.306-2.182,1.956C79.084,119.937,81.835,117.326,81.551,117.699"/>
		<path d="M34.817,66.246c1.138-0.093,2.182-0.186,3.321-0.373c1.518-0.28,2.941-0.932,3.89-2.144
			c0.475-0.559,0.665-1.398,1.139-2.051c0.949-1.584,1.993-3.076,3.131-4.567c0.854-1.118,1.897-1.958,2.846-2.983
			c0.095-0.092,0.19-0.279,0.38-0.465c-2.751,0.745-5.029,1.958-7.401,3.262c0.285-0.373,0.569-0.652,0.949-0.932
			c1.613-1.305,3.321-2.331,5.313-2.983c0.949-0.279,1.897-0.466,2.846-0.839c0.475-0.186,0.949-0.465,1.423-0.838
			c-1.802-0.466-3.511-0.932-4.744-2.423c0.189,0.093,0.474,0.279,0.664,0.372c1.043,0.28,2.182,0.56,3.226,0.84
			c0.949,0.279,1.992,0.373,2.941,0c0.664-0.187,1.233-0.56,1.897-0.84c1.423-0.466,2.847-1.025,4.27-1.398
			c2.562-0.746,5.124-1.118,7.781-1.118c0.095,0,0.284,0,0.284-0.093c-0.474-1.119-0.948-2.144-1.423-3.169c0,0,0.095,0,0.095-0.093
			c1.043,1.212,2.182,2.424,3.226,3.635c-0.475,0.559-1.044,1.212-1.613,1.865c-0.095,0.093-0.19,0.279-0.285,0.372
			c-0.474,0.56-0.853,0.933-1.708,0.84c-1.518-0.094-3.036,0.279-4.555,0.652c-2.846,0.653-5.313,2.05-7.686,3.542
			c-2.467,1.397-4.554,3.169-6.357,5.313c-1.423,1.678-2.751,3.543-3.605,5.593c-0.664,1.584-1.233,3.169-1.708,4.753
			c-0.285,0.933-0.285,2.051-0.475,3.077c-0.095,0.466-0.095,0.932-0.189,1.398c0,0.186-0.285,0.373-0.475,0.465
			c-0.664,0.467-1.329,0.933-1.993,1.305c-0.285,0.187-0.475,0.373-0.759,0.653c-0.189-3.729,0.475-7.271,1.613-10.72
			c-2.087,1.865-3.511,4.102-4.839,6.431c-0.19-0.931,1.518-4.287,2.941-5.965c-1.423-0.093-2.846-0.186-4.27-0.186
			C34.817,66.339,34.817,66.339,34.817,66.246z"/>
		<path d="M178.755,57.391c-2.277-1.491-4.744-2.703-7.401-3.355c0.665,0.652,1.233,1.305,1.898,1.958
			c1.897,2.05,3.511,4.38,4.649,6.896c0.759,1.678,2.087,2.61,3.89,3.077c1.329,0.279,2.657,0.465,3.985,0.838
			c-1.423,0.094-2.847,0.187-4.27,0.187c1.328,1.771,2.467,3.636,2.941,5.873c-1.423-2.331-2.847-4.567-4.934-6.339
			c0.095,0.279,0.095,0.56,0.19,0.839c0.379,1.211,0.759,2.517,1.044,3.728c0.189,0.932,0.379,1.958,0.379,2.983
			c0.095,1.771,0.19,3.542,0.095,5.313c-0.095,1.958-0.19,3.822-0.569,5.779c-0.19,1.305-0.759,2.517-1.233,3.729
			c-0.569,1.397-1.139,2.796-1.708,4.194c-0.569,1.49-0.759,2.982-0.759,4.566c0.095,1.306,0.38,2.61,0.949,3.729
			c0.095,0.28,0.095,0.56,0,0.839c-0.189,0.56-0.474,1.118-0.759,1.678c0,0-0.19,0-0.19-0.093c-0.949-1.398-1.708-2.89-1.992-4.567
			c-0.095-0.932-0.285-1.864-0.19-2.703c0.095-1.025,0.285-1.958,0.569-2.983c0.57-1.771,1.329-3.542,1.803-5.313
			c0.474-1.585,0.854-3.17,0.949-4.848c0-1.677,0.285-3.355,0.19-5.126c0-1.491-0.38-2.983-0.569-4.474
			c-0.095-0.559,0-1.026-0.19-1.584c-0.284-1.305-0.664-2.704-0.949-4.009c-0.474-1.864-1.329-3.542-2.277-5.22
			c-1.139-1.864-2.467-3.636-4.175-5.126c-0.474-0.466-0.948-0.839-1.518-1.211c-0.569-0.373-0.569-0.933-0.854-1.492
			c-0.474-1.118-0.758-2.237-1.233-3.356c-0.19-0.559-0.475-1.025-0.664-1.584c0.854,0.559,1.803,1.119,2.657,1.678
			c0.285,0.187,0.569,0.279,0.949,0.373c1.613,0.373,3.131,0.838,4.649,1.584C176.004,54.874,177.522,55.899,178.755,57.391z"/>
		<path d="M189.382,90.295c-1.043-2.238-2.562-4.195-4.365-5.965c0.095,0.278,0.095,0.465,0.19,0.744
			c0.474,1.398,0.76,2.797,0.665,4.194c-0.095,1.959,0,3.915-0.665,5.874c-0.379,1.024-0.284,2.236,0.19,3.355
			c0.379,0.932,0.665,1.863,1.044,2.796c-0.665-0.094-1.898-2.424-2.088-3.636c-0.095,0-0.189,0-0.285,0
			c-1.329,2.051-2.751,4.102-3.985,6.245c-0.474,0.839-0.569,1.864-0.949,2.797c-0.475,1.397-0.664,2.889-0.569,4.382
			c0.095,1.771,0.759,3.261,1.992,4.566c0.569,0.653,1.424,1.025,1.993,1.491c-2.088-0.28-3.511-1.491-4.555-3.449
			c-1.233-2.329-1.139-4.847-0.949-7.271c0.095-1.211,0.664-2.517,1.233-3.635c0.664-1.491,1.613-2.982,2.372-4.474
			c0.474-0.839,0.948-1.771,1.329-2.611c0.284-0.746,0.379-1.49,0.664-2.236c0.474-1.306,0.284-2.704,0.189-4.009
			c-0.095-1.118-0.474-2.236-0.569-3.355c-0.189-1.025-0.949-1.957-0.854-3.075c0.189-1.398,0.284-2.797,0.474-4.288
			c0.475,0.745,0.949,1.491,1.518,2.237c1.139,1.491,2.467,2.61,4.365,3.075c0.759,0.188,1.518,0.373,2.277,0.467
			c-0.095,0.279-1.993,0.372-3.321,0.093C188.149,86.286,188.813,88.244,189.382,90.295z"/>
		<path d="M71.821,34.646c1.424-1.025,2.372-2.516,3.416-4.101c-0.095,1.398-0.854,2.423-1.613,3.635
			c0.569-0.187,1.043-0.279,1.518-0.373c1.423-0.373,2.846-0.56,4.27-1.025c1.993-0.56,3.795-1.492,4.839-3.449
			c0.284-0.559,0.759-1.118,1.233-1.677c0.095,0.932-0.285,1.677-0.569,2.423c-0.57,1.118-1.234,2.237-2.373,2.89
			c-0.759,0.466-1.518,0.932-2.372,1.305c-1.233,0.466-2.562,0.746-3.796,1.212c-1.613,0.559-3.13,1.212-4.649,1.958
			c-2.941,1.585-5.408,3.635-7.686,6.059c-1.044,1.119-1.803,2.424-2.751,3.542c-0.19,0.28-0.57,0.466-0.854,0.559
			c-0.854,0.28-1.708,0.56-2.467,0.839c-0.57,0.187-1.044,0.467-1.803,0.746c0.475-0.652,0.759-1.305,1.139-1.864
			c0.379-0.652,0.949-1.212,1.139-1.864c0.379-1.584,0.189-3.262-0.474-4.754c-0.19-0.466-0.475-1.025-0.665-1.584
			c1.044,0.746,1.139,0.932,2.372,4.474c1.708-2.424,2.562-5.126,3.606-7.737c-0.19,0-0.095,0,0,0
			c-0.379,1.771-0.854,3.449-1.234,5.22c2.373-2.237,5.029-4.102,8.065-5.406c-0.474,0.279-0.949,0.559-1.423,0.932
			c-0.475,0.28,1.897-1.211,1.423-0.932"/>
		<path d="M91.652,43.129c-0.759,1.025-1.423,1.864-2.183,2.704c-0.189,0.279-0.379,0.279-0.759,0.186
			c-1.139-0.373-2.277-0.746-3.511-0.838c-1.423-0.094-2.847-0.094-4.175,0.093c-2.657,0.466-5.124,1.398-7.306,3.076
			c-2.087,1.584-3.701,3.542-5.029,5.779c-0.569,1.025-1.233,2.051-1.708,3.077c-0.475,1.118-0.854,2.33-1.329,3.542
			c-0.475,1.491-0.665,2.983-0.57,4.661c-0.759-1.958-0.759-3.916-0.474-5.873c0.189-1.119,0.569-2.237,0.949-3.262
			c0.474-1.678,1.423-3.263,2.372-4.754c1.043-1.491,2.087-2.89,3.511-4.194c1.518-1.398,3.226-2.61,5.124-3.449
			c1.234-0.56,2.657-0.933,3.985-1.212c1.423-0.28,2.847-0.373,4.27-0.373c1.803,0,3.605,0.093,5.313,0.746
			c0.284,0.093,0.664,0.093,0.949,0.093C91.272,43.036,91.368,43.129,91.652,43.129z"/>
		<path d="M107.118,36.604c1.044,0.56,2.182,1.119,3.226,1.678c0,0.093-0.095,0.187-0.095,0.187
			c-0.569-0.187-1.233-0.373-1.803-0.56c-0.664-0.186-1.234-0.28-1.897-0.373c-0.854,0-1.803-0.187-2.563,0.187
			c-1.043,0.465-1.897,0-2.751-0.374c-0.475-0.186-0.949-0.373-1.613-0.559c0.854-0.373,1.519-0.746,2.277-1.025
			c1.424-0.466,2.941-1.025,4.46-1.398c0.854-0.279,1.803-0.373,2.657-0.559c1.708-0.373,3.416-0.653,5.029-1.119
			c0.285-0.093,0.569-0.373,0.759-0.653c1.518-1.677,1.329-4.567-1.233-5.406c-1.139-0.373-1.993-0.094-2.941,0.373
			c1.044-1.211,2.847-1.398,4.175-0.652c1.518,0.932,2.751,2.703,1.423,5.593c0.949-0.187,1.803-0.466,2.372-1.212
			c1.329-1.677,1.803-3.542,1.423-5.592c-0.095-0.56-0.38-1.119-0.569-1.678c0.854,0.466,1.328,2.331,1.423,3.262
			c0.095,1.305-0.379,2.424-0.854,3.729c1.423-0.746,2.657-1.584,3.7-2.517c1.044-0.932,1.993-1.958,2.562-3.263
			c-0.19,1.305-0.474,2.61-1.233,3.729c-1.139,1.678-2.657,2.89-4.364,3.915c-1.803,1.119-3.796,1.678-5.788,2.237
			c-1.234,0.373-2.467,0.652-3.701,0.932c-0.948,0.187-1.993,0.373-2.941,0.559C107.973,36.325,107.593,36.511,107.118,36.604z"/>
		<path d="M93.455,35.579c-0.664-0.839-1.424-1.771-2.087-2.61c0,0,0.095,0,0.095-0.094c1.708,1.212,3.511,2.424,5.313,3.449
			c0.665,0.373,1.519,0.466,2.277,0.746c1.519,0.559,2.941,1.212,4.365,1.771c1.518,0.652,3.036,1.305,4.459,1.957
			c0.664,0.28,1.234,0.653,1.803,0.932c-0.949,0.652-1.803,1.211-2.751,1.771c-0.19,0.093-0.475,0.093-0.665,0
			c-1.328-0.652-2.751-1.398-4.08-2.05c-1.234-0.56-2.563-1.119-3.89-1.678c-1.329-0.56-2.657-1.119-3.986-1.398
			c-1.043-0.279-2.182,0-3.226,0.373c-0.379,0.187-0.759,0.373-1.139,0.466l-0.095-0.093c0.569-0.466,1.233-0.933,1.897-1.492
			c-1.139-0.28-2.182-0.559-3.321-0.373c-1.708,0.279-2.941,1.212-4.27,2.144c-1.423,1.026-3.036,1.305-4.649,0.839
			c-0.948-0.28-1.708-0.932-1.993-1.865c0.475,0.28,0.95,0.56,1.519,0.839c1.518,0.746,2.751,0.373,4.08-0.559
			c1.423-1.119,2.847-2.144,4.555-2.796c0.854-0.279,1.802-0.373,2.656-0.466c0.949-0.093,1.897,0,2.941,0
			C93.265,35.579,93.36,35.579,93.455,35.579L93.455,35.579z"/>
		<path d="M136.007,117.208c0.569,0.373,1.233,0.651,1.803,1.024c1.518,0.933,2.941,1.865,4.459,2.797
			c2.372,1.585,4.365,3.542,5.598,6.059c0.759,1.586,1.138,3.263,0.854,5.033c-0.19,1.399-0.569,2.703-1.423,3.821
			c-0.759,1.025-1.708,1.772-2.846,2.424c-1.329,0.747-2.751,1.306-3.985,2.051c-1.329,0.747-2.088,2.052-1.993,3.544
			c0,0.558,0.38,1.025,0.57,1.583c0,0.094,0,0.187,0,0.28c-0.665-0.28-0.949-0.838-1.044-1.306c-0.474-2.05,0.19-4.008,1.993-5.313
			c1.423-1.025,2.941-2.051,4.27-3.262c1.233-1.12,1.802-2.519,1.897-4.196c0-1.676-0.285-3.448-1.518-4.566
			c-1.139-1.025-1.423-2.424-2.088-3.728c-0.948-1.679-2.087-3.077-3.605-4.289C137.999,118.606,136.956,117.954,136.007,117.208
			L136.007,117.208z"/>
		<path d="M42.502,80.134c-0.095,0.373-0.19,0.839-0.19,1.212c-0.094,1.585,0.095,3.075,0.475,4.566
			c0.285,0.933,0.475,1.865,0.759,2.797c0.38,1.213,0.854,2.423,1.329,3.636c0.759,2.236,1.139,4.475,0.569,6.804
			c-0.759,3.076-2.372,5.593-4.934,7.551c-1.139,0.84-2.562,1.305-4.08,1.213c-0.379,0-0.854-0.188-1.328-0.373
			c1.803-0.28,3.321-1.12,4.364-2.331c1.044-1.025,1.898-2.237,2.752-3.449c0.475-0.745,0.759-1.678,1.044-2.61
			c0.189-0.559,0.284-1.118,0.284-1.677c0-1.025-0.095-2.051-0.189-2.983c-0.285-2.144-1.423-4.009-2.182-5.965
			c-0.57-1.586-1.234-3.169-1.329-4.849c0-0.465,0.285-0.931,0.569-1.396c0.569-0.746,1.328-1.493,1.992-2.238
			C42.408,80.134,42.502,80.134,42.502,80.134z"/>
		<path d="M101.805,48.349c1.139-0.932,2.182-1.958,3.321-2.796c1.803-1.305,3.7-2.61,5.693-3.729
			c1.708-0.932,3.511-1.678,5.313-2.517c0.474-0.187,0.949-0.373,1.518-0.56c0.19-0.093,0.379,0,0.475,0
			c0.854,0.56,1.708,1.119,2.751,1.771c-0.664,0.28-1.139,0.466-1.613,0.652c-1.234,0.56-2.562,1.026-3.795,1.585
			c-1.328,0.652-2.562,1.305-3.891,1.957c-2.466,1.398-4.554,3.077-6.452,5.127c-0.095,0.187-0.285,0.373-0.379,0.466
			s-0.285,0.093-0.379,0.093C103.513,49.84,102.659,49.095,101.805,48.349z"/>
		<path d="M129.036,43.315c3.321-1.118,6.832-1.398,10.342-0.933c3.416,0.56,6.547,2.051,9.204,4.475
			c-0.664,0.187-1.329,0.28-1.803,0.56c-0.949,0.466-1.708-0.187-2.467-0.466c-1.329-0.56-2.563-1.025-3.985-1.398
			c-1.423-0.373-2.941-0.373-4.459-0.373c-1.423,0-2.847,0.373-4.175,0.932c-0.475,0.186-0.569-0.093-0.759-0.373
			C130.365,45.086,129.796,44.248,129.036,43.315z"/>
		<path d="M36.146,117.14c2.751,0.56,4.364-0.932,5.882-2.797c0.38,2.331-0.474,4.475-2.657,5.407
			c-1.518,0.652-3.036,0.652-4.649,0.187c-1.329-0.373-2.373-1.025-3.511-1.679c-0.094,0-0.094-0.093-0.189-0.278
			c1.518-0.28,2.466-1.306,3.225-2.331c1.519-2.05,3.606-2.889,6.168-2.704C39.561,114.996,38.043,116.302,36.146,117.14z"/>
		<path d="M177.522,113.505c1.613,3.263,4.08,4.194,6.357,3.728c-2.466-0.746-3.985-2.236-4.839-4.659
			c0.854,0.092,1.613,0.092,2.373,0.187c1.992,0.278,3.131,1.491,4.269,2.982c0.475,0.652,1.139,1.117,1.803,1.584
			c0.285,0.187,0.759,0.187,1.139,0.28v0.187c-1.233,0.652-2.372,1.397-3.606,1.771c-2.087,0.56-4.174,0.56-5.978-1.025
			c-0.949-0.839-1.423-1.771-1.518-2.982C177.522,114.996,177.522,114.343,177.522,113.505z"/>
		<path d="M158.545,47.696c1.044,0,1.519,0.746,1.993,1.584c0.664,1.119,1.328,2.331,2.087,3.542
			c-1.518-0.559-2.846-1.211-4.269-1.584c-2.277-0.652-4.65-0.838-7.021-0.559c-1.803,0.187-3.606,0.652-5.219,1.491
			c-1.803,0.839-3.321,1.865-4.744,3.077c-0.57,0.465-1.139,1.025-1.708,1.584l0,0c0.19-0.373,0.475-0.838,0.665-1.211
			c1.139-1.678,2.562-2.983,4.27-4.009s3.511-1.958,5.504-2.331c1.518-0.279,2.941-0.652,4.459-0.839
			c0.949-0.093,1.993-0.093,3.036-0.093c0.285,0,0.475,0,0.76,0C158.64,48.163,158.83,48.069,158.545,47.696L158.545,47.696z"/>
		<path d="M110.154,20.292c0.38,1.398-0.095,2.33-1.233,3.262c-1.043,0.933-2.277,1.678-3.131,2.704
			c-1.139,1.305-1.518,2.983-0.949,4.66c0.475,1.305,1.613,1.771,2.942,1.865c0.854,0.093,1.708,0.093,2.656,0.187
			c0,0.093,0,0.093,0,0.186c-0.379,0.093-0.664,0.093-1.043,0.187c-1.613,0.373-3.226,0.746-4.839,1.025
			c-0.285,0.093-0.664,0-0.949-0.093c-1.423-0.653-2.941-1.305-4.27-2.144c-1.139-0.746-2.277-1.584-3.131-2.704
			c-0.854-1.119-1.329-2.33-1.708-3.635c-0.095-0.28,0-0.56,0-0.839c2.087,3.822,5.503,5.686,9.678,7.084
			c-0.095-0.279-0.19-0.559-0.285-0.746c-0.569-1.211-0.569-2.516,0-3.729c0.854-1.864,0.19-4.008-1.233-5.406
			c-0.38-0.373-0.665-0.652-1.044-0.933c1.233-0.093,2.657,1.398,3.51,4.009c1.139-0.746,2.373-1.491,3.511-2.237
			C109.585,22.436,110.154,21.504,110.154,20.292z"/>
		<path d="M126.57,37.816c0.854-0.559,1.708-1.118,2.751-1.305c0.665-0.093,1.329-0.187,1.993-0.373c0.285,0,0.664-0.187,0.949-0.28
			c1.233,0.093,2.372,0.56,3.321,1.212c1.233,0.839,2.372,1.678,3.511,2.517c1.043,0.746,2.751,0.653,3.795,0
			c0.38-0.187,0.665-0.466,1.044-0.745c-0.284,1.118-1.233,1.864-2.372,2.05c-0.665,0.093-1.329,0.093-1.898,0
			c-1.233-0.187-2.182-0.839-3.131-1.584c-1.423-1.119-3.036-1.864-4.839-1.771c-0.949,0-1.803,0-2.752,0c0,0.093,0,0.093,0,0.187
			c0.665,0.465,1.233,0.932,1.898,1.491c0,0.094-0.095,0.094-0.095,0.187c-0.095,0-0.189,0-0.285,0
			c-1.233-0.746-2.657-1.025-4.175-0.932c-0.474,0-0.854,0.373-1.233,0.466c-0.19,0.094-0.379,0-0.474-0.093
			c-0.665-0.467-1.329-1.026-1.993-1.492c-0.094-0.093-0.189-0.186-0.284-0.279c0.095-0.093,0.284-0.186,0.379-0.186
			c1.803-0.56,3.511-1.212,4.839-2.517c0.569-0.559,1.043-1.305,1.518-1.958c0.095,0.746,0.095,0.746-1.518,3.076
			c1.518,0.187,3.131,0.279,4.744,0.373"/>
		<path d="M48.669,103.064c0-0.744-0.094-1.584-0.094-2.423c1.803,0.466,3.131,1.491,3.7,3.169c0.285,0.745,0.19,1.679,0.19,2.517
			c-0.095,1.306-0.569,2.61,0.095,4.009c-0.759-0.188-1.519-0.373-2.182-0.561c-1.518-0.465-2.847-1.117-3.795-2.33
			c-0.949-1.118-1.139-2.517-0.949-3.914c0.094-0.746,0.379-1.398,0.664-2.145c0.569,2.424,1.708,4.381,4.08,5.779
			C49.808,105.768,49.239,104.464,48.669,103.064L48.669,103.064z"/>
		<path d="M171.924,100.828c-0.285,2.423-0.949,4.474-1.993,6.524c1.328,0,3.321-2.703,4.08-5.5
			c1.423,2.797,0.949,5.688-2.087,7.364c-1.234,0.652-2.563,1.119-4.081,1.305c0.379-1.49,0.095-2.981-0.095-4.475
			c-0.189-1.397,0.76-3.541,2.373-4.38C170.69,101.387,171.26,101.107,171.924,100.828z"/>
		<path d="M83.113,97.192c-2.467-0.279-4.46-1.025-5.788-3.075c-0.95-1.398-1.044-2.797-0.665-4.382
			c0.095-0.373,0.379-0.746,0.665-1.211c-0.38,1.863,0.284,3.354,1.708,4.567c0.095,0.092,0.284,0.185,0.57,0.279
			c-1.044-1.958-1.519-3.729-0.286-5.687c0.854,0.467,1.803,0.932,2.657,1.397c0.665,0.373,0.949,1.12,0.854,1.866
			c-0.095,0.745-0.189,1.491-0.189,2.235C82.543,94.489,82.259,95.888,83.113,97.192z"/>
		<path d="M72.771,98.496c-1.044-0.558-1.993-1.397-2.752-2.517c-0.854-1.397-1.139-2.888-0.664-4.379
			c0.38-1.306,1.139-2.332,2.467-2.797c0.475-0.188,0.949-0.374,1.329-0.56c-0.475,1.024-1.138,1.958-1.423,2.983
			c-0.285,1.025-0.285,2.144-0.285,3.262c0.759-1.863,1.423-3.821,2.941-5.313c0.379,0.652,0.759,1.211,1.043,1.863
			c0.475,1.118,0.19,2.236-0.474,3.262c-0.379,0.652-0.949,1.213-1.233,1.865C73.435,96.913,73.15,97.658,72.771,98.496z"/>
		<path d="M139.378,97.565c0.475-1.586-0.189-2.891-0.758-4.289c-0.38-0.837-0.665-1.676-0.475-2.608
			c0.189-0.839,0.854-1.491,1.613-2.052c0.189-0.092,0.379-0.279,0.569-0.372c1.044-0.56,1.044-0.466,1.518,0.56
			c0.379,1.025,0.475,2.05,0.095,3.075c-0.19,0.561-0.474,1.119-0.664,1.678c0.664-0.186,1.803-1.398,2.087-2.236
			c0.285-1.025,0.475-2.052-0.095-3.169c1.328,1.211,2.087,3.076,1.233,5.313C143.649,95.422,140.897,97.565,139.378,97.565z"/>
		<path d="M38.707,69.415c0.095,0.28,0.19,0.653,0.19,0.933c0.285,1.211,0.285,2.423-0.095,3.635
			c-0.475,1.211-1.233,2.33-2.562,2.89c-0.569,0.28-1.233,0.466-1.803,0.745c-0.379,0.186-0.759,0.559-1.139,0.839
			c-0.095,0.093-0.189,0.093-0.379,0.28c-0.19-1.212-0.38-2.237-0.475-3.263c-0.095-2.331,0.569-4.475,2.752-5.78
			c0.569-0.372,1.139-0.559,1.897-0.745c-0.758,1.678-1.518,3.355-1.518,5.313c0.949-1.585,1.898-3.17,2.847-4.754
			C38.517,69.415,38.613,69.415,38.707,69.415z"/>
		<path d="M181.887,69.415c1.043,1.771,1.992,3.356,3.037,4.94c0.094,0,0.094,0,0.189,0c-0.095-0.652-0.189-1.211-0.379-1.864
			s-0.38-1.212-0.665-1.864c-0.284-0.654-0.569-1.213-0.854-1.958c1.233,0.373,2.277,0.745,3.131,1.584
			c1.613,1.678,2.087,3.634,1.708,5.873c-0.095,0.838-0.285,1.584-0.475,2.61c-0.854-1.212-2.182-1.492-3.226-2.051
			c-1.233-0.652-2.087-1.584-2.466-2.797C181.223,72.491,181.317,71.093,181.887,69.415z"/>
		<path d="M148.962,98.218c-0.38-0.652-0.665-1.397-1.139-1.957c-0.57-0.746-1.234-1.307-1.898-2.051
			c-1.329-1.491-1.138-2.609-0.474-4.195c0.095-0.279,0.189-0.56,0.379-0.838c1.803,1.398,2.467,3.542,3.321,5.593
			c0.285-2.424-0.379-4.567-2.088-6.525c1.708,0.186,2.942,0.745,3.89,2.144c0.95,1.306,1.044,2.796,0.665,4.287
			c-0.379,1.399-1.233,2.518-2.277,3.449C149.152,98.124,149.057,98.218,148.962,98.218z"/>
		<path d="M28.649,68.203c0.379-1.211,0.759-2.423,1.613-3.448c1.234-1.584,2.751-1.958,4.555-1.771
			c1.613,0.187,2.657,1.305,3.89,2.424c-1.803,0.186-3.51,0.373-5.219,0.559c1.519,0.746,3.131,1.025,4.744,0.932
			c0,0.093,0,0.093,0.095,0.187c-0.948,0.559-1.803,1.304-2.751,1.677c-0.664,0.281-1.518,0.187-2.182,0
			c-0.854-0.186-1.708-0.559-2.657-0.745C29.978,67.924,29.313,68.11,28.649,68.203z"/>
		<path d="M191.755,68.389c-0.759,0-1.519-0.092-2.277,0c-0.664,0.094-1.234,0.373-1.803,0.56c-0.38,0.094-0.854,0.279-1.329,0.279
			c-1.233,0.094-2.277-0.466-3.226-1.119c-0.285-0.186-0.569-0.465-0.949-0.745c1.803,0.092,3.416-0.187,5.124-0.933
			c-1.897-0.186-3.7-0.372-5.503-0.559c2.183-2.423,3.701-2.89,6.263-2.331C189.667,63.822,191.565,66.525,191.755,68.389z"/>
		<path d="M33.583,86.754c0.189,0.558,0.379,1.024,0.569,1.49c0.759,2.144-0.474,4.754-2.182,5.779
			c-0.948,0.559-1.708,1.304-2.751,2.051c-0.285-1.492-0.664-2.891-0.949-4.381c-0.285-1.679,1.043-4.103,2.562-4.755
			c0.475-0.185,0.949-0.373,1.424-0.652c-0.285,0.84-0.665,1.678-0.854,2.424c-0.19,0.84-0.379,1.678-0.569,2.518
			c0.095,0,0.095,0,0.19,0C31.781,89.735,32.635,88.337,33.583,86.754z"/>
		<path d="M190.236,92.158c-0.284-1.583-0.569-3.076-1.233-4.567c-0.095-0.185,0-0.372,0-0.559c0.189,0,0.284,0,0.474,0.094
			c1.043,0.28,1.803,1.118,2.467,1.863c0.569,0.652,0.664,1.586,0.759,2.424c0.095,1.118-0.095,2.237-0.379,3.262
			c-0.19,0.652-0.38,1.305-0.665,2.051c-0.379-0.373-0.759-0.746-1.139-1.025c-0.569-0.465-1.233-0.838-1.803-1.304
			c-1.139-0.933-1.803-2.051-1.992-3.448c-0.19-1.213,0.189-2.145,0.664-3.357c0.949,1.678,1.802,3.169,2.752,4.755
			C190.142,92.158,190.142,92.158,190.236,92.158z"/>
		<path d="M62.238,57.205c-1.043-0.373-2.087-0.28-3.036,0.186c-0.949,0.466-1.803,1.025-2.657,1.492
			c0.285-1.584,0.948-3.356,3.036-4.102c0.759-0.279,1.518-0.559,2.372-0.652c0.949-0.186,1.613-0.652,2.277-1.491
			c0.095,1.118,0.285,2.237,0.285,3.263c-0.095,1.398-0.475,2.703-1.519,3.635c-1.139,1.118-2.466,1.305-3.985,1.118
			c-0.475-0.092-0.949-0.186-1.423-0.372C58.822,58.695,60.436,57.857,62.238,57.205z"/>
		<path d="M50.567,51.238c-0.854,0.094-1.613,0.28-2.467,0.28c-1.993-0.093-3.511-1.118-4.08-3.169
			c-0.38-1.305-0.475-2.61-0.475-3.729c1.233,0.093,2.372,0.279,3.606,0.373c1.423,0.187,2.562,0.746,3.226,1.958
			c0.475,0.839,0.664,1.771,1.043,2.796c-1.993-0.28-3.51-1.211-5.029-1.957c1.044,1.491,2.467,2.61,4.27,3.262
			C50.663,51.145,50.663,51.238,50.567,51.238z"/>
		<path d="M76.187,23.927c0.474,0.652,0.949,1.212,1.328,1.865c0.664,1.211,1.044,2.516,0.854,3.914
			c-0.095,1.398-0.854,2.424-1.993,3.077c-0.569,0.373-1.328,0.559-1.992,0.746c0.665-1.305,1.233-2.61,1.233-4.288
			c-0.854,1.305-1.708,2.423-2.562,3.635c-0.854-1.491-1.328-3.542-0.095-5.033c0.38-0.466,0.949-0.839,1.424-1.305
			c0.569-0.56,1.043-1.025,1.518-1.584C76.091,24.766,76.091,24.393,76.187,23.927z"/>
		<path d="M144.882,24.114c0.095,1.305,0.948,1.958,1.708,2.61c0.569,0.466,1.234,1.025,1.708,1.678
			c0.569,0.839,0.759,1.864,0.38,2.89c-0.19,0.56-0.38,1.119-0.665,1.864c-0.474-0.653-0.949-1.211-1.328-1.771
			c-0.38-0.56-0.759-1.212-1.233-1.865c0,1.491,0.379,2.796,1.233,4.008c-0.949,0.093-2.657-0.839-3.321-1.771
			c-0.759-1.211-0.854-2.517-0.475-3.915C143.174,26.537,143.933,25.419,144.882,24.114z"/>
		<path d="M175.245,88.524c-0.095-1.025-0.758-1.865-1.328-2.611c-0.664-0.839-1.518-1.583-2.182-2.517
			c-0.949-1.305-0.949-2.702-0.285-4.101c0.095-0.186,0.095-0.28,0.19-0.467c0.854,0.56,1.423,1.398,1.897,2.237
			c0.475,0.84,0.854,1.772,1.234,2.704c0.285-1.957-0.095-3.448-1.518-5.406c1.518,0.373,2.751,1.025,3.416,2.331
			c0.854,1.585,0.854,3.169,0.095,4.847c-0.38,0.932-0.854,1.771-1.233,2.703C175.435,88.337,175.339,88.43,175.245,88.524z"/>
		<path d="M59.202,71.839c0.19-1.865,0.379-3.729,0.569-5.687c-1.328,1.492-1.802,3.356-1.897,5.313
			c-3.226-3.636-0.569-8.295,3.131-9.881c-0.285,1.585,0.569,2.983,0.949,4.381c0.19,0.746,0.19,1.584,0,2.331
			c-0.284,1.397-1.139,2.423-2.183,3.356c-0.095,0.092-0.189,0.092-0.284,0.186C59.297,71.932,59.297,71.839,59.202,71.839z"/>
		<path d="M46.108,88.244c-0.949-1.398-1.897-2.797-2.277-4.475c-0.38-2.144,0.189-3.821,1.992-4.94
			c0.569-0.372,1.139-0.652,1.803-0.838c-1.329,1.584-1.898,3.449-1.708,5.593c0.854-1.771,1.519-3.636,3.132-4.847
			c1.233,1.584,1.043,3.355-0.095,4.847c-0.759,1.024-1.518,2.05-2.182,3.075C46.488,87.126,46.298,87.685,46.108,88.244z"/>
		<path d="M97.061,67.365c-0.095-0.56-0.19-1.119-0.285-1.584c-0.284-1.585,0.569-2.704,1.708-3.635
			c0.759-0.654,1.518-1.213,2.277-1.864c0.57-0.466,0.949-1.119,1.139-1.865c0.19,0.466,0.475,0.932,0.569,1.398
			c0.19,1.118,0.475,2.144,0.569,3.262c0.095,1.678-0.095,3.263-1.613,4.288c-0.379,0.28-0.854,0.372-1.233,0.559
			c-0.57,0.186-1.233,0.186-1.993,0.373c0.854-1.398,1.708-2.704,2.562-4.009C99.148,64.941,98.199,66.06,97.061,67.365z"/>
		<path d="M159.779,61.772c3.701,1.771,6.262,5.685,3.226,9.787c-0.189-0.932-0.475-1.865-0.664-2.797
			c-0.19-0.932-0.854-1.771-1.423-2.517c0.189,0.932,0.379,1.958,0.474,2.89c0.095,0.932,0,1.958,0,2.89
			c-0.095,0-0.095,0.093-0.189,0.093c-0.569-0.652-1.233-1.305-1.708-2.051c-0.57-0.932-0.95-1.958-0.76-3.076
			c0.19-0.932,0.57-1.865,0.854-2.797C159.779,63.45,160.063,62.704,159.779,61.772z"/>
		<path d="M163.858,59.162c-1.613-1.212-3.51-1.678-5.692-1.678c1.613,1.025,3.321,1.584,4.554,2.983
			c-0.095,0.094-0.189,0.186-0.284,0.186c-1.992,0.466-4.175,0.279-5.598-1.584c-0.57-0.746-0.854-1.584-0.854-2.517
			c0-0.559,0-1.211,0-1.771c0-0.559,0.189-1.118,0.285-1.864c0.19,0.279,0.379,0.559,0.569,0.746
			c0.664,0.652,1.519,0.838,2.372,1.025c1.897,0.372,3.321,1.305,4.08,3.075c0.19,0.467,0.379,0.932,0.569,1.305
			C163.954,59.068,163.954,59.162,163.858,59.162z"/>
		<path d="M121.256,27.097c-0.759-2.89-1.139-3.542-2.752-4.567c0.854,1.677,1.613,3.355,1.139,5.406
			c-0.664-0.279-1.233-0.56-1.897-0.932c-1.613-0.932-2.087-2.331-1.897-4.008c0.095-1.212,0.379-2.517-0.285-3.822
			c0.664,0.187,1.233,0.187,1.803,0.466c1.044,0.467,2.088,0.839,2.941,1.492c1.423,1.025,2.087,2.61,1.613,4.381
			c-0.094,0.56-0.379,1.119-0.569,1.678C121.351,27.097,121.351,27.097,121.256,27.097z"/>
		<path d="M159.589,70.999c-0.569,2.238-1.328,4.288-3.7,5.22c-1.519,0.653-3.131,0.56-4.554-0.372
			c-0.095,0-0.095-0.093-0.095-0.187c1.138-1.305,2.751-1.864,4.269-2.703c-1.708-0.28-3.226,0.28-4.555,1.118
			c0.19-1.492,1.329-2.983,3.132-3.262c1.423-0.28,2.657,0.186,3.985,0.279C158.45,70.999,158.925,70.999,159.589,70.999z"/>
		<path d="M109.396,23.461c1.043-0.932,1.329-2.051,1.139-3.355c-0.095-0.467-0.38-0.933-0.664-1.398
			c0,1.771-0.285,3.448-2.087,4.474c-0.38-0.839-0.949-1.678-1.233-2.517c-0.285-0.839,0.095-1.585,0.474-2.331
			c0.475-0.746,0.854-1.491,1.328-2.237c0.38-0.652,0.285-1.305-0.189-2.05c1.233,0.373,2.182,0.932,2.941,1.864
			c1.234,1.399,1.803,3.077,1.234,4.94c-0.379,1.212-1.234,1.865-2.277,2.517c-0.189,0.094-0.379,0.187-0.664,0.28
			C109.49,23.461,109.49,23.461,109.396,23.461z"/>
		<path d="M183.405,60.747c-0.949-0.094-1.803-0.28-2.656-0.186c-2.183,0.092-3.891-0.84-5.029-2.61
			c-0.475-0.652-0.569-1.492-0.949-2.33c1.993,0.838,3.606,2.05,5.313,2.982c-1.044-1.677-2.562-2.982-4.27-4.101
			c0.664-0.186,1.234-0.373,1.803-0.465c1.613-0.094,2.847,0.652,3.796,1.77C182.74,57.111,183.215,58.882,183.405,60.747
			L183.405,60.747z"/>
		<path d="M70.113,74.076c-1.613-0.932-3.13-1.678-5.124-1.305c1.044,0.559,1.993,0.932,2.846,1.492
			c0.57,0.279,1.044,0.745,1.519,1.118c0.095,0.093,0,0.466-0.095,0.466c-1.138,0.651-2.372,0.745-3.7,0.465
			c-2.277-0.559-3.321-2.143-4.081-4.194c-0.095-0.186-0.189-0.373-0.189-0.559c-0.095-0.187,0-0.373-0.095-0.56
			c1.613-0.092,3.226-0.372,4.839-0.372c1.993,0,2.941,0.932,3.605,2.61C69.829,73.517,69.924,73.703,70.113,74.076z"/>
		<path d="M169.077,50.027c2.277-0.56,3.985-1.771,5.409-3.635c-1.898,1.025-3.701,1.864-5.883,2.144
			c0.474-2.703,2.467-4.381,5.313-4.102c1.518,0.187,2.277,0.187,3.036-0.187c-0.189,0.933-0.285,1.771-0.569,2.61
			c-0.284,1.212-0.854,2.238-1.897,2.983c-1.139,0.839-2.467,1.119-3.891,0.746C170.121,50.4,169.647,50.213,169.077,50.027z"/>
		<path d="M184.164,98.591c0.569,1.771,1.708,2.982,3.131,3.821c-0.759-1.678-1.708-3.263-1.992-5.126
			c1.328,0.187,2.467,0.465,3.416,1.305c0.854,0.839,1.234,1.864,1.518,2.982c0.285,1.12,0.095,2.237-0.189,3.355
			c-0.095,0.466-0.379,0.934-0.665,1.491c-0.569-1.304-1.803-1.678-2.846-2.236c-1.803-0.933-2.846-2.797-2.657-4.754
			C183.974,99.243,184.069,98.964,184.164,98.591z"/>
		<path d="M30.642,106.047c-2.087-4.101,0-9.041,4.459-8.761c-0.285,1.771-1.139,3.355-1.993,4.939
			c1.518-0.745,2.467-2.051,3.131-3.542c0.284,1.958-0.19,3.637-1.803,4.848c-0.474,0.372-0.949,0.652-1.518,0.838
			C32.065,104.556,31.211,105.116,30.642,106.047z"/>
		<path d="M85.864,26.537c-1.423,1.492-2.087,3.542-3.89,4.661c-0.19-0.466-0.38-0.932-0.474-1.305c-0.38-1.118,0-2.144,0.854-2.982
			c0.759-0.746,1.708-1.398,2.467-2.051c0.759-0.653,1.234-1.398,1.518-2.424c0.379,0.746,0.759,1.399,1.043,2.144
			c0.38,1.119,0.569,2.331,0.475,3.542c-0.095,2.517-1.518,3.915-3.891,4.475c-0.189,0-0.379,0.093-0.569,0.093
			C85.01,30.918,85.769,28.775,85.864,26.537z"/>
		<path d="M105.125,24.207c-0.949-2.143-2.562-3.448-5.028-3.542c0.854,0.652,1.612,1.212,2.372,1.864s1.233,1.491,1.233,2.517
			c-2.372,0.186-4.364-0.374-4.934-3.077c-0.285-1.211-0.285-2.517-1.423-3.449c1.613-0.187,3.037-0.28,4.554-0.093
			c1.329,0.186,3.037,1.584,3.416,2.796C105.6,21.783,105.505,22.995,105.125,24.207z"/>
		<path d="M171.544,85.82c-1.234-0.838-2.372-1.025-3.7-1.118c-1.993-0.094-3.795-0.745-4.649-2.703
			c-0.19-0.466-0.379-0.839-0.474-1.398c1.043-0.186,1.992,0.186,2.846,0.559c0.854,0.374,1.613,0.932,2.467,1.492
			c-0.286-1.492-2.373-3.17-4.271-3.449c1.139-0.465,2.088-0.838,3.227-0.465c2.183,0.652,3.226,2.237,3.89,4.195
			C171.07,83.77,171.26,84.702,171.544,85.82z"/>
		<path d="M56.071,98.87c-0.759-1.957-1.803-3.916-1.328-6.151c1.423,0.745,2.846,1.491,3.226,3.169c0.095,0.56,0,1.305,0,1.863
			c-0.095,0.84-0.19,1.771-0.19,2.61c0,0.467,0.285,0.933,0.379,1.491c-0.665-0.186-1.328-0.279-1.993-0.559
			c-1.328-0.466-2.467-1.119-3.416-2.145c-1.329-1.584-1.233-3.262-0.57-5.032c0.095-0.188,0.19-0.373,0.38-0.653
			c0.19,1.211,0.38,2.236,1.044,3.17C54.173,97.658,55.027,98.404,56.071,98.87z"/>
		<path d="M162.151,102.133c0.759-1.305,0.474-2.611,0.379-3.915c-0.095-0.745-0.095-1.492,0-2.238
			c0.095-1.025,0.949-1.678,1.708-2.235c0.475-0.28,0.949-0.561,1.519-0.934c0.474,2.425-0.665,4.382-1.519,6.339
			c0.664-0.093,2.183-1.211,2.562-1.957c0.474-0.932,0.854-2.05,1.234-2.982c0.379,0.839,0.664,1.864,0.569,2.889
			c-0.19,1.585-1.139,2.61-2.372,3.449C164.997,101.387,163.669,101.76,162.151,102.133z"/>
		<path d="M57.969,80.134c-0.19,1.678-1.044,2.797-2.373,3.542c-0.569,0.373-1.328,0.373-1.992,0.561
			c-1.044,0.279-2.087,0.651-3.226,0.932c-0.189,0.093-0.285,0.188-0.475,0.373c-0.095,0-0.095,0-0.189-0.094
			c0.094-0.652,0.189-1.398,0.284-2.051c0.285-1.584,0.854-2.982,1.993-4.101c1.139-1.119,2.466-1.399,3.985-1.119
			c0.379,0.093,0.759,0.187,1.139,0.373c-0.854,0.466-1.803,0.746-2.562,1.305c-0.759,0.56-1.423,1.305-1.613,2.331
			c1.328-0.933,2.751-1.678,4.364-2.051C57.494,80.134,57.779,80.134,57.969,80.134z"/>
		<path d="M159.115,39.028c-0.57-1.585-1.139-3.077-1.708-4.568c-0.379,1.678,0,3.356,0.38,5.127
			c-1.139-0.559-1.897-1.305-2.467-2.237c-0.759-1.398-0.569-2.703-0.095-4.194c0.474-1.491,1.329-2.703,2.562-3.822
			c-0.475,1.212,0.285,1.958,0.759,2.703c0.665,0.933,1.519,1.771,1.898,2.89c0.284,1.025,0.189,1.958-0.38,2.89
			C159.779,38.282,159.495,38.562,159.115,39.028z"/>
		<path d="M94.214,23.275c-0.19,1.771,0,3.356,0.759,4.94c-0.759,0.186-1.233-0.187-1.613-0.559
			c-1.803-1.492-1.992-3.636-1.329-5.593c0.38-1.026,0.854-1.958,1.614-2.704c0.379,1.025,1.233,1.771,2.087,2.331
			c1.423,0.932,2.372,2.33,2.087,4.287c-0.095,0.653-0.19,1.398-0.38,2.144C95.637,26.91,94.878,25.139,94.214,23.275z"/>
		<path d="M60.341,90.202c0.379-1.678,0.854-3.17,2.372-4.289c0.759,1.398,1.139,2.891,0.665,4.475
			c-0.285,1.025-1.043,1.771-1.803,2.423c-0.664,0.653-1.233,1.307-1.138,2.425c-1.898-1.679-2.752-3.635-2.562-5.967
			c0.095-1.397,1.708-3.355,2.941-3.728c-0.284,0.745-0.57,1.491-0.854,2.33C59.771,88.616,60.056,89.362,60.341,90.202z"/>
		<path d="M62.618,29.613c1.233,1.118,1.993,2.423,2.467,3.822c0.285,1.025,0.475,1.958,0.285,3.076
			c-0.285,1.212-1.044,2.144-2.087,2.796c-0.19,0.093-0.285,0.186-0.38,0.279c0.285-1.771,0.569-3.542,0.759-5.313
			c-0.094,0-0.189-0.093-0.284-0.093c-0.19,0.373-0.38,0.746-0.569,1.212c-0.19,0.466-0.285,0.932-0.474,1.305
			c-0.19,0.466-0.38,0.932-0.569,1.305c-0.19,0.466-0.285,0.839-0.569,1.491c-0.475-0.746-1.044-1.305-1.329-1.958
			c-0.379-0.838-0.379-1.771,0-2.61c0.475-0.932,1.139-1.771,1.803-2.703C62.333,31.478,62.903,30.731,62.618,29.613z"/>
		<path d="M159.779,85.82c1.233,0.652,2.087,1.679,2.467,2.983c0.285,0.932,0.19,1.956-0.095,2.89
			c-0.379,1.305-1.139,2.33-2.087,3.355c-0.095,0.094-0.19,0.094-0.38,0.187c0.19-1.025-0.284-1.679-0.949-2.331
			c-0.664-0.651-1.329-1.211-1.708-2.051c-0.474-0.839-0.474-1.771-0.285-2.702c0.189-0.84,0.475-1.586,0.759-2.423
			c1.898,1.025,2.372,2.796,2.847,4.659C161.012,88.71,160.728,87.219,159.779,85.82z"/>
		<path d="M53.888,34.554c1.424,0.187,3.037,0.56,4.27,1.677c1.708,1.585,2.183,3.449,1.234,5.687
			c-0.665-1.584-1.519-2.983-3.132-3.915c0.665,1.584,1.233,3.076,1.803,4.661c-0.095,0-0.095,0.093-0.19,0.093
			c-0.759-0.28-1.518-0.466-2.277-0.746c-0.664-0.28-1.043-0.932-1.328-1.584c-0.475-1.119-0.285-2.238-0.285-3.449
			C53.983,36.138,53.888,35.299,53.888,34.554z"/>
		<path d="M105.695,75.568c-0.854-2.331-2.183-4.102-4.555-4.848c1.423,1.678,2.752,3.263,3.131,5.5
			c-2.087,0.28-4.27-1.118-4.745-3.076c-0.094-0.56,0-1.119,0-1.771c0-0.838-0.094-1.678-0.759-2.423
			c0.285,0,0.475-0.093,0.759-0.093c1.233,0,2.562,0,3.796,0.466c0.949,0.372,1.708,1.025,2.182,2.05
			c0.569,1.119,0.569,2.237,0.379,3.45C105.695,75.008,105.695,75.194,105.695,75.568z"/>
		<path d="M164.238,38.188c-0.569,0.56-1.139,1.025-1.613,1.585c-0.474,0.56-0.854,1.211-1.233,1.958
			c-0.569-0.466-0.569-1.212-0.569-1.771c0-1.584,0.664-2.889,1.897-3.915c0.854-0.652,1.898-1.025,2.942-1.305
			c0.379-0.094,0.854-0.187,1.329-0.28c-0.569,1.398-0.38,2.704-0.38,4.009c0,1.398-0.285,2.703-1.708,3.449
			c-0.569,0.28-1.139,0.373-1.708,0.465c-0.379,0.094-0.379-0.279-0.285-0.559c0.189-0.56,0.474-1.119,0.664-1.678
			c0.284-0.653,0.569-1.212,0.854-1.864C164.333,38.282,164.238,38.188,164.238,38.188z"/>
		<path d="M138.43,31.104c-1.613-1.212-2.182-3.076-3.606-4.66c0.095,2.237,0.759,4.008,2.087,5.779
			c-0.949-0.187-1.613-0.373-2.277-0.838c-0.949-0.653-1.708-1.585-1.992-2.797c-0.19-0.746-0.19-1.678,0-2.424
			c0.19-1.025,0.664-1.958,1.043-2.889c0.095-0.28,0.285-0.466,0.474-0.839c0.19,1.399,1.139,2.144,2.088,2.89
			c0.759,0.559,1.423,1.119,2.087,1.771c0.664,0.746,0.664,1.771,0.379,2.703C138.62,30.266,138.525,30.731,138.43,31.104z"/>
		<path d="M128.087,35.206c0.949-1.212,1.519-2.517,1.044-4.102c-0.379,0.746-0.759,1.492-1.139,2.051
			c-0.285,0.373-0.664,0.746-0.948,1.119c-0.286,0.28-0.57,0.093-0.57-0.186c-0.475-2.051-0.285-3.542,1.708-4.94
			c0.948-0.653,1.897-1.491,2.751-2.331c0,0,0.095,0,0.19,0c0.759,1.398,1.139,2.889,1.139,4.381c0,1.771-0.759,3.169-2.562,3.822
			c-0.475,0.187-0.949,0.187-1.518,0.28C128.183,35.299,128.183,35.206,128.087,35.206z"/>
		<path d="M93.834,34.646c-1.139-1.211-2.182-2.33-3.321-3.542c0.474,1.492,1.233,2.797,2.277,3.915
			c-2.183,0.466-4.08-1.305-4.175-3.169c-0.095-0.933-0.095-1.864,0-2.796c0.095-0.746,0.474-1.492,0.664-2.144
			c1.233,0.746,2.372,1.584,3.511,2.331c1.423,0.932,2.087,2.517,1.708,4.101c-0.095,0.279-0.095,0.466-0.095,0.746
			c0,0.093-0.095,0.186-0.189,0.279C94.024,34.46,93.93,34.554,93.834,34.646z"/>
		<path d="M66.034,60.747c1.518,1.584,2.372,3.356,1.802,5.499c-0.189,0.653-0.569,1.211-0.853,1.864
			c-0.286,0.56-0.475,1.119-0.665,1.678c-5.409-2.423-4.365-6.617-2.087-9.135c-0.19,2.145,0.095,4.194,1.139,6.06
			C65.37,64.755,65.274,62.704,66.034,60.747z"/>
		<path d="M125.62,28.868c1.044-1.678,1.139-3.542,0.95-5.5c-0.38,0.933-0.664,1.865-1.234,2.704
			c-0.569,0.839-1.329,1.585-2.087,2.423c-0.759-1.864-0.759-3.262,0.19-4.66c0.474-0.653,1.233-1.212,1.897-1.771
			c0.57-0.466,1.139-0.933,1.613-1.492c0.095-0.093,0.189-0.279,0.189-0.466c0.095,0,0.19,0,0.19,0.093
			c0.854,1.398,1.518,2.89,1.518,4.474c0,1.771-1.139,3.449-2.941,4.102C125.906,28.775,125.716,28.775,125.62,28.868z"/>
		<path d="M138.24,67.83c1.044,0.094,1.993,0,3.037,0.28c0.949,0.187,1.803,0.652,2.751,1.025c-0.664-1.491-2.466-2.89-5.693-2.89
			c0.569-0.559,1.043-1.119,1.803-1.398c1.993-0.745,4.175,0.28,5.219,1.584c0.854,1.119,1.423,2.331,1.613,3.729
			c-1.043-0.373-2.087-0.373-3.13,0c-1.234,0.373-2.563,0.467-3.796-0.373c-0.665-0.559-1.329-1.118-1.993-1.678
			C138.24,67.924,138.24,67.83,138.24,67.83z"/>
		<path d="M116.038,72.771c0.854-2.143,2.182-3.635,3.7-5.126c-1.328,0-4.175,2.423-4.839,4.194
			c-0.285-0.373-0.475-1.584-0.285-2.237c0.285-1.119,0.759-2.051,1.708-2.797c0.854-0.652,1.898-0.932,2.942-1.024
			c0.759-0.093,1.613-0.093,2.372-0.093c-0.189,0.559-0.379,1.025-0.474,1.584c-0.095,0.465-0.285,0.932-0.285,1.491
			c-0.095,1.678-0.949,2.891-2.277,3.636C117.84,72.583,116.891,72.583,116.038,72.771z"/>
		<path d="M105.979,30.825c0.57-2.05,1.044-3.915,2.657-5.22c1.043-0.839,2.182-0.933,3.416-0.653
			c0.664,0.187,1.233,0.466,1.803,0.746c-2.087-0.279-3.511,0.653-4.459,2.61c0.19-0.093,0.38-0.093,0.475-0.187
			c0.664-0.746,1.613-1.118,2.562-1.211c0.57-0.093,1.233,0.093,1.708,0.559c-0.38,0.56-0.665,1.212-1.044,1.771
			c-0.569,0.839-1.423,1.305-2.467,1.211c-0.665,0-1.423-0.093-2.087-0.187C107.688,30.173,106.929,30.266,105.979,30.825z"/>
		<path d="M156.458,60.094c0.474,0.746,0.948,1.491,1.234,2.331c1.043,2.423,0.474,4.38-1.613,5.965
			c-0.57,0.467-1.234,0.839-1.993,1.212c0.095-1.305-0.759-2.051-1.139-3.076c-0.569-1.584-0.475-3.076,0.379-4.474
			c0.285-0.466,0.665-1.025,1.043-1.584c0.57,2.144,0.19,4.194,0.38,6.246c1.329-1.958,1.518-4.288,1.423-6.525
			C156.363,60.094,156.363,60.094,156.458,60.094z"/>
		<path d="M76.755,68.67c2.087-0.746,4.175-1.305,6.547-0.746c-0.759,0.559-1.424,1.211-2.277,1.678
			c-0.57,0.372-1.234,0.653-1.803,0.653c-0.664,0-1.329-0.281-1.993-0.467c-0.854-0.279-1.708-0.745-2.657-0.465
			c-0.19,0.092-0.475,0.186-0.664,0.279c-0.095,0-0.095-0.093-0.19-0.093c0.569-1.025,1.139-2.144,1.897-3.169
			c1.234-1.678,3.036-2.331,5.124-1.771c0.665,0.187,1.234,0.746,1.898,1.212c-1.234,0.279-2.373,0.372-3.416,0.745
			C78.084,66.898,77.325,67.737,76.755,68.67z"/>
		<path d="M38.422,59.721c0.19-1.491,0.569-2.983,1.518-4.288c1.139-1.491,2.657-2.331,4.555-2.05
			c0.379,0.093,0.759,0.28,1.139,0.372c-1.993,1.119-3.701,2.518-4.839,4.381c1.898-1.025,3.701-2.331,5.883-3.169
			c-0.38,0.838-0.665,1.584-1.044,2.237c-0.664,0.932-1.519,1.584-2.657,1.958c-1.043,0.373-2.182,0.373-3.226,0.373
			C39.276,59.535,38.802,59.627,38.422,59.721z"/>
		<path d="M142.51,75.008c-0.285,1.958-0.854,3.635-2.657,4.661c-0.38-1.119-0.569-2.237-0.285-3.356
			c0.285-1.305,1.043-2.237,1.898-3.169c0.664-0.652,1.423-1.305,2.087-1.865c0.379,1.212,0.949,2.424,1.138,3.729
			c0.38,2.331-0.189,4.008-2.562,5.22c-0.285,0.094-0.569,0.094-0.949,0.187C142.889,78.829,143.174,77.059,142.51,75.008z"/>
		<path d="M102.166,145.318c1.898-1.025,6.376-3.757,7.894-5.248c1.423-1.398,2.752-2.982,3.701-4.848
			c0.19-0.373,1.553-1.689,2.027-1.41c0.569,0.28,0.793,0.737,1.552,0.924c-0.475,0.652-1.492,2.071-1.967,2.63
			c-1.233,1.679-2.751,3.17-4.364,4.382c-1.329,1.025-5.503,3.235-6.927,4.076c-0.189,0.092,0-0.513-0.285-0.604
			C103.418,145.125,102.545,145.598,102.166,145.318z"/>
		<path d="M180.558,107.726c0.665,0.188,1.233,0.279,1.803,0.466c1.329,0.559,2.562,0.094,3.795-0.373
			c0.095,0,0.095-0.093,0.19-0.186c-0.095,0-0.19-0.093-0.284-0.093c-0.759-0.095-1.519-0.188-2.277-0.374
			c-0.949-0.278-1.803-0.931-2.467-1.771c1.518-1.025,3.606-0.839,5.029,0.28c0.759,0.561,1.423,1.118,2.183,1.585
			c0.379,0.28,0.949,0.373,1.518,0.559c-1.139,0.747-2.088,1.398-3.131,2.051c-0.474,0.279-1.138,0.467-1.708,0.467
			c-0.759,0-1.518,0-2.277-0.188C181.602,109.775,181.033,108.844,180.558,107.726z"/>
		<path d="M81.12,79.668c-0.949-0.466-1.613-1.211-2.087-2.051c-0.38-0.838-0.569-1.864-0.854-2.704
			c-0.853,1.492-0.569,3.543,1.139,5.313c-0.664,0.094-1.328-0.279-1.992-0.932c-1.234-1.305-1.519-2.89-1.044-4.568
			c0.284-1.025,0.664-2.051,0.949-2.983c0.095-0.186,0.095-0.373,0.095-0.559c1.043,1.118,2.182,2.144,3.13,3.263
			c0.949,1.211,1.234,2.704,0.854,4.194C81.215,78.923,81.12,79.296,81.12,79.668z"/>
		<path d="M30.262,107.445c1.329-0.093,2.183-0.839,2.941-1.583c1.043-1.026,2.277-1.679,3.795-1.586
			c0.759,0,1.423,0.373,2.277,0.56c-0.759,0.839-1.518,1.399-2.467,1.771c-0.854,0.373-1.898,0.466-2.751,0.746
			c1.328,0.839,3.416,1.118,5.598,0.188c-0.379,1.025-1.043,1.677-1.897,2.144c-2.087,0.838-3.89,0.279-5.598-0.934
			C31.496,108.378,30.927,107.913,30.262,107.445z"/>
		<path d="M115.752,76.592c-0.379-1.958,1.044-3.728,3.131-4.009c0.759-0.092,1.518-0.186,2.277-0.186
			c0.759,0,1.518,0.186,2.182,0.186c-0.379,0.56-0.854,1.213-1.138,1.771c-0.285,0.559-0.475,1.119-0.665,1.678
			c-0.474,1.398-1.233,2.331-2.941,2.237c-0.664,0-1.328,0-1.992,0c0.569-1.491,1.708-2.423,2.657-3.635
			C117.745,74.728,116.606,75.474,115.752,76.592z"/>
		<path d="M151.714,54.78c0.854,1.678,1.329,3.45,1.043,5.22c-0.19,1.305-0.949,2.331-2.182,2.983
			c-0.379,0.187-0.76,0.373-1.329,0.652c0.38-1.305,0.665-2.424,1.044-3.729c-1.044,0.654-1.613,1.678-2.183,2.518
			c-0.095,0-0.095,0-0.189,0c-0.095-0.746-0.285-1.398-0.285-2.145c-0.19-1.864,0.949-2.982,2.372-3.821
			C150.67,56.085,151.334,55.62,151.714,54.78z"/>
		<path d="M147.159,61.772c-0.664-0.653-1.233-1.398-1.897-1.958c-0.665-0.559-1.423-1.025-2.562-1.119
			c1.233,1.492,2.372,2.89,3.13,4.567c-2.182,0.187-4.08-1.025-4.839-2.889c-0.38-1.026-0.475-2.144-0.664-3.169
			c-0.095-0.373,0.095-0.559,0.569-0.559c0.949,0.092,1.897-0.094,2.657,0.186c1.138,0.373,2.372,1.025,2.847,2.331
			c0.379,0.838,0.569,1.678,0.854,2.61C147.349,61.772,147.254,61.772,147.159,61.772z"/>
		<path d="M121.826,115.834c0.948,0.28,1.897,0.561,2.751,0.934c1.139,0.559,2.277,1.117,3.32,1.771
			c1.613,1.117,2.373,2.703,2.373,4.661c0.095,1.584-1.016,5.467-1.68,7.051c-0.19-0.373-0.623-0.815-0.813-1.188
			c-0.285-0.466,0.347-0.271,0.063-0.737c-0.664-0.839-0.417-4.66-0.511-5.498c-0.095-1.307-0.57-2.425-1.329-3.543
			C125.146,117.885,123.249,116.768,121.826,115.834z"/>
		<path d="M80.456,56.738c-0.284,1.025-0.474,2.051-0.853,3.077c-0.57,1.678-1.614,2.796-3.416,3.169
			c-0.475,0.093-0.854,0.187-1.424,0.279c0.759-1.771,1.993-3.169,3.321-4.567c-0.759-0.186-1.423,0-2.657,0.932
			c-0.759,0.56-1.328,1.305-1.992,1.958C73.055,58.136,76.091,55.806,80.456,56.738z"/>
		<path d="M68.216,55.899c0.57,0.373,1.044,0.746,1.613,1.025c0.854,0.373,1.613,0.838,2.277,1.491
			c0.569,0.652,0.854,1.305,0.854,2.145c0,0.745,0.19,1.491-0.379,2.237c-0.474-1.119-1.044-2.145-2.087-2.891
			c-0.095,0-0.095,0-0.19,0.094c0.38,1.305,0.665,2.61,1.044,4.102c-1.234-0.373-2.183-0.932-2.847-1.865
			c-0.665-0.932-1.043-1.957-0.949-3.075C67.741,58.043,68.026,57.018,68.216,55.899z"/>
		<path d="M122.584,65.22c-0.949-0.093-1.992-0.186-2.846-0.373c-0.949-0.279-1.518-1.025-1.803-1.864
			c-0.285-0.746-0.475-1.584-0.759-2.331c-0.095-0.372-0.38-0.652-0.57-1.025c1.329-0.372,2.657-0.559,4.081-0.28
			c1.233,0.187,2.656,1.771,2.846,3.169c0.095,0.467,0.095,1.026,0.095,1.492c-1.329-1.305-2.752-2.331-4.745-2.797
			c1.329,1.305,2.562,2.518,3.795,3.635C122.679,64.941,122.584,65.127,122.584,65.22z"/>
		<path d="M126,128.325c0.19,0.373,0.38,0.747,0.57,1.119c0.094,0.278,0.284,0.559,0.284,0.838c0.095,0.373,0.19,0.653-0.284,0.934
			c-1.329,0.931-2.563,1.863-3.796,2.981c-0.948,0.933-1.613,2.051-1.803,3.356c-0.095,0.652-0.284,1.305-0.19,1.957
			c0,0.56,0.285,1.119,0.475,1.771c-0.379-0.095-0.664-0.467-0.949-0.839c-0.665-1.026-0.569-2.237-0.475-3.355
			c0.19-1.958,1.044-3.543,2.277-5.034c0.854-0.933,1.897-1.863,2.941-2.703C125.336,129.072,125.62,128.698,126,128.325z"/>
		<path d="M93.84,127.952c1.044,1.119,3.031,2.611,4.075,3.729c1.139,1.213,1.993,2.611,2.372,4.195
			c0.285,1.025,0.095,2.051,0.095,3.169c0,0.839-0.38,1.585-1.139,2.051c-0.095,0.092-0.19,0.092-0.38,0.092
			c1.139-2.423,0.475-4.567-1.043-6.523c-0.949-1.305-2.373-2.145-3.605-3.075c-0.19-0.188-1.59-0.465-1.875-0.651
			c-0.095-0.093,0.468-0.905,0.563-1C93.592,128.137,93.71,128.291,93.84,127.952C94.124,127.858,93.745,128.046,93.84,127.952z"/>
		<path d="M109.111,54.688c-0.286-1.678,0.379-3.17,0.948-4.848c-1.613,1.026-2.467,2.61-2.562,3.915
			c-0.569-0.465-0.759-2.05-0.664-2.61c0.379-1.305,1.233-2.144,2.182-3.076c0.284-0.279,0.474-0.746,0.759-1.118
			c0.949,0.279,2.277,2.33,2.277,4.008C112.052,53.103,110.819,54.315,109.111,54.688z"/>
		<path d="M110.819,45.833c0.854-0.466,1.518-0.933,2.372-1.398c0.569-0.28,0.949,0.187,1.328,0.466
			c1.423,1.026,2.752,2.144,4.08,3.169c0.095,0.093,0.19,0.466,0.095,0.466c-0.759,0.745-1.613,1.398-2.372,2.144
			C114.709,48.815,112.812,47.23,110.819,45.833z"/>
		<path d="M149.531,51.238c0.854-0.093,1.613-0.652,2.467-0.186c0.284,0.186,0.664,0.466,0.854,0.745
			c1.043,1.678,1.992,3.45,2.562,5.407c0.569,2.051,0.948,4.101,0.474,6.245c-0.19,0.745-0.38,1.491-0.664,2.331
			C155.604,60,153.706,55.153,149.531,51.238z"/>
		<path d="M120.062,136.938c-0.475-0.28-1.558-1.062-2.126-1.248c-1.139-0.467-2.372-0.932-3.605-1.305
			c-1.233-0.466-2.467-0.84-3.701-1.306c0.759-0.653,1.329-1.211,2.087-1.678c0.19-0.094,0.664,0.094,0.949,0.188
			c1.044,0.372,2.087,0.745,3.226,1.024c1.139,0.28,2.688,1.537,3.636,2.284c0.095,0.093,0.5,0.511,0.405,0.79
			C120.742,136.153,120.25,136.377,120.062,136.938z"/>
		<path d="M139.473,39.4c0.665-1.584,2.183-2.889,4.176-2.516c0.948,0.186,1.992,0,3.036,0c-0.19,1.958-0.949,3.729-2.941,4.567
			c-1.233,0.559-2.562,0.466-3.701-0.187c1.233,0.093,2.467-0.093,3.321-1.025c0.475-0.56,0.949-1.211,0.949-2.144
			C142.889,39.308,141.466,40.426,139.473,39.4z"/>
		<path d="M81.594,39.308c-1.708,0.373-3.13-0.279-4.459-1.584c-0.19,0.838,0.19,1.398,0.664,1.864
			c0.475,0.466,0.949,0.839,1.518,1.026c0.57,0.279,1.234,0.279,1.898,0.372c-0.949,0.56-1.898,0.56-2.941,0.467
			c-1.139-0.187-1.993-0.839-2.657-1.771c-0.664-1.025-0.854-2.144-0.949-3.449c1.044,0.56,1.993,0.373,2.941,0.187
			C79.507,36.231,81.405,37.629,81.594,39.308z"/>
		<path d="M41.459,106.7c0.569-0.653,1.139-1.211,1.708-1.864c0.095,0,0.095,0,0.19,0.093c0,1.025,0.189,2.051,0.094,3.076
			c-0.094,1.306-0.284,2.517-0.569,3.729c-0.379,1.583-1.233,3.074-2.657,4.1c-0.854,0.652-1.898,1.213-3.131,1.213
			C40.7,115.369,42.218,110.057,41.459,106.7z"/>
		<path d="M108.238,150.818c-0.379-1.119-1.138-1.956-1.992-2.702c-1.234-1.12-2.562-2.051-4.08-2.798
			c-0.759-0.372-1.613-0.559-2.372-0.932c-0.474-0.187-0.854-0.279-1.329-0.466c-0.664-0.279-0.759-0.466-0.664-1.864
			c0.759,0.279,1.519,0.56,2.277,0.933c1.519,0.652,3.036,1.397,4.459,2.144c1.613,0.839,1.522,0.462,2.566,1.766
			c0.379,0.468,1.324,2.429,1.324,2.895C108.428,150.166,108.333,150.445,108.238,150.818z"/>
		<path d="M127.708,52.264c-1.233,0.932-1.897,2.051-2.087,3.542c-0.949-0.746-1.139-2.703-0.569-3.821
			c0.665-1.118,0.854-1.491,2.846-2.704c0.286,0.746,0.57,1.585,0.854,2.331c0.854,1.864,0.569,3.077-0.949,4.382
			c-0.189,0.186-0.474,0.279-0.854,0.559C127.139,55.06,127.423,53.663,127.708,52.264z"/>
		<path d="M92.886,52.078c0.284,1.584,0.569,3.075,0.949,4.66c-1.803-0.932-2.562-2.144-2.277-3.728
			c0.095-0.56,0.474-1.119,0.664-1.678c0.19-0.466,0.285-0.932,0.38-1.398c0.854,0.187,2.657,1.584,3.036,2.517
			c0.474,1.305,0.474,2.424-0.474,3.543C94.688,54.407,94.214,53.103,92.886,52.078z"/>
		<path d="M108.257,36.604c0.475-0.093,1.043-0.186,1.519-0.186c1.138,0,1.992,0.466,2.656,1.305
			c0.475,0.559,0.759,1.305,1.139,1.957c0.19,0.279,0,0.466-0.285,0.466c-0.854,0.187-1.613,0.373-2.467,0.466
			c-1.803,0.372-3.036-0.839-3.701-2.144c-0.095-0.187-0.095-0.28-0.284-0.56c1.613,0.093,2.941,0.839,4.269,1.398
			C111.103,38.469,109.49,37.164,108.257,36.604z"/>
		<path d="M98.832,135.102c0.664,0.745,1.265,2.398,0.031,4.13c-0.475,1.305-0.759,2.609-0.285,3.915
			c0.285,0.652,1.139,2.975,1.519,3.627c0.284,0.653-0.692-0.066-0.882,0.306c-0.19-0.092-0.92-1.044-1.016-1.137
			c-0.475-0.933-1.139-1.864-1.329-2.89c-0.285-0.932-0.189-1.865-0.189-2.796c0.095-0.652,0.285-1.398,0.569-2.051
			C97.535,137.646,98.452,135.847,98.832,135.102z"/>
		<path d="M151.524,46.671c0.475-1.025,0.949-2.051,0.854-3.263c0-0.093-0.095-0.093-0.19-0.186
			c-0.759,1.025-1.423,1.958-2.182,2.982c-0.379-0.652-0.379-2.517,0.095-2.982c0.664-0.933,1.423-1.771,2.087-2.61
			c1.043,0.466,2.088,2.889,1.708,4.194C153.611,45.833,152.567,46.765,151.524,46.671z"/>
		<path d="M109.152,142.165c0.569-0.466,1.002-0.702,1.477-1.075c1.423,1.212,4.554,2.522,6.357,3.27
			c0.949,0.371,2.452,1.396,3.4,1.77c0.379,0.188,0.474,0,0.379,0.188c-0.379,0.652-0.269,1.621-0.838,1.434
			c-1.139-0.466-3.606-1.993-4.65-2.46C113.665,144.451,110.765,143.004,109.152,142.165z"/>
		<path d="M70.019,45.833c-0.854-1.025-1.613-2.145-2.467-3.169c-0.095,0-0.095,0.093-0.19,0.093
			c-0.189,1.305,0.285,2.424,1.044,3.542c-0.475,0.187-0.854,0-1.139-0.279c-1.329-1.025-1.423-2.89-0.665-4.288
			c0.285-0.466,0.57-0.839,0.949-1.212c0.095-0.093,0.379-0.093,0.475-0.093c0.664,0.838,1.328,1.584,1.897,2.423
			c0.285,0.373,0.285,0.932,0.379,1.398c0.095,0.466,0,1.025,0,1.492C70.208,45.833,70.113,45.833,70.019,45.833z"/>
		<path d="M87.288,41.731c0-1.212,0.475-2.517,1.613-3.356c0.569-0.466,1.328-0.652,1.992-0.466
			c-0.569,0.652-1.139,1.305-1.708,2.05c0.095,0.094,0.095,0.094,0.19,0.187c1.139-0.373,2.087-1.212,3.321-1.212
			c0.285,2.05-1.992,3.448-3.605,2.89C88.521,41.638,87.952,41.731,87.288,41.731z"/>
		<path d="M128.847,39.028c0.854,0.372,1.708,0.745,2.657,1.211c-0.19-1.026-1.044-1.585-1.708-2.144
			c1.708-0.746,4.175,1.025,4.459,3.542c-1.139,0-2.277,0.093-3.416,0C129.891,41.452,128.752,40.24,128.847,39.028z"/>
		<path d="M97.63,152.748c-0.664-1.025-0.759-2.145-0.474-3.264c0.285-1.118,0.949-2.144,1.897-2.89
			c0.664-0.465,1.329-0.932,1.993-1.398c0.664-0.466,1.233-0.093,1.802,0.094c0.285,0.095,0.57,0.279,0.949,0.467
			c-1.613,0.559-3.037,1.118-4.175,2.143C98.199,149.206,97.535,150.604,97.63,152.748z"/>
		<path d="M116.59,145.22c-1.043,0.933-3.399,2.4-4.348,3.426c-1.043,1.025-1.518,2.331-1.992,3.822
			c-0.095-0.093-0.19-0.188-0.285-0.28c-0.474-2.236,0.285-4.007,1.993-5.5c0.569-0.466,2.355-1.533,3.019-2
			c0.095-0.094,0.716,0.436,0.811,0.529C116.167,145.403,116.306,145.033,116.59,145.22z"/>
		<path d="M116.227,151.535c0.095-1.025,0.569-1.771,1.233-2.424c0.665-0.652,1.519-1.212,2.088-1.956
			c0.664-0.746,1.233-1.492,1.708-2.425c0.285-0.559,0.474-0.932,1.139-1.118c0.379-0.094,0.759-0.373,1.234-0.56
			c-0.76,2.144-1.993,3.915-3.701,5.313c-0.854,0.652-1.708,1.305-2.562,2.05C116.891,150.697,116.606,151.07,116.227,151.535z"/>
		<path d="M179.515,106.606c0.19-0.652,0.379-1.305,0.664-2.051c1.329,1.68,2.751,2.984,4.934,3.17
			C183.974,108.658,180.558,107.633,179.515,106.606z"/>
		<path d="M122.101,142.165c-0.38-1.679-1.935-4.893-0.701-6.478c0.19,0.187,0.995,1.12,1.09,1.4
			c0.379,0.839,0.759,1.677,1.043,2.609c0.095,0.28,0.433,1.678,0.053,1.864C123.206,141.655,122.575,141.885,122.101,142.165z"/>
		<path d="M122.49,152.933c0.379-1.678-0.095-3.075-1.234-4.379c-0.379-0.468-1.392-0.794-0.822-1.26
			c0.38-1.025,1.486,0.234,1.771,0.514c0.854,1.118,1.138,2.424,0.949,3.728c-0.095,0.467-0.38,0.933-0.57,1.492
			C122.584,152.933,122.584,152.933,122.49,152.933z"/>
		<path d="M101.805,133.267c0.38,0.652,0.759,1.397,1.139,2.05c-0.664,0.373-1.783,1.248-2.542,1.621
			c-0.19-0.652-0.989-0.598-1.179-1.25c0-0.188,1.16-1.49,1.35-1.583C101.046,133.824,101.425,133.545,101.805,133.267z"/>
		<path d="M99.215,147.079c0.379-0.278,0.901-0.455,1.186-0.642c1.233,1.212,3.396,3.047,3.681,5.004
			C103.038,149.951,100.543,148.199,99.215,147.079z"/>
	</g>
</g>
</svg>
